<svg width="240" height="240" viewBox="0 0 240 240" fill="none" xmlns="http://www.w3.org/2000/svg">
<path d="M240 0H0V240H240V0Z" fill="#8278FF"/>
<path fill-rule="evenodd" clip-rule="evenodd" d="M78.3243 90.5257L78.3267 90.5216C85.2552 78.5895 100.507 74.4379 112.496 81.3438C120.319 85.8873 124.797 94.0085 125.006 102.442C125.002 102.666 125 102.891 125 103.116C125 103.319 125.002 103.522 125.005 103.725C124.898 107.74 123.819 111.787 121.668 115.519L101.668 150.119C94.7509 162.12 79.5145 166.206 67.5035 159.288C55.5717 152.358 51.4215 137.105 58.3305 125.115L58.3318 125.113L78.3243 90.5257ZM129.98 121.121L110.332 155.113C100.65 171.91 79.291 177.624 62.503 167.948L62.4965 167.944L62.49 167.94C45.8274 158.269 39.9801 136.927 49.668 120.119L69.6755 85.5058C79.3468 68.8432 100.689 62.9959 117.497 72.6838L117.503 72.6876L117.51 72.6913C122.842 75.7862 127.066 80.0761 130.029 85.03C136.159 74.8923 147.288 68.1157 160 68.1157C179.33 68.1157 195 83.7858 195 103.116C195 122.446 179.33 138.116 160 138.116C147.255 138.116 136.101 131.303 129.98 121.121ZM135.009 103.811C135.378 117.297 146.425 128.116 160 128.116C173.807 128.116 185 116.923 185 103.116C185 89.3086 173.807 78.1157 160 78.1157C146.437 78.1157 135.397 88.9157 135.01 102.385C135.02 102.859 135.02 103.335 135.009 103.811Z" fill="white"/>
</svg>
