<svg width="705" height="40" viewBox="0 0 705 40" fill="none" xmlns="http://www.w3.org/2000/svg">
<path d="M10.4673 20.3122C10.3625 20.1749 10.2241 20.0671 10.0655 19.9991C9.90681 19.9311 9.73329 19.9052 9.5617 19.924C9.39011 19.9427 9.22627 20.0055 9.08607 20.1062C8.94587 20.2069 8.83405 20.3421 8.76145 20.4987L0.109822 37.7986C0.0305931 37.9565 -0.00686076 38.1321 0.00103291 38.3086C0.00892658 38.4851 0.0619045 38.6567 0.154914 38.8069C0.247924 38.9571 0.377864 39.081 0.532342 39.1667C0.68682 39.2525 0.860684 39.2972 1.03735 39.2966H13.0846C13.2779 39.3018 13.4684 39.2506 13.6331 39.1493C13.7978 39.048 13.9295 38.901 14.0121 38.7262C16.6028 33.3417 15.0303 25.1849 10.4673 20.3122Z" fill="white"/>
<path d="M16.816 4.55367C14.6522 7.8714 13.389 11.6952 13.1506 15.6492C12.9123 19.6032 13.7071 23.5511 15.4567 27.1047L21.2938 38.7268C21.38 38.8988 21.5125 39.0432 21.6764 39.144C21.8402 39.2448 22.0289 39.2978 22.2213 39.2972H34.2685C34.4439 39.2951 34.6157 39.2484 34.768 39.1615C34.9204 39.0747 35.0481 38.9505 35.1392 38.8007C35.2304 38.6509 35.2819 38.4804 35.2891 38.3052C35.2962 38.13 35.2587 37.9559 35.1801 37.7992L18.5751 4.55367C18.4956 4.38786 18.3708 4.2479 18.2152 4.14994C18.0596 4.05198 17.8795 4 17.6956 4C17.5117 4 17.3316 4.05198 17.1759 4.14994C17.0203 4.2479 16.8956 4.38786 16.816 4.55367Z" fill="white"/>
<path d="M158.126 18.4472C158.126 22.7122 160.114 26.1348 167.886 27.6329C172.524 28.6032 173.494 29.3549 173.494 30.9009C173.494 32.447 172.524 33.3746 169.23 33.3746C165.281 33.3033 161.412 32.2556 157.966 30.3252V37.3091C160.306 38.4553 163.398 39.7401 169.16 39.7401C177.29 39.7401 180.515 36.1202 180.515 30.7303L158.126 18.4472ZM180.515 30.7303C180.515 25.6497 177.823 23.2666 170.221 21.6299C166.026 20.7023 165.008 19.7747 165.008 18.4312C165.008 16.7519 166.511 16.0481 169.272 16.0481C172.631 16.0481 175.941 17.0664 179.081 18.4792V11.8205C176.071 10.45 172.792 9.77056 169.486 9.83194C161.975 9.83194 158.089 13.1 158.089 18.4472" fill="white"/>
<path d="M262.543 10.2747V39.2978H268.726V17.1679L271.333 23.0429L280.08 39.2978H287.852V10.2747H281.669V29.0086L279.329 23.5707L272.303 10.2747H262.543Z" fill="white"/>
<path d="M223.213 10.2747H216.454V39.2978H223.213V10.2747Z" fill="white"/>
<path d="M208.655 30.7303C208.655 25.6497 205.963 23.2666 198.362 21.6299C194.167 20.7023 193.148 19.7747 193.148 18.4312C193.148 16.7519 194.652 16.0481 197.413 16.0481C200.771 16.0481 204.082 17.0664 207.221 18.4792V11.8205C204.211 10.45 200.933 9.77056 197.626 9.83194C190.115 9.83194 186.229 13.1 186.229 18.4472C186.229 22.7122 188.218 26.1348 195.99 27.6329C200.627 28.6032 201.598 29.3549 201.598 30.9009C201.598 32.447 200.627 33.3746 197.333 33.3746C193.384 33.3033 189.515 32.2556 186.069 30.3252V37.3091C188.41 38.4553 191.501 39.7401 197.264 39.7401C205.393 39.7401 208.618 36.1202 208.618 30.7303" fill="white"/>
<path d="M105.63 10.2747V39.2978H119.521L121.707 33.0283H112.432V10.2747H105.63Z" fill="white"/>
<path d="M78.1824 10.2747V16.5495H85.6932V39.2978H92.4952V16.5495H100.534V10.2747H78.1824Z" fill="white"/>
<path d="M68.3207 10.2747H59.4079L49.2797 39.2978H57.0358L58.4537 34.4091C61.9928 35.4514 65.7572 35.4514 69.2962 34.4091L70.7302 39.2978H78.4596L68.3207 10.2747ZM63.8643 29.1792C62.6014 29.1809 61.3448 29.0014 60.1329 28.646L63.8643 15.9737L67.5958 28.646C66.3839 29.0014 65.1272 29.1809 63.8643 29.1792Z" fill="white"/>
<path d="M143.467 10.2747H134.554L124.426 39.2978H132.155L133.6 34.4091C137.132 35.4473 140.888 35.4473 144.421 34.4091L145.855 39.2978H153.584L143.467 10.2747ZM139.01 29.1792C137.747 29.1809 136.491 29.0014 135.279 28.646L139.01 15.9737L142.742 28.646C141.53 29.0014 140.273 29.1809 139.01 29.1792Z" fill="white"/>
<path d="M247.564 10.2747H238.651L228.523 39.2978H236.252L237.697 34.4091C241.229 35.4473 244.985 35.4473 248.518 34.4091L249.952 39.2978H257.681L247.564 10.2747ZM243.107 29.1792C241.844 29.1809 240.588 29.0014 239.376 28.646L243.107 15.9737L246.839 28.646C245.627 29.0014 244.37 29.1809 243.107 29.1792Z" fill="white"/>
<path d="M358.945 39.3639H352.209V19.6447H348V13.7607H352.209V12.3825C352.209 9.66141 352.999 7.50573 354.577 5.91547C356.156 4.28988 358.225 3.47708 360.786 3.47708C363.733 3.47708 365.943 4.27221 367.416 5.86246L364.89 9.83811C364.189 9.13133 363.259 8.77794 362.102 8.77794C361.155 8.77794 360.383 9.09599 359.787 9.73209C359.225 10.3329 358.945 11.2163 358.945 12.3825V13.7607H364.101V19.6447H358.945V39.3639Z" fill="white"/>
<path d="M389.524 36.1304C387.068 38.7101 383.806 40 379.737 40C375.668 40 372.405 38.7101 369.95 36.1304C367.529 33.5153 366.319 30.3171 366.319 26.5358C366.319 22.7545 367.529 19.574 369.95 16.9943C372.405 14.4145 375.668 13.1246 379.737 13.1246C383.806 13.1246 387.068 14.4145 389.524 16.9943C391.979 19.574 393.207 22.7545 393.207 26.5358C393.207 30.3171 391.979 33.5153 389.524 36.1304ZM375.001 31.8897C376.159 33.3032 377.737 34.01 379.737 34.01C381.736 34.01 383.315 33.3032 384.472 31.8897C385.665 30.4408 386.261 28.6562 386.261 26.5358C386.261 24.4508 385.665 22.7015 384.472 21.288C383.315 19.8391 381.736 19.1146 379.737 19.1146C377.737 19.1146 376.159 19.8391 375.001 21.288C373.843 22.7015 373.265 24.4508 373.265 26.5358C373.265 28.6562 373.843 30.4408 375.001 31.8897Z" fill="white"/>
<path d="M404.847 39.3639H398.165V13.7607H404.847V17.2593C405.794 16.0578 407.004 15.0683 408.478 14.2908C409.951 13.5134 411.442 13.1246 412.95 13.1246V19.6977C412.459 19.5917 411.845 19.5387 411.109 19.5387C409.986 19.5387 408.794 19.8214 407.531 20.3868C406.268 20.9522 405.373 21.6414 404.847 22.4542V39.3639Z" fill="white"/>
<path d="M420.441 11.0043C419.353 11.0043 418.406 10.6156 417.599 9.83811C416.828 9.02531 416.442 8.07116 416.442 6.97565C416.442 5.88014 416.828 4.94365 417.599 4.16619C418.406 3.38873 419.353 3 420.441 3C421.563 3 422.51 3.38873 423.282 4.16619C424.054 4.94365 424.44 5.88014 424.44 6.97565C424.44 8.07116 424.054 9.02531 423.282 9.83811C422.51 10.6156 421.563 11.0043 420.441 11.0043ZM423.808 39.3639H417.126V13.7607H423.808V39.3639Z" fill="white"/>
<path d="M433.749 11.0043C432.662 11.0043 431.715 10.6156 430.908 9.83811C430.136 9.02531 429.75 8.07116 429.75 6.97565C429.75 5.88014 430.136 4.94365 430.908 4.16619C431.715 3.38873 432.662 3 433.749 3C434.872 3 435.819 3.38873 436.591 4.16619C437.363 4.94365 437.748 5.88014 437.748 6.97565C437.748 8.07116 437.363 9.02531 436.591 9.83811C435.819 10.6156 434.872 11.0043 433.749 11.0043ZM437.117 39.3639H430.434V13.7607H437.117V39.3639Z" fill="white"/>
<path d="M465.317 36.1304C462.861 38.7101 459.599 40 455.53 40C451.461 40 448.198 38.7101 445.743 36.1304C443.322 33.5153 442.112 30.3171 442.112 26.5358C442.112 22.7545 443.322 19.574 445.743 16.9943C448.198 14.4145 451.461 13.1246 455.53 13.1246C459.599 13.1246 462.861 14.4145 465.317 16.9943C467.772 19.574 469 22.7545 469 26.5358C469 30.3171 467.772 33.5153 465.317 36.1304ZM450.794 31.8897C451.952 33.3032 453.53 34.01 455.53 34.01C457.529 34.01 459.108 33.3032 460.265 31.8897C461.458 30.4408 462.054 28.6562 462.054 26.5358C462.054 24.4508 461.458 22.7015 460.265 21.288C459.108 19.8391 457.529 19.1146 455.53 19.1146C453.53 19.1146 451.952 19.8391 450.794 21.288C449.636 22.7015 449.058 24.4508 449.058 26.5358C449.058 28.6562 449.636 30.4408 450.794 31.8897Z" fill="white"/>
<path d="M568.755 1.7074L584.502 39.4389V1.7074H568.755ZM541.902 1.7074V39.4389L557.662 1.7074H541.902ZM556.323 31.8498H563.666L566.666 39.4389H573.241L563.209 15.6124L556.323 31.8498Z" fill="white"/>
<path d="M606.065 1.49183L597.562 38.992H602.709L604.946 28.6437H612.778L614.959 38.992H620.162L612.162 1.49183H606.065ZM605.562 24.4697L607.352 15.5124C607.855 13.1199 608.415 9.67013 608.806 6.94465H609.03C609.421 9.61542 609.925 12.9529 610.428 15.5124L612.162 24.4697H605.562ZM639.805 0.490295H634.546V14.5665H634.435C633.484 12.5078 631.75 11.5063 629.568 11.5063C625.262 11.5063 621.177 16.0113 621.177 25.5825C621.177 33.9843 624.254 39.4362 629.288 39.4362C632.027 39.4362 634.098 37.6 634.993 35.7073H635.162L635.497 38.9901H640.027C639.915 37.0983 639.803 34.0947 639.803 32.0359L639.805 0.490295ZM634.546 29.4783C634.546 30.0894 634.49 30.7581 634.379 31.2013C633.484 34.4276 631.916 35.0415 630.743 35.0415C627.946 35.0415 626.491 31.1475 626.491 25.5835C626.491 20.5758 627.609 16.0132 630.91 16.0132C632.811 16.0132 634.21 18.1276 634.49 20.5758C634.547 21.1331 634.546 21.7451 634.546 22.2459V29.4783ZM652.608 11.5063C647.631 11.5063 642.988 15.6794 642.988 25.5269C642.988 34.8199 646.903 39.4371 652.33 39.4371H652.387C656.526 39.4371 661.841 36.1543 661.841 25.4165C661.838 16.2923 657.978 11.5063 652.608 11.5063ZM652.497 35.3188H652.44C649.029 35.3188 648.245 29.9772 648.245 25.4712C648.245 21.4094 648.917 15.6228 652.384 15.6228C655.74 15.6228 656.467 21.4094 656.467 25.4712C656.469 29.5896 655.741 35.3188 652.497 35.3188ZM676.082 11.5063C673.678 11.5063 671.776 12.5635 670.377 15.0107H670.265V0.490295H665.007V32.0378C665.007 34.0965 664.895 37.1577 664.783 38.992H669.315L669.594 35.5988H669.817C670.993 37.9914 672.502 39.439 675.187 39.439C679.662 39.439 683.635 34.7076 683.635 25.028C683.633 16.7365 680.724 11.5063 676.082 11.5063ZM674.012 35.0415C672.949 35.0415 671.327 34.3729 670.488 31.091C670.321 30.6468 670.265 30.0329 670.265 29.4208V21.8555C670.265 21.2972 670.322 20.5748 670.434 20.0194C670.826 18.0719 672.224 16.0132 673.957 16.0132C677.089 16.0132 678.322 20.1863 678.322 25.3609C678.32 30.9241 677.144 35.0415 674.012 35.0415ZM695.979 11.5063C690.328 11.5063 686.246 16.9591 686.246 25.8042C686.246 34.1503 689.827 39.2693 696.651 39.2693C699.055 39.2693 701.518 38.8251 703.14 37.9905L702.356 34.2069C701.18 34.7642 699.559 35.2075 697.658 35.2075C694.468 35.2075 691.449 33.4835 691.392 26.5293L704.146 26.5859C704.203 25.8626 704.257 25.027 704.257 23.6926C704.257 16.9035 701.629 11.5063 695.979 11.5063ZM691.448 22.8005C691.617 19.4064 692.846 15.4559 695.586 15.4559C697.656 15.4559 699.335 18.0153 699.278 22.8005H691.448ZM704.027 12.6822V12.672C704.171 12.6293 704.29 12.5217 704.29 12.3446C704.29 12.2157 704.247 12.1258 704.166 12.0664C704.085 12.008 703.952 11.9653 703.747 11.9653C703.586 11.9653 703.478 11.982 703.366 11.9969V13.3397H703.58V12.7619H703.73C703.903 12.7619 703.987 12.8259 704.021 12.9975C704.047 13.1737 704.08 13.297 704.114 13.3397H704.338C704.318 13.297 704.284 13.2163 704.252 13.0086C704.225 12.8101 704.145 12.7035 704.027 12.6822ZM703.737 12.5959H703.581V12.1415C703.618 12.1369 703.667 12.1313 703.737 12.1313C703.979 12.1313 704.065 12.2482 704.065 12.3659C704.064 12.5329 703.914 12.5959 703.737 12.5959ZM703.812 11.4358H703.807C703.146 11.4358 702.608 11.9709 702.608 12.6395C702.608 13.3183 703.146 13.8478 703.807 13.8478C704.473 13.8478 705 13.3193 705 12.6395C705 11.9709 704.473 11.4358 703.812 11.4358ZM703.812 13.6605C703.274 13.6605 702.839 13.2126 702.839 12.6395C702.839 12.0785 703.274 11.6231 703.807 11.6231H703.812C704.349 11.6231 704.779 12.0775 704.779 12.6451C704.779 13.2107 704.349 13.6661 703.812 13.6605ZM585.707 1.59013H585.701C585.039 1.59013 584.502 2.12521 584.502 2.7929C584.502 3.47172 585.039 4.00124 585.701 4.00124C586.368 4.00124 586.894 3.47265 586.894 2.7929C586.895 2.12521 586.368 1.59013 585.707 1.59013ZM585.707 3.81484C585.169 3.81484 584.735 3.36601 584.735 2.7929C584.735 2.23279 585.17 1.77653 585.702 1.77653H585.708C586.246 1.77653 586.676 2.23093 586.676 2.79754C586.674 3.36601 586.244 3.82041 585.707 3.81484ZM585.922 2.83649V2.82536C586.067 2.7827 586.185 2.67513 586.185 2.49893C586.185 2.37003 586.142 2.27915 586.062 2.2198C585.982 2.16138 585.847 2.11965 585.643 2.11965C585.482 2.11965 585.374 2.13541 585.261 2.15211V3.49305H585.477V2.91624H585.627C585.799 2.91624 585.884 2.98023 585.918 3.15179C585.944 3.32799 585.976 3.4504 586.009 3.49398H586.236C586.214 3.45132 586.182 3.37064 586.149 3.16292C586.121 2.96446 586.041 2.85782 585.922 2.83649ZM585.631 2.75025H585.476V2.29585C585.513 2.29121 585.562 2.28472 585.631 2.28472C585.873 2.28472 585.96 2.40249 585.96 2.52026C585.96 2.68626 585.809 2.75025 585.631 2.75025Z" fill="white"/>
</svg>
