<?xml version="1.0" encoding="utf-8"?>
<!-- Generator: Adobe Illustrator 19.0.0, SVG Export Plug-In . SVG Version: 6.00 Build 0)  -->
<svg version="1.1" id="Layer_1" xmlns="http://www.w3.org/2000/svg" xmlns:xlink="http://www.w3.org/1999/xlink" x="0px" y="0px"
	 viewBox="-285 377 40 40" style="enable-background:new -285 377 40 40;" xml:space="preserve">
<style type="text/css">
	.st0{fill:#4958A7;}
	.st1{fill:#3333FF;}
</style>
<g id="XMLID_14_">
	<rect id="XMLID_15_" x="152" y="543" class="st0" width="24" height="8"/>
	<path id="XMLID_875_" class="st0" d="M148,539h4h24v-4c0-4.4-3.6-8-8-8h-24c-4.4,0-8,3.6-8,8v4H148z M158,531c1.1,0,2,0.9,2,2
		s-0.9,2-2,2c-1.1,0-2-0.9-2-2S156.9,531,158,531z M150,531c1.1,0,2,0.9,2,2s-0.9,2-2,2c-1.1,0-2-0.9-2-2S148.9,531,150,531z
		 M142,531c1.1,0,2,0.9,2,2s-0.9,2-2,2c-1.1,0-2-0.9-2-2S140.9,531,142,531z"/>
	<path id="XMLID_878_" class="st0" d="M152,555v12h16c4.4,0,8-3.6,8-8v-4H152z"/>
	<path id="XMLID_879_" class="st0" d="M148,543h-12v16c0,4.4,3.6,8,8,8h4V543z"/>
</g>
<g id="XMLID_1_">
	<rect id="XMLID_9_" x="152" y="543" class="st1" width="24" height="8"/>
	<path id="XMLID_4_" class="st1" d="M148,539h4h24v-4c0-4.4-3.6-8-8-8h-24c-4.4,0-8,3.6-8,8v4H148z M158,531c1.1,0,2,0.9,2,2
		s-0.9,2-2,2c-1.1,0-2-0.9-2-2S156.9,531,158,531z M150,531c1.1,0,2,0.9,2,2s-0.9,2-2,2c-1.1,0-2-0.9-2-2S148.9,531,150,531z
		 M142,531c1.1,0,2,0.9,2,2s-0.9,2-2,2c-1.1,0-2-0.9-2-2S140.9,531,142,531z"/>
	<path id="XMLID_3_" class="st1" d="M152,555v12h16c4.4,0,8-3.6,8-8v-4H152z"/>
	<path id="XMLID_2_" class="st1" d="M148,543h-12v16c0,4.4,3.6,8,8,8h4V543z"/>
</g>
<g id="XMLID_10_">
	<rect id="XMLID_20_" x="-269" y="393" class="st1" width="24" height="8"/>
	<path id="XMLID_13_" class="st1" d="M-273,389h4h24v-4c0-4.4-3.6-8-8-8h-24c-4.4,0-8,3.6-8,8v4H-273z M-263,381c1.1,0,2,0.9,2,2
		s-0.9,2-2,2c-1.1,0-2-0.9-2-2S-264.1,381-263,381z M-271,381c1.1,0,2,0.9,2,2s-0.9,2-2,2c-1.1,0-2-0.9-2-2S-272.1,381-271,381z
		 M-279,381c1.1,0,2,0.9,2,2s-0.9,2-2,2c-1.1,0-2-0.9-2-2S-280.1,381-279,381z"/>
	<path id="XMLID_12_" class="st1" d="M-269,405v12h16c4.4,0,8-3.6,8-8v-4H-269z"/>
	<path id="XMLID_11_" class="st1" d="M-273,393h-12v16c0,4.4,3.6,8,8,8h4V393z"/>
</g>
</svg>
