<svg width="262" height="43" viewBox="0 0 262 43" fill="none" xmlns="http://www.w3.org/2000/svg">
<path d="M8.2 0.3375L7.8 1.3375C7.4 1.0375 6.7 0.9375 5.9 0.9375C5.1 0.9375 4.4 1.1375 3.8 1.4375C3.1 1.7375 2.6 2.2375 2.1 2.8375C1.7 3.4375 1.5 4.1375 1.5 4.8375V10.7375H9.53674e-08V0.1375H1.3L1.5 2.3375C1.9 1.6375 2.5 1.0375 3.4 0.6375C4.2 0.2375 5.2 0.0374998 6.4 0.0374998C7.1 -0.0625002 7.8 0.0375 8.2 0.3375Z" transform="translate(0.833862 5.03827)" fill="#3333FF"/>
<path d="M0.3 1.6C0.1 1.4 -7.62939e-07 1.2 -7.62939e-07 1C-7.62939e-07 0.7 0.1 0.5 0.3 0.4C0.5 0.1 0.8 0 1.2 0C1.6 0 1.9 0.1 2.1 0.2C2.3 0.4 2.4 0.6 2.4 0.8C2.4 1.1 2.3 1.3 2.1 1.4C1.9 1.6 1.6 1.6 1.2 1.6C0.8 1.6 0.5 1.7 0.3 1.6ZM2 14.3H0.499999V3.8H2V14.3Z" transform="translate(16.2339 1.37579)" fill="#3333FF"/>
<path d="M10.9 0.71916C11.9 1.21916 12.7 1.91916 13.2 2.81916L11.8 3.31916C11.5 2.51916 10.9 1.91916 10.1 1.51916C9.3 1.11916 8.3 0.91916 7.1 0.91916C5.4 0.91916 4 1.31916 3 2.11916C2 2.91916 1.5 4.01916 1.5 5.41916C1.5 6.81916 2 7.91916 3 8.71916C4 9.51916 5.3 9.91916 7.1 9.91916C8.4 9.91916 9.5 9.71916 10.4 9.21916C11.3 8.81916 11.8 8.11916 12 7.41916L13.4 7.71916C13 8.71916 12.2 9.41916 11.1 10.0192C10 10.6192 8.7 10.8192 7.1 10.8192C4.9 10.8192 3.1 10.3192 1.9 9.41916C0.7 8.41916 7.62939e-07 7.11916 7.62939e-07 5.41916C7.62939e-07 3.71916 0.6 2.41916 1.9 1.41916C3.2 0.41916 4.9 0.01916 7.1 0.01916C8.6 -0.08084 9.8 0.21916 10.9 0.71916Z" transform="translate(27.1339 5.05664)" fill="#3333FF"/>
<path d="M5 9.8L1.5 12.2V15.4H0V0H1.5V10.8L10.4 4.8H12.4L6.1 9L12.5 15.3H10.7L5 9.8Z" transform="translate(48.9339 0.375793)" fill="#3333FF"/>
<path d="M0.299998 1.6C0.0999985 1.4 3.05176e-06 1.2 3.05176e-06 1C3.05176e-06 0.7 0.0999985 0.5 0.299998 0.4C0.599998 0.1 0.9 0 1.2 0C1.5 0 1.9 0.1 2.1 0.2C2.3 0.4 2.4 0.6 2.4 0.8C2.4 1.1 2.3 1.3 2.1 1.4C1.9 1.6 1.6 1.6 1.2 1.6C0.8 1.6 0.599998 1.7 0.299998 1.6ZM2 14.3H0.500003V3.8H2V14.3Z" transform="translate(68.7339 1.37579)" fill="#3333FF"/>
<path d="M13.5 5.7H1.6C1.7 7 2.2 8 3.2 8.7C4.2 9.4 5.5 9.8 7.2 9.8C8.4 9.8 9.4 9.6 10.2 9.3C11 9 11.7 8.5 12 7.9L13.3 8.4C12.7 9.2 11.9 9.8 10.9 10.2C9.9 10.6 8.6 10.8 7.1 10.8C4.9 10.8 3.1 10.3 1.9 9.4C0.6 8.4 -1.52588e-06 7.1 -1.52588e-06 5.4C-1.52588e-06 3.7 0.600001 2.4 1.8 1.4C3 0.4 4.7 1.90735e-07 6.9 1.90735e-07C8.9 1.90735e-07 10.5 0.5 11.7 1.4C12.9 2.4 13.4 3.6 13.4 5.2C13.5 5.3 13.5 5.5 13.5 5.7ZM3.2 1.8C2.3 2.5 1.7 3.5 1.6 4.8H12.2C12.1 3.5 11.6 2.6 10.7 1.8C9.8 1 8.6 0.7 7.1 0.7C5.4 0.7 4.1 1.1 3.2 1.8Z" transform="translate(79.5339 5.17578)" fill="#3333FF"/>
<path d="M2.3 10.2C1.2 9.8 0.4 9.2 0 8.4L1.2 7.8C1.5 8.5 2.1 9 3 9.4C3.9 9.7 5 9.9 6.4 9.9C7.8 9.9 8.8 9.7 9.6 9.4C10.4 9 10.8 8.6 10.8 8C10.8 7.5 10.5 7.1 9.8 6.8C9.1 6.5 8 6.2 6.3 6C4.2 5.7 2.7 5.4 1.9 4.9C1 4.5 0.599998 3.8 0.599998 3C0.599998 2.5 0.800003 2 1.3 1.5C1.8 1 2.5 0.7 3.3 0.4C4.2 0.0999999 5.2 -1.90735e-07 6.3 -1.90735e-07C7.9 -1.90735e-07 9.1 0.2 10.1 0.6C11 1 11.7 1.7 12.1 2.5L10.8 3C10.2 1.6 8.7 0.8 6.3 0.8C5.5 0.8 4.8 0.9 4.1 1.1C3.5 1.3 2.9 1.5 2.6 1.8C2.2 2.1 2 2.4 2 2.8C2 3.4 2.3 3.8 3 4.1C3.7 4.4 4.9 4.7 6.6 4.9C8.6 5.1 10.1 5.5 10.9 5.9C11.7 6.3 12.2 7 12.2 7.8C12.2 8.7 11.7 9.4 10.6 10C9.5 10.5 8 10.8 6.2 10.8C4.7 10.8 3.4 10.6 2.3 10.2Z" transform="translate(114.434 5.07581)" fill="#3333FF"/>
<path d="M11.1 5.6C12.1 6.3 12.7 7.2 12.7 8.5V15.3H11.2V8.8C11.2 7.7 10.8 6.9 10 6.3C9.2 5.7 8.1 5.5 6.8 5.5C5.8 5.5 4.90001 5.7 4.10001 6C3.30001 6.3 2.60001 6.8 2.10001 7.4C1.60001 8 1.39999 8.7 1.39999 9.5V15.4H0V0H1.5V6.9C2 6.2 2.7 5.6 3.7 5.2C4.7 4.8 5.8 4.6 7 4.6C8.7 4.6 10.1 5 11.1 5.6Z" transform="translate(135.434 0.375793)" fill="#3333FF"/>
<path d="M13.5 5.7H1.59999C1.69999 7 2.2 8 3.2 8.7C4.2 9.4 5.5 9.8 7.2 9.8C8.4 9.8 9.4 9.6 10.2 9.3C11 9 11.7 8.5 12 7.9L13.3 8.4C12.7 9.2 11.9 9.8 10.9 10.2C9.9 10.6 8.59999 10.8 7.09999 10.8C4.89999 10.8 3.1 10.3 1.9 9.4C0.599997 8.4 3.05176e-06 7.1 3.05176e-06 5.4C3.05176e-06 3.7 0.600006 2.4 1.80001 1.4C3.00001 0.4 4.7 1.90735e-07 6.9 1.90735e-07C8.9 1.90735e-07 10.5 0.5 11.7 1.4C12.9 2.4 13.4 3.6 13.4 5.2C13.6 5.3 13.6 5.5 13.5 5.7ZM3.2 1.8C2.3 2.5 1.69999 3.5 1.59999 4.8H12.2C12.1 3.5 11.6 2.6 10.7 1.8C9.8 1 8.59999 0.7 7.09999 0.7C5.39999 0.7 4.2 1.1 3.2 1.8Z" transform="translate(156.734 5.17578)" fill="#3333FF"/>
<path d="M8.09999 0.4L7.7 1.4C7.2 1.1 6.60001 1 5.80001 1C5.00001 1 4.3 1.2 3.7 1.5C3 1.8 2.49999 2.3 2.09999 2.9C1.69999 3.5 1.5 4.2 1.5 4.9V10.8H3.05176e-06V0.2H1.30001L1.5 2.3C1.9 1.6 2.5 1 3.4 0.6C4.2 0.2 5.2 -9.53674e-08 6.4 -9.53674e-08C7 -9.53674e-08 7.59999 0.1 8.09999 0.4Z" transform="translate(179.234 4.97577)" fill="#3333FF"/>
<path d="M22.1 1.1C23.1 1.8 23.7 2.7 23.7 4V10.8H22.2V4.1C22.2 3.1 21.8 2.3 21 1.8C20.2 1.3 19.2 1 17.8 1C16.8 1 16 1.2 15.2 1.5C14.4 1.8 13.8 2.3 13.3 2.8C12.8 3.4 12.6 4 12.6 4.7V10.7H11.1V4.1C11.1 3.1 10.7 2.3 9.89999 1.8C9.09999 1.3 8.1 1 6.7 1C5.8 1 4.90001 1.2 4.10001 1.5C3.30001 1.8 2.7 2.3 2.2 2.8C1.7 3.4 1.5 4.1 1.5 4.8V10.7H0V0.3H1.3L1.39999 2.4C1.89999 1.7 2.60001 1.1 3.60001 0.7C4.60001 0.3 5.69999 0.0999999 6.89999 0.0999999C8.19999 0.0999999 9.3 0.3 10.3 0.7C11.3 1.1 11.9 1.7 12.3 2.5C12.7 1.7 13.4 1.1 14.5 0.7C15.6 0.3 16.7 0 18 0C19.7 0.1 21 0.4 22.1 1.1Z" transform="translate(194.934 4.87579)" fill="#3333FF"/>
<path d="M14.4 9.9L14.3 10.7C13.9 10.8 13.5 10.9 12.8 10.9C12.1 10.9 11.5 10.8 11.1 10.5C10.7 10.2 10.4 9.8 10.3 9.1C9.8 9.7 9.1 10.1 8.1 10.4C7.1 10.7 6.00001 10.9 4.90001 10.9C3.40001 10.9 2.2 10.7 1.3 10.2C0.4 9.7 -3.05176e-06 9.1 -3.05176e-06 8.2C-3.05176e-06 6.6 1.89999 5.5 5.69999 5.1L10.3 4.5V3.6C10.3 2.8 9.89999 2.1 9.19999 1.6C8.49999 1.1 7.49999 0.9 6.19999 0.9C3.79999 0.9 2.20001 1.6 1.40001 3.1L0.3 2.6C0.7 1.8 1.5 1.1 2.5 0.7C3.5 0.3 4.8 -9.53674e-08 6.3 -9.53674e-08C8 -9.53674e-08 9.40001 0.3 10.4 0.9C11.4 1.5 11.9 2.4 11.9 3.5V8.9C11.9 9.6 12.4 10 13.3 10C13.7 10 14.1 10 14.4 9.9ZM7.5 9.7C8.3 9.5 9 9.2 9.5 8.8C10 8.4 10.3 7.9 10.3 7.4V5.4L6.19999 5.9C4.59999 6.1 3.39999 6.4 2.69999 6.8C1.99999 7.2 1.6 7.7 1.6 8.2C1.6 8.8 1.9 9.2 2.5 9.5C3.1 9.8 4 10 5.1 10C5.9 10 6.7 9.9 7.5 9.7Z" transform="translate(227.134 4.97577)" fill="#3333FF"/>
<path d="M11.2 0.915314C12.2 1.61531 12.8 2.51531 12.8 3.81531V10.6153H11.3V4.21531C11.3 3.11531 10.9 2.21531 10.1 1.71531C9.30001 1.21531 8.2 0.915314 6.9 0.915314C5.9 0.915314 5 1.11531 4.2 1.41531C3.4 1.71531 2.7 2.21531 2.2 2.71531C1.7 3.31531 1.50001 4.01531 1.50001 4.81531V10.7153H6.10352e-06V0.115315H1.29999L1.4 2.31531C1.9 1.51531 2.6 1.01531 3.6 0.615315C4.6 0.215315 5.70001 0.0153142 7.00001 0.0153142C8.80001 -0.0846858 10.1 0.315314 11.2 0.915314Z" transform="translate(249.034 5.06049)" fill="#3333FF"/>
<path d="M5.43757 0.132353C7.28 0.132353 8.68575 0.511765 9.65482 1.27059C10.6359 2.02059 11.1264 3.09706 11.1264 4.5C11.1264 5.90294 10.6359 6.98382 9.65482 7.74265C8.68575 8.49265 7.28 8.86765 5.43757 8.86765H0V0.132353H5.43757ZM4.98892 6.89559C5.85032 6.89559 6.46048 6.70588 6.81939 6.32647C7.17831 5.93824 7.35776 5.32941 7.35776 4.5C7.35776 3.67059 7.17831 3.06618 6.81939 2.68676C6.46048 2.29853 5.85032 2.10441 4.98892 2.10441H3.66094V6.89559H4.98892Z" transform="translate(33 34)" fill="#FC32BF"/>
<path d="M37.0005 6.84265V8.86765H27.2201V0.132353H36.7672V2.15735H30.881V3.57353H35.5828V5.45294H30.881V6.84265H37.0005Z" transform="translate(33 34)" fill="#FC32BF"/>
<path d="M57.7446 0C58.8811 0 59.8562 0.114706 60.6697 0.344118C61.4952 0.564706 62.2848 0.944118 63.0386 1.48235L61.244 3.18971C60.7654 2.78382 60.251 2.49265 59.7007 2.31618C59.1623 2.13088 58.5402 2.03824 57.8343 2.03824C57.3198 2.03824 56.9191 2.1 56.6319 2.22353C56.3448 2.34706 56.2012 2.51029 56.2012 2.71324C56.2012 2.87206 56.3508 2.99559 56.6499 3.08382C56.949 3.17206 57.4455 3.26471 58.1394 3.36177C59.2879 3.51177 60.2031 3.71029 60.8851 3.95735C61.579 4.19559 62.0815 4.5 62.3925 4.87059C62.7155 5.24118 62.8771 5.7 62.8771 6.24706C62.8771 6.82941 62.6497 7.32794 62.1951 7.74265C61.7405 8.15735 61.1244 8.47059 60.3467 8.68235C59.5691 8.89412 58.6897 9 57.7087 9C56.3448 9 55.2441 8.89412 54.4067 8.68235C53.5692 8.46176 52.7915 8.11765 52.0737 7.65L53.7785 5.79706C54.2571 6.21177 54.7895 6.51177 55.3757 6.69706C55.9739 6.87353 56.6738 6.96176 57.4754 6.96176C58.5641 6.96176 59.1084 6.76765 59.1084 6.37941C59.1084 6.21176 58.9469 6.07941 58.6239 5.98235C58.3128 5.88529 57.8044 5.78824 57.0985 5.69118C56.1414 5.55882 55.3339 5.4 54.6758 5.21471C54.0298 5.02941 53.4914 4.75588 53.0607 4.39412C52.63 4.02353 52.4147 3.53382 52.4147 2.925C52.4147 2.35147 52.624 1.84412 53.0428 1.40294C53.4615 0.961765 54.0717 0.617647 54.8732 0.370588C55.6748 0.12353 56.6319 0 57.7446 0Z" transform="translate(33 34)" fill="#FC32BF"/>
<path d="M82.4295 8.86765H78.7686V0.132353H82.4295V8.86765Z" transform="translate(33 34)" fill="#FC32BF"/>
<path d="M104.398 4.03677H109.926V8.86765H107.449L107.323 7.86176C106.689 8.62059 105.595 9 104.039 9C102.986 9 102.041 8.82794 101.204 8.48382C100.378 8.13971 99.7263 7.63235 99.2478 6.96176C98.7692 6.29118 98.53 5.47941 98.53 4.52647C98.53 3.58235 98.7692 2.77059 99.2478 2.09118C99.7383 1.41176 100.432 0.895589 101.329 0.542647C102.239 0.180883 103.315 0 104.56 0C105.971 0 107.102 0.180883 107.951 0.542647C108.801 0.904412 109.465 1.49559 109.943 2.31618L106.534 3.25588C106.306 2.46176 105.69 2.06471 104.685 2.06471C103.094 2.06471 102.299 2.87647 102.299 4.5C102.299 5.36471 102.502 5.99559 102.909 6.39265C103.315 6.78971 103.944 6.98824 104.793 6.98824C105.415 6.98824 105.912 6.89118 106.283 6.69706C106.653 6.50294 106.839 6.21618 106.839 5.83677V5.77059H104.398V4.03677Z" transform="translate(33 34)" fill="#FC32BF"/>
<path d="M137.449 8.86765H133.429L130.198 4.53971L129.445 3.34853H129.409L129.481 5.08235V8.86765H126.286V0.132353H130.288L133.518 4.46029L134.29 5.65147H134.308L134.236 3.91765V0.132353H137.449V8.86765Z" transform="translate(33 34)" fill="#FC32BF"/>
<path d="M163.778 6.84265V8.86765H153.997V0.132353H163.544V2.15735H157.658V3.57353H162.36V5.45294H157.658V6.84265H163.778Z" transform="translate(33 34)" fill="#FC32BF"/>
<path d="M184.701 5.83677H183.212V8.86765H179.622V0.132353H185.688C187.196 0.132353 188.344 0.375 189.134 0.860294C189.923 1.34559 190.318 2.05588 190.318 2.99118C190.318 4.26176 189.582 5.11324 188.111 5.54559L191 8.86765H186.998L184.701 5.83677ZM183.212 3.99706H184.988C185.586 3.99706 186.011 3.92647 186.262 3.78529C186.514 3.63529 186.639 3.39265 186.639 3.05735C186.639 2.72206 186.508 2.47941 186.244 2.32941C185.993 2.17941 185.574 2.10441 184.988 2.10441H183.212V3.99706Z" transform="translate(33 34)" fill="#FC32BF"/>
</svg>
