<svg width="266" height="48" viewBox="0 0 266 48" fill="none" xmlns="http://www.w3.org/2000/svg">
<path d="M8.2 0.3375L7.8 1.3375C7.4 1.0375 6.7 0.9375 5.9 0.9375C5.1 0.9375 4.4 1.1375 3.8 1.4375C3.1 1.7375 2.6 2.2375 2.1 2.8375C1.7 3.4375 1.5 4.1375 1.5 4.8375V10.7375H9.53674e-08V0.1375H1.3L1.5 2.3375C1.9 1.6375 2.5 1.0375 3.4 0.6375C4.2 0.2375 5.2 0.0374998 6.4 0.0374998C7.1 -0.0625002 7.8 0.0375 8.2 0.3375Z" transform="translate(2.83386 5.03827)" fill="#3333FF"/>
<path d="M0.3 1.6C0.1 1.4 -7.62939e-07 1.2 -7.62939e-07 1C-7.62939e-07 0.7 0.1 0.5 0.3 0.4C0.5 0.1 0.8 0 1.2 0C1.6 0 1.9 0.1 2.1 0.2C2.3 0.4 2.4 0.6 2.4 0.8C2.4 1.1 2.3 1.3 2.1 1.4C1.9 1.6 1.6 1.6 1.2 1.6C0.8 1.6 0.5 1.7 0.3 1.6ZM2 14.3H0.499999V3.8H2V14.3Z" transform="translate(18.2339 1.37579)" fill="#3333FF"/>
<path d="M10.9 0.71916C11.9 1.21916 12.7 1.91916 13.2 2.81916L11.8 3.31916C11.5 2.51916 10.9 1.91916 10.1 1.51916C9.3 1.11916 8.3 0.91916 7.1 0.91916C5.4 0.91916 4 1.31916 3 2.11916C2 2.91916 1.5 4.01916 1.5 5.41916C1.5 6.81916 2 7.91916 3 8.71916C4 9.51916 5.3 9.91916 7.1 9.91916C8.4 9.91916 9.5 9.71916 10.4 9.21916C11.3 8.81916 11.8 8.11916 12 7.41916L13.4 7.71916C13 8.71916 12.2 9.41916 11.1 10.0192C10 10.6192 8.7 10.8192 7.1 10.8192C4.9 10.8192 3.1 10.3192 1.9 9.41916C0.7 8.41916 7.62939e-07 7.11916 7.62939e-07 5.41916C7.62939e-07 3.71916 0.6 2.41916 1.9 1.41916C3.2 0.41916 4.9 0.01916 7.1 0.01916C8.6 -0.08084 9.8 0.21916 10.9 0.71916Z" transform="translate(29.1339 5.05664)" fill="#3333FF"/>
<path d="M5 9.8L1.5 12.2V15.4H0V0H1.5V10.8L10.4 4.8H12.4L6.1 9L12.5 15.3H10.7L5 9.8Z" transform="translate(50.9339 0.375793)" fill="#3333FF"/>
<path d="M0.299998 1.6C0.0999985 1.4 3.05176e-06 1.2 3.05176e-06 1C3.05176e-06 0.7 0.0999985 0.5 0.299998 0.4C0.599998 0.1 0.9 0 1.2 0C1.5 0 1.9 0.1 2.1 0.2C2.3 0.4 2.4 0.6 2.4 0.8C2.4 1.1 2.3 1.3 2.1 1.4C1.9 1.6 1.6 1.6 1.2 1.6C0.8 1.6 0.599998 1.7 0.299998 1.6ZM2 14.3H0.500003V3.8H2V14.3Z" transform="translate(70.7339 1.37579)" fill="#3333FF"/>
<path d="M13.5 5.7H1.6C1.7 7 2.2 8 3.2 8.7C4.2 9.4 5.5 9.8 7.2 9.8C8.4 9.8 9.4 9.6 10.2 9.3C11 9 11.7 8.5 12 7.9L13.3 8.4C12.7 9.2 11.9 9.8 10.9 10.2C9.9 10.6 8.6 10.8 7.1 10.8C4.9 10.8 3.1 10.3 1.9 9.4C0.6 8.4 -1.52588e-06 7.1 -1.52588e-06 5.4C-1.52588e-06 3.7 0.600001 2.4 1.8 1.4C3 0.4 4.7 1.90735e-07 6.9 1.90735e-07C8.9 1.90735e-07 10.5 0.5 11.7 1.4C12.9 2.4 13.4 3.6 13.4 5.2C13.5 5.3 13.5 5.5 13.5 5.7ZM3.2 1.8C2.3 2.5 1.7 3.5 1.6 4.8H12.2C12.1 3.5 11.6 2.6 10.7 1.8C9.8 1 8.6 0.7 7.1 0.7C5.4 0.7 4.1 1.1 3.2 1.8Z" transform="translate(81.5339 5.17578)" fill="#3333FF"/>
<path d="M2.3 10.2C1.2 9.8 0.4 9.2 0 8.4L1.2 7.8C1.5 8.5 2.1 9 3 9.4C3.9 9.7 5 9.9 6.4 9.9C7.8 9.9 8.8 9.7 9.6 9.4C10.4 9 10.8 8.6 10.8 8C10.8 7.5 10.5 7.1 9.8 6.8C9.1 6.5 8 6.2 6.3 6C4.2 5.7 2.7 5.4 1.9 4.9C1 4.5 0.599998 3.8 0.599998 3C0.599998 2.5 0.800003 2 1.3 1.5C1.8 1 2.5 0.7 3.3 0.4C4.2 0.0999999 5.2 -1.90735e-07 6.3 -1.90735e-07C7.9 -1.90735e-07 9.1 0.2 10.1 0.6C11 1 11.7 1.7 12.1 2.5L10.8 3C10.2 1.6 8.7 0.8 6.3 0.8C5.5 0.8 4.8 0.9 4.1 1.1C3.5 1.3 2.9 1.5 2.6 1.8C2.2 2.1 2 2.4 2 2.8C2 3.4 2.3 3.8 3 4.1C3.7 4.4 4.9 4.7 6.6 4.9C8.6 5.1 10.1 5.5 10.9 5.9C11.7 6.3 12.2 7 12.2 7.8C12.2 8.7 11.7 9.4 10.6 10C9.5 10.5 8 10.8 6.2 10.8C4.7 10.8 3.4 10.6 2.3 10.2Z" transform="translate(116.434 5.07581)" fill="#3333FF"/>
<path d="M11.1 5.6C12.1 6.3 12.7 7.2 12.7 8.5V15.3H11.2V8.8C11.2 7.7 10.8 6.9 10 6.3C9.2 5.7 8.1 5.5 6.8 5.5C5.8 5.5 4.90001 5.7 4.10001 6C3.30001 6.3 2.60001 6.8 2.10001 7.4C1.60001 8 1.39999 8.7 1.39999 9.5V15.4H0V0H1.5V6.9C2 6.2 2.7 5.6 3.7 5.2C4.7 4.8 5.8 4.6 7 4.6C8.7 4.6 10.1 5 11.1 5.6Z" transform="translate(137.434 0.375793)" fill="#3333FF"/>
<path d="M13.5 5.7H1.59999C1.69999 7 2.2 8 3.2 8.7C4.2 9.4 5.5 9.8 7.2 9.8C8.4 9.8 9.4 9.6 10.2 9.3C11 9 11.7 8.5 12 7.9L13.3 8.4C12.7 9.2 11.9 9.8 10.9 10.2C9.9 10.6 8.59999 10.8 7.09999 10.8C4.89999 10.8 3.1 10.3 1.9 9.4C0.599997 8.4 3.05176e-06 7.1 3.05176e-06 5.4C3.05176e-06 3.7 0.600006 2.4 1.80001 1.4C3.00001 0.4 4.7 1.90735e-07 6.9 1.90735e-07C8.9 1.90735e-07 10.5 0.5 11.7 1.4C12.9 2.4 13.4 3.6 13.4 5.2C13.6 5.3 13.6 5.5 13.5 5.7ZM3.2 1.8C2.3 2.5 1.69999 3.5 1.59999 4.8H12.2C12.1 3.5 11.6 2.6 10.7 1.8C9.8 1 8.59999 0.7 7.09999 0.7C5.39999 0.7 4.2 1.1 3.2 1.8Z" transform="translate(158.734 5.17578)" fill="#3333FF"/>
<path d="M8.09999 0.4L7.7 1.4C7.2 1.1 6.60001 1 5.80001 1C5.00001 1 4.3 1.2 3.7 1.5C3 1.8 2.49999 2.3 2.09999 2.9C1.69999 3.5 1.5 4.2 1.5 4.9V10.8H3.05176e-06V0.2H1.30001L1.5 2.3C1.9 1.6 2.5 1 3.4 0.6C4.2 0.2 5.2 -9.53674e-08 6.4 -9.53674e-08C7 -9.53674e-08 7.59999 0.1 8.09999 0.4Z" transform="translate(181.234 4.97577)" fill="#3333FF"/>
<path d="M22.1 1.1C23.1 1.8 23.7 2.7 23.7 4V10.8H22.2V4.1C22.2 3.1 21.8 2.3 21 1.8C20.2 1.3 19.2 1 17.8 1C16.8 1 16 1.2 15.2 1.5C14.4 1.8 13.8 2.3 13.3 2.8C12.8 3.4 12.6 4 12.6 4.7V10.7H11.1V4.1C11.1 3.1 10.7 2.3 9.89999 1.8C9.09999 1.3 8.1 1 6.7 1C5.8 1 4.90001 1.2 4.10001 1.5C3.30001 1.8 2.7 2.3 2.2 2.8C1.7 3.4 1.5 4.1 1.5 4.8V10.7H0V0.3H1.3L1.39999 2.4C1.89999 1.7 2.60001 1.1 3.60001 0.7C4.60001 0.3 5.69999 0.0999999 6.89999 0.0999999C8.19999 0.0999999 9.3 0.3 10.3 0.7C11.3 1.1 11.9 1.7 12.3 2.5C12.7 1.7 13.4 1.1 14.5 0.7C15.6 0.3 16.7 0 18 0C19.7 0.1 21 0.4 22.1 1.1Z" transform="translate(196.934 4.87579)" fill="#3333FF"/>
<path d="M14.4 9.9L14.3 10.7C13.9 10.8 13.5 10.9 12.8 10.9C12.1 10.9 11.5 10.8 11.1 10.5C10.7 10.2 10.4 9.8 10.3 9.1C9.8 9.7 9.1 10.1 8.1 10.4C7.1 10.7 6.00001 10.9 4.90001 10.9C3.40001 10.9 2.2 10.7 1.3 10.2C0.4 9.7 -3.05176e-06 9.1 -3.05176e-06 8.2C-3.05176e-06 6.6 1.89999 5.5 5.69999 5.1L10.3 4.5V3.6C10.3 2.8 9.89999 2.1 9.19999 1.6C8.49999 1.1 7.49999 0.9 6.19999 0.9C3.79999 0.9 2.20001 1.6 1.40001 3.1L0.3 2.6C0.7 1.8 1.5 1.1 2.5 0.7C3.5 0.3 4.8 -9.53674e-08 6.3 -9.53674e-08C8 -9.53674e-08 9.40001 0.3 10.4 0.9C11.4 1.5 11.9 2.4 11.9 3.5V8.9C11.9 9.6 12.4 10 13.3 10C13.7 10 14.1 10 14.4 9.9ZM7.5 9.7C8.3 9.5 9 9.2 9.5 8.8C10 8.4 10.3 7.9 10.3 7.4V5.4L6.19999 5.9C4.59999 6.1 3.39999 6.4 2.69999 6.8C1.99999 7.2 1.6 7.7 1.6 8.2C1.6 8.8 1.9 9.2 2.5 9.5C3.1 9.8 4 10 5.1 10C5.9 10 6.7 9.9 7.5 9.7Z" transform="translate(229.134 4.97577)" fill="#3333FF"/>
<path d="M11.2 0.915314C12.2 1.61531 12.8 2.51531 12.8 3.81531V10.6153H11.3V4.21531C11.3 3.11531 10.9 2.21531 10.1 1.71531C9.30001 1.21531 8.2 0.915314 6.9 0.915314C5.9 0.915314 5 1.11531 4.2 1.41531C3.4 1.71531 2.7 2.21531 2.2 2.71531C1.7 3.31531 1.50001 4.01531 1.50001 4.81531V10.7153H6.10352e-06V0.115315H1.29999L1.4 2.31531C1.9 1.51531 2.6 1.01531 3.6 0.615315C4.6 0.215315 5.70001 0.0153142 7.00001 0.0153142C8.80001 -0.0846858 10.1 0.315314 11.2 0.915314Z" transform="translate(251.034 5.06049)" fill="#3333FF"/>
<path d="M16.3 2.1H10.8V9.2H5.5V2.1H0V-1.52588e-06H16.3V2.1Z" transform="translate(0.433868 36.4758)" fill="#FC32BF"/>
<path d="M14.9 1.3C16.4 2.1 17.2 3.3 17.2 4.8C17.2 6.3 16.4 7.5 14.9 8.3C13.4 9.1 11.3 9.6 8.6 9.6C6.8 9.6 5.3 9.4 4 9C2.7 8.6 1.7 8.1 1 7.4C0.3 6.7 3.8147e-07 5.8 3.8147e-07 4.8C3.8147e-07 3.8 0.3 3 1 2.2C1.7 1.4 2.7 0.9 4 0.6C5.3 0.2 6.8 1.52588e-06 8.6 1.52588e-06C11.3 0.100002 13.4 0.500001 14.9 1.3ZM6.2 2.9C5.7 3.3 5.4 4 5.4 4.8C5.4 5.7 5.7 6.3 6.2 6.7C6.7 7.1 7.5 7.3 8.6 7.3C9.7 7.3 10.4 7.1 11 6.7C11.5 6.3 11.8 5.6 11.8 4.8C11.8 3.9 11.5 3.3 11 2.9C10.5 2.5 9.7 2.3 8.6 2.3C7.5 2.2 6.8 2.4 6.2 2.9Z" transform="translate(24.5339 36.2758)" fill="#FC32BF"/>
<path d="M7 5.5L5.3 6.7V9.2H1.52588e-06V-1.52588e-06H5.3V3.8L10.6 -1.52588e-06H16.3L10.8 3.7L16.7 9.2H10.7L7 5.5Z" transform="translate(51.3339 36.4758)" fill="#FC32BF"/>
<path d="M11.3 6V9.3H6V6L3.05176e-06 -1.52588e-06H5.4L7.5 2.3L8.7 3.9L9.9 2.3L12 -1.52588e-06H17.3L11.3 6Z" transform="translate(74.7339 36.4758)" fill="#FC32BF"/>
<path d="M14.9 1.3C16.4 2.1 17.2 3.3 17.2 4.8C17.2 6.3 16.4 7.5 14.9 8.3C13.4 9.1 11.3 9.6 8.6 9.6C6.8 9.6 5.3 9.4 4 9C2.7 8.6 1.7 8.1 1 7.4C0.300003 6.7 3.05176e-06 5.8 3.05176e-06 4.8C3.05176e-06 3.8 0.300003 3 1 2.2C1.7 1.4 2.7 0.9 4 0.6C5.3 0.2 6.8 1.52588e-06 8.6 1.52588e-06C11.3 0.100002 13.4 0.500001 14.9 1.3ZM6.3 2.9C5.8 3.3 5.5 4 5.5 4.8C5.5 5.7 5.8 6.3 6.3 6.7C6.8 7.1 7.6 7.3 8.7 7.3C9.8 7.3 10.5 7.1 11.1 6.7C11.6 6.3 11.9 5.6 11.9 4.8C11.9 3.9 11.6 3.3 11.1 2.9C10.6 2.5 9.8 2.3 8.7 2.3C7.6 2.2 6.8 2.4 6.3 2.9Z" transform="translate(98.7339 36.2758)" fill="#FC32BF"/>
<path d="M5.29999 0.700001C5.79999 1.1 6.1 1.5 6.1 2.1C6.1 2.8 5.8 3.3 5.1 3.9C4.4 4.4 3.5 4.8 2.2 5.1L-1.52588e-06 4.3C0.899998 4.1 1.6 3.9 2.2 3.6C2.8 3.4 3.2 3.1 3.4 2.7L3.3 2.6C3.1 2.7 2.8 2.8 2.5 2.8C1.9 2.8 1.3 2.7 0.800002 2.5C0.300002 2.3 0.0999969 2 0.0999969 1.5C0.0999969 1 0.4 0.700002 0.9 0.400002C1.4 0.200002 2.1 0 3 0C4 0.2 4.69999 0.400001 5.29999 0.700001Z" transform="translate(124.034 42.8758)" fill="#FC32BF"/>
<path d="M14.7 5.5C14.7 6.7 14 7.7 12.7 8.3C11.3 9 9.39999 9.3 6.99999 9.3C4.69999 9.3 2.9 9 1.8 8.5C0.599997 7.9 -6.10352e-06 7.2 -6.10352e-06 6.2C-6.10352e-06 5.9 0.100006 5.6 0.200006 5.3L5.49999 4.8C5.39999 5.2 5.4 5.5 5.4 5.7C5.4 6.2 5.6 6.5 5.9 6.8C6.2 7 6.7 7.1 7.4 7.1C8.1 7.1 8.69999 7 8.99999 6.7C9.29999 6.4 9.49999 5.9 9.49999 5.3V-1.52588e-06H14.8V5.5H14.7Z" transform="translate(152.334 36.4758)" fill="#FC32BF"/>
<path d="M11.5 7.3H6.3L5.3 9.2H-3.05176e-06L5.8 -1.52588e-06H12.2L18 9.2H12.5L11.5 7.3ZM10.6 5.5L9.69999 3.7L9 2.2H8.90001L8.19999 3.7L7.19999 5.5H10.6Z" transform="translate(174.634 36.4758)" fill="#FC32BF"/>
<path d="M13.7 0.719162C14.9 1.21916 15.5 2.01916 15.5 3.11916C15.5 4.11916 14.9 4.81916 13.7 5.31916C12.5 5.81916 10.8 6.11916 8.5 6.11916H5.3V9.21916H-3.05176e-06V0.0191609H8.5C10.8 -0.0808391 12.5 0.219162 13.7 0.719162ZM9.5 3.81916C9.9 3.61916 10.1 3.41916 10.1 3.01916C10.1 2.61916 9.9 2.41916 9.5 2.21916C9.1 2.01916 8.5 1.91916 7.6 1.91916H5.3V4.01916H7.69999C8.49999 4.01916 9.1 4.01916 9.5 3.81916Z" transform="translate(201.134 36.5566)" fill="#FC32BF"/>
<path d="M11.5 7.3H6.3L5.3 9.2H0L5.8 -1.52588e-06H12.2L18 9.2H12.5L11.5 7.3ZM10.6 5.5L9.7 3.7L9 2.2H8.89999L8.2 3.7L7.2 5.5H10.6Z" transform="translate(222.434 36.4758)" fill="#FC32BF"/>
<path d="M16.1 9.3H10.3L5.60001 4.7L4.5 3.4V3.4L4.60001 5.2V9.2H0V0H5.8L10.5 4.6L11.6 5.9L11.5 4.1V0.0999985H16.2V9.3H16.1Z" transform="translate(248.934 36.3758)" fill="#FC32BF"/>
</svg>
