<svg width="40" height="40" viewBox="0 0 40 40" fill="none" xmlns="http://www.w3.org/2000/svg">
<path d="M32 0H8C3.6 0 0 3.6 0 8V32C0 36.4 3.6 40 8 40H32C36.4 40 40 36.4 40 32V8C40 3.6 36.4 0 32 0ZM32 25C32 27.2 29.3 29 26 29C22.7 29 20 27.2 20 25C20 22.8 22.7 21 26 21C26.5 21 27 21 27.4 21.1C27.7 21.2 28 20.9 28 20.6V13.6L16 18.4V33C16 35.2 13.3 37 10 37C6.7 37 4 35.2 4 33C4 30.8 6.7 29 10 29C10.5 29 11 29 11.4 29.1C11.7 29.2 12 28.9 12 28.6V13.4C12 12.6 12.5 11.8 13.3 11.5L29.3 5.1C30.6 4.6 32 5.5 32 7V25Z" fill="#FC32BF"/>
</svg>
