<svg width="400" height="400" viewBox="0 0 400 400" fill="none" xmlns="http://www.w3.org/2000/svg">
<path d="M400 0H0V400H400V0Z" fill="#834FAB"/>
<path d="M56.2243 2.49491L6.621 0.00340304C2.93061 -0.104923 0 2.38659 0 5.52805V7.91122L61.4342 9.8611V7.91122C61.6513 4.98641 59.2634 2.60324 56.2243 2.49491ZM7.81496 4.87808C7.81496 5.31139 7.38079 5.85301 6.83809 5.85301H4.88435C4.45018 5.85301 3.90748 5.41971 3.90748 4.87808V3.14486C3.90748 2.71155 4.34164 2.16993 4.88435 2.16993H6.83809C7.27225 2.16993 7.81496 2.60323 7.81496 3.14486V4.87808ZM14.3274 4.98642C14.3274 5.41972 13.8933 5.96135 13.3506 5.7447H11.6139C11.1797 5.7447 10.637 5.31138 10.637 4.76975V3.03654C10.637 2.60324 11.0712 2.06161 11.6139 2.27826H13.5676C14.0018 2.27826 14.5445 2.71156 14.5445 3.25319V4.98642H14.3274ZM20.7313 5.09473C20.7313 5.52804 20.2972 6.06967 19.7545 5.85301H17.8007C17.3666 5.85301 16.8239 5.41971 16.8239 4.87808V3.14486C16.8239 2.71155 17.258 2.16992 17.8007 2.38658H19.7545C20.1886 2.38658 20.7313 2.81989 20.7313 3.36152V5.09473ZM0 46.4754C0 49.7251 3.03915 52 6.621 52L56.2243 49.5085C59.1549 49.4002 61.5428 47.017 61.5428 44.0922V12.0276L0 10.0777V46.4754ZM27.5694 23.2935C26.3755 22.102 26.3755 20.3687 27.5694 19.1771C28.7634 17.9856 30.6086 18.2022 31.8025 19.1771L40.1602 26.9766C41.3541 27.9516 41.3541 29.9014 40.1602 30.6597L31.8025 38.5676C30.6086 39.7591 28.7634 39.7591 27.5694 38.5676C26.3755 37.5926 26.3755 35.6427 27.5694 34.4511L33.8648 28.6015C33.8648 29.1432 27.5694 23.2935 27.5694 23.2935Z" transform="translate(26 177)" fill="#CCADD2"/>
<path d="M23.5534 12.2409C23.1193 12.1325 22.5765 12.1325 21.8168 11.8076C21.057 11.6992 20.6228 11.6992 19.863 11.6992C18.6691 11.6992 17.8007 11.8076 16.8239 12.1325C15.847 12.2409 15.0872 12.8908 14.436 13.4325C13.6762 13.8658 13.1335 14.624 12.4822 15.3823C12.0481 16.1406 11.2883 16.6822 10.7456 17.4405V12.5658H1.65621e-06C1.65621e-06 12.9991 1.65621e-06 13.5408 1.65621e-06 14.2991C1.65621e-06 15.0573 0 15.599 0.108541 16.6822C0.108541 17.4405 0.108541 18.4155 0.108541 19.1737C0.108541 20.0404 0.108541 20.907 0.108541 21.5569V46.472H11.831V27.7315C11.831 26.5399 11.831 25.7817 11.9395 25.24C12.0481 24.4817 12.3737 24.0484 13.1335 23.5068C13.242 23.3985 13.8933 22.7485 14.436 22.5319C15.1957 22.4235 15.7385 22.0986 16.9324 22.0986C17.6922 22.0986 18.2349 22.0986 18.9947 22.2069C19.7545 22.3152 20.1886 22.6402 20.9484 23.1818L23.5534 12.2409ZM59.2634 46.0387V12.6742H47.541V32.1729C47.541 33.1478 47.541 33.9061 47.4324 34.2311C47.3239 34.6644 46.9983 35.4227 46.2385 36.181C46.13 36.6143 45.4787 36.9393 45.0445 37.1559C44.6104 37.2642 43.8506 37.5892 43.0908 37.5892C40.5944 37.5892 39.4004 35.856 39.4004 32.9312V12.6742H27.678V35.856C27.678 37.5892 27.7865 38.8891 28.4378 40.2974C28.8719 41.5973 29.4146 42.7889 30.3915 43.7638C31.3684 44.7387 32.3452 45.7137 33.6477 46.147C34.9502 46.5803 36.6869 47.1219 38.5321 47.1219C40.92 47.1219 42.7652 46.6886 44.3933 45.822C46.13 44.8471 47.4324 43.4388 48.6264 41.7056V46.147H59.2634V46.0387ZM99.3151 46.0387V22.9652C99.3151 21.2319 99.2065 19.932 98.5553 18.5238C98.1211 17.2239 97.5784 16.0323 96.6015 15.0573C95.6247 14.0824 94.5393 13.1075 93.1282 12.6742C91.8257 12.2409 90.0891 11.6992 87.8097 11.6992C85.4218 11.6992 83.3595 12.1325 81.5143 13.4325C79.7777 14.4074 78.2581 15.8156 77.0641 17.6572V12.9992H66.21V46.3636H77.9325V26.8649C77.9325 25.89 77.9325 25.1317 78.041 24.8067C78.1496 24.3734 78.4752 23.6151 79.235 23.0735C79.7777 22.6402 80.4289 22.5319 80.7546 22.0986C81.5143 21.9902 81.9485 21.6653 82.7083 21.6653C84.0108 21.6653 85.2047 22.0985 85.7474 22.8568C86.5072 23.6151 86.7243 24.8067 86.7243 26.3233V46.3636L99.3151 46.0387ZM138.933 46.0387V22.9652C138.933 21.2319 138.824 19.932 138.173 18.5238C137.739 17.2239 137.196 16.0323 136.219 15.0573C135.242 14.0824 134.157 13.1075 132.746 12.6742C131.443 12.2409 129.707 11.6992 127.427 11.6992C125.039 11.6992 122.977 12.1325 121.132 13.4325C119.395 14.4074 117.876 15.8156 116.682 17.6572V12.9992H105.828V46.3636H117.55V26.8649C117.55 25.89 117.55 25.1317 117.659 24.8067C117.767 24.3734 118.093 23.6151 118.852 23.0735C119.287 22.6402 119.829 22.3152 120.155 22.0986C120.915 21.9902 121.349 21.6653 122.109 21.6653C123.411 21.6653 124.605 22.0985 125.148 22.8568C125.908 23.6151 126.125 24.8067 126.125 26.3233V46.3636L138.933 46.0387ZM163.897 34.9894C163.897 36.2893 163.463 37.3726 162.703 38.2392C161.726 39.2141 160.641 39.5391 159.013 39.5391C158.036 39.5391 157.059 39.4307 156.625 38.5641C155.865 37.8059 155.648 37.2642 155.648 36.181C155.648 35.0977 155.756 34.8811 156.408 34.1228C156.842 33.6895 157.385 33.1478 158.144 32.9312C158.904 32.8228 159.447 32.4979 160.207 32.4979C160.966 32.4979 161.509 32.3895 162.269 32.3895C162.703 32.3895 163.029 32.3895 163.463 32.3895C163.897 32.3895 164.223 32.3895 164.44 32.3895L163.897 34.9894ZM177.79 38.8891C177.682 38.8891 177.356 38.9975 177.03 38.9975C176.922 38.9975 176.596 38.9975 176.271 38.9975C175.837 38.9975 175.294 38.8891 175.077 38.2392C174.968 37.8059 174.968 37.2642 174.968 36.9392V23.5068C174.968 21.0153 174.534 19.0654 173.666 17.3322C172.797 15.599 171.603 14.4074 170.192 13.6491C168.673 12.7825 167.153 12.3492 165.308 11.6992C163.354 11.5909 161.835 11.2659 159.99 11.2659C157.493 11.2659 154.671 11.3742 152.609 12.0242C150.221 12.4575 148.159 13.2158 145.879 14.0824L148.376 22.4235C149.57 21.6652 150.764 21.1236 152.5 20.4737C153.803 20.0404 155.756 19.7154 157.385 19.7154C158.578 19.7154 159.772 19.7154 160.424 19.8237C161.184 19.932 161.726 20.257 162.377 20.7986C162.812 21.2319 163.137 21.5569 163.354 21.9902C163.463 22.4235 163.463 22.9652 163.463 23.2901V24.4817C163.463 24.915 163.354 25.4567 162.703 25.4567C162.269 25.565 161.726 25.565 160.966 25.565C159.013 25.565 156.842 25.6733 155.105 25.9983C153.043 26.1066 150.981 26.7566 149.57 27.7315C147.941 28.2731 146.639 29.4647 145.445 30.9813C144.251 32.4979 143.708 34.2311 143.708 36.5059C143.708 37.8059 143.817 39.4308 144.468 40.6223C144.902 41.8139 145.662 43.0055 146.53 43.8721C147.399 44.7387 148.484 45.6053 149.787 45.9303C150.981 46.3636 152.283 46.6886 154.02 46.6886C156.408 46.6886 158.47 46.2553 160.207 45.497C161.943 44.7387 163.246 43.5472 164.657 42.0306C165.091 43.2222 165.851 44.4138 167.045 45.0637C168.239 45.822 169.541 46.2553 171.495 46.2553C172.689 46.2553 173.883 46.2553 174.968 46.147C176.054 46.0386 177.03 45.7137 177.899 45.7137V38.8891H177.79ZM203.949 33.2562C203.84 34.2311 203.514 35.206 202.972 36.181C202.538 37.1559 201.995 37.9142 201.235 38.2392C200.475 38.6725 199.498 39.2141 198.305 39.2141C197.002 39.2141 195.808 39.1058 195.048 38.2392C194.289 37.4809 194.071 36.9393 194.071 35.7477V26.5399C194.071 25.7816 194.071 25.24 194.18 24.5901C194.288 24.1568 194.614 23.6151 195.374 22.8568C195.808 22.4235 196.351 22.0986 196.676 21.8819C197.111 21.7736 197.87 21.4486 198.63 21.4486C199.824 21.4486 200.692 21.5569 201.561 22.4235C202.321 23.1818 202.755 23.7234 203.297 24.8067C203.732 25.7816 204.057 26.7566 204.057 27.7315C204.166 28.7064 204.166 29.6814 204.166 30.6563C204.383 30.9813 204.166 32.2812 203.949 33.2562ZM215.78 22.5319C215.345 20.4737 214.586 18.4155 213.392 17.0072C212.198 15.274 211.004 14.0824 209.267 12.8908C207.531 11.9159 205.794 11.5909 203.406 11.5909C201.344 11.5909 199.281 12.0242 197.979 12.8908C196.676 13.8658 195.048 14.949 194.289 16.3573V0.10832H182.566V46.147H193.963V44.8471C194.723 45.6053 195.917 46.147 197.219 46.7969C198.522 47.2302 200.15 47.5552 201.344 47.5552C204.274 47.5552 206.662 47.1219 208.399 45.822C210.353 44.6304 211.872 43.3305 213.066 41.3806C214.26 39.6474 215.128 37.6975 215.563 35.531C215.997 33.4728 216.322 31.3063 216.322 29.2481C216.431 26.6483 216.105 24.6984 215.78 22.5319ZM233.58 46.0387V3.30585e-06H221.858V46.0387H233.58ZM250.187 24.8067C250.187 24.0484 250.187 23.6151 250.296 22.8568C250.404 22.0985 250.73 21.5569 251.273 20.907C251.707 20.1487 252.249 19.7154 253.009 19.607C253.769 19.1737 254.312 19.1737 255.506 19.1737C257.242 19.1737 258.545 19.932 259.63 21.1236C260.607 22.3152 260.824 23.6151 260.824 25.3483H250.296V24.915H250.187V24.8067ZM270.593 21.3403C270.159 19.3904 269.29 17.8738 267.662 16.4656C266.468 15.1657 264.732 13.9741 262.778 12.9992C260.824 12.0242 258.328 11.6992 255.723 11.6992C252.792 11.6992 250.296 12.1325 248.233 12.9992C246.171 13.9741 244.109 15.3823 242.806 17.1156C241.504 18.8488 240.31 20.582 239.55 22.6402C238.79 24.6984 238.356 27.0816 238.356 29.6814C238.356 32.7145 238.79 35.206 239.659 37.4809C240.527 39.6474 242.047 41.5973 243.783 42.8972C245.52 44.1971 247.474 45.3887 249.97 46.147C252.467 46.9053 254.854 47.3386 257.785 47.3386C260.173 47.3386 262.452 47.2302 264.84 46.5803C266.902 46.147 268.965 45.6054 270.376 45.2804L268.314 36.9392C267.12 37.3725 265.817 37.9142 264.189 38.2392C262.886 38.6725 261.15 38.9975 259.522 38.9975C256.483 38.9975 254.095 38.2392 252.467 37.0476C250.73 35.856 250.079 34.0144 250.079 31.7396V31.3063H270.919C270.919 31.198 270.919 30.548 270.919 30.3314V29.1398C270.919 28.7065 270.919 28.1648 270.919 27.9482V26.9732C271.57 25.0234 271.136 23.0735 270.593 21.3403Z" transform="translate(106.755 178.953)" fill="white"/>
</svg>
