<svg width="400" height="400" viewBox="0 0 400 400" fill="none" xmlns="http://www.w3.org/2000/svg">
<path d="M400 0H0V400H400V0Z" fill="#333399"/>
<path d="M198.267 45.467L174.567 14.867H168.667V55.967H174.667V24.467L199.067 55.967H204.267V14.867H198.267V45.467ZM138.567 37.867H159.767V32.567H138.467V20.167H162.467V14.867H132.367V55.967H162.767V50.667H138.467L138.567 37.867ZM113.567 32.667C105.267 30.667 102.967 29.0669 102.967 25.2669C102.967 21.8669 105.967 19.467 110.567 19.467C114.367 19.467 118.067 20.767 121.967 23.567L125.167 18.967C120.867 15.667 116.267 14.167 110.667 14.167C102.567 14.167 96.867 18.967 96.867 25.867C96.867 33.267 101.667 35.767 110.467 37.967C118.167 39.767 120.567 41.467 120.567 45.167C120.567 48.867 117.367 51.2669 112.367 51.2669C107.567 51.2669 103.367 49.667 99.0669 46.067L95.467 50.367C100.167 54.367 106.067 56.567 112.267 56.567C121.067 56.567 126.767 51.867 126.767 44.467C126.667 38.267 122.967 34.867 113.567 32.667ZM312.967 14.867L300.567 34.2669L288.267 14.867H281.067L297.367 39.667V55.967H303.567V39.567L319.867 14.967H312.967V14.867ZM209.067 20.367H222.567V55.867H228.767V20.367H242.267V14.7669H209.167L209.067 20.367ZM270.667 39.867C276.867 38.167 280.267 33.767 280.267 27.567C280.267 19.667 274.467 14.7669 265.167 14.7669H246.967V55.867H253.067V41.067H263.467L273.867 55.867H280.967L269.667 40.067L270.667 39.867ZM253.067 35.867V20.2669H264.567C270.567 20.2669 274.067 23.067 274.067 28.067C274.067 32.867 270.367 35.867 264.667 35.867H253.067ZM45.867 3.66696C43.867 0.166957 39.367 -1.03304 35.867 0.96696C34.767 1.56696 33.867 2.56696 33.167 3.66696L22.667 21.7669L25.367 23.2669C40.267 31.8669 49.867 47.3669 50.867 64.5669H43.567C42.567 49.9669 34.367 36.867 21.667 29.567L18.967 28.067L9.26696 44.967L11.967 46.467C18.467 50.267 22.967 56.967 23.967 64.467H7.16695C6.46695 64.467 5.96695 63.9669 5.96695 63.2669C5.96695 63.0669 6.06695 62.867 6.16695 62.667L10.867 54.567C9.26695 53.267 7.46695 52.167 5.56695 51.567L0.966952 59.667C-1.03305 63.167 0.166953 67.667 3.66695 69.667C4.76695 70.267 6.06695 70.667 7.36695 70.667H30.467V67.5669C30.467 57.7669 25.767 48.567 17.767 42.867L21.467 36.467C31.667 43.567 37.767 55.1669 37.767 67.5669V70.667H57.267V67.5669C57.267 48.1669 47.467 30.167 31.267 19.567L38.667 6.66696C38.967 6.06696 39.767 5.86695 40.367 6.26695C40.567 6.36695 40.667 6.56696 40.767 6.66696L73.167 62.667C73.467 63.267 73.267 63.9669 72.767 64.367C72.567 64.4669 72.367 64.5669 72.167 64.5669H64.5669C64.6669 66.5669 64.6669 68.667 64.5669 70.667H72.167C76.267 70.667 79.4669 67.367 79.4669 63.367C79.4669 62.067 79.1669 60.867 78.4669 59.667L45.867 3.66696Z" transform="translate(40.1331 154.633)" fill="white"/>
</svg>
