<svg width="400" height="400" viewBox="0 0 400 400" fill="none" xmlns="http://www.w3.org/2000/svg">
<path d="M400 0H0V400H400V0Z" fill="#3333FF"/>
<path d="M238.004 0.200003C225.904 0.200003 215.004 5.89999 208.104 14.8C205.104 10.9 201.404 7.7 197.004 5.1C191.204 1.8 184.704 6.10352e-06 178.004 6.10352e-06C166.204 6.10352e-06 155.104 5.5 148.004 14.7C145.004 10.9 141.304 7.6 137.004 5.1C131.204 1.8 124.704 6.10352e-06 118.004 6.10352e-06C106.204 6.10352e-06 95.1037 5.5 88.0037 14.7C85.0037 10.9 81.3037 7.6 77.0037 5.1C71.2037 1.8 64.7037 6.10352e-06 58.0037 6.10352e-06C44.5037 6.10352e-06 31.8037 7.30001 25.1037 19L5.10373 53.6C0.00372601 62.4 -1.29627 72.6 1.30373 82.4C3.90373 92.2 10.2037 100.4 19.0037 105.5C24.8037 108.8 31.3037 110.6 38.0037 110.6C49.8037 110.6 60.9037 105.1 68.0037 95.9C71.0037 99.7 74.7037 103 79.0037 105.5C84.8037 108.8 91.3037 110.6 98.0037 110.6C109.804 110.6 120.904 105.1 128.004 95.9C131.004 99.7 134.704 103 139.004 105.5C144.804 108.8 151.304 110.6 158.004 110.6C171.504 110.6 184.204 103.3 190.904 91.6L208.204 61.6C215.204 70.4 225.904 76.1 238.004 76.1C259.004 76.1 276.004 59.1 276.004 38.1C276.004 17.1 259.004 0.200003 238.004 0.200003Z" transform="translate(61.9962 144.6)" fill="white"/>
<path d="M15.0158 90.6158C0.715751 82.3158 -4.28425 64.0158 4.01575 49.6158L24.0158 15.0157C32.3158 0.715747 50.6157 -4.28425 65.0157 4.01575C79.3158 12.3157 84.3158 30.6157 76.0157 45.0157L56.0158 79.6158C47.7158 94.0158 29.4158 98.9158 15.0158 90.6158Z" transform="translate(69.9843 152.684)" fill="#3333FF"/>
<path d="M15.0158 90.6158C0.715751 82.3158 -4.28425 64.0158 4.01575 49.6158L24.0158 15.0157C32.3158 0.715747 50.6157 -4.28425 65.0157 4.01575C79.3158 12.3157 84.3158 30.6157 76.0157 45.0157L56.0158 79.6158C47.7158 94.0158 29.4158 98.9158 15.0158 90.6158Z" transform="translate(129.984 152.684)" fill="#FC1D68"/>
<path d="M15.0158 90.6158C0.715751 82.3158 -4.28425 64.0158 4.01575 49.6158L24.0158 15.0157C32.3158 0.715747 50.6157 -4.28425 65.0157 4.01575C79.3158 12.3157 84.3158 30.6157 76.0157 45.0157L56.0158 79.6158C47.7158 94.0158 29.4158 98.9158 15.0158 90.6158Z" transform="translate(189.984 152.684)" fill="#27EDAC"/>
<path d="M30 60C46.5685 60 60 46.5685 60 30C60 13.4315 46.5685 3.05176e-06 30 3.05176e-06C13.4315 3.05176e-06 0 13.4315 0 30C0 46.5685 13.4315 60 30 60Z" transform="translate(270 152.8)" fill="black"/>
</svg>
