<svg width="400" height="400" viewBox="0 0 400 400" fill="none" xmlns="http://www.w3.org/2000/svg">
<path d="M400 0H0V400H400V0Z" fill="#FF3366"/>
<path d="M17 16.3C16.4 16.6 15.5 16.8 14.4 17C13.3 17.2 12.2 17.3 11.2 17.3C8.5 17.3 6.5 17 5.2 16.3C3.9 15.6 3.2 14.5 3.2 13V7.9H0V4.2H3.2V1.4L11.3 3.05176e-06V4.2H16.8V7.7H11.3V12C11.3 12.6 11.5 13 11.9 13.3C12.3 13.6 12.9 13.7 13.8 13.7C14.8 13.7 15.7 13.6 16.5 13.3L17 16.3Z" transform="translate(93.5 244.8)" fill="white"/>
<path d="M18.9 1.7C20.8 2.9 21.8 4.49999 21.8 6.59999C21.8 8.69999 20.8 10.3 18.9 11.5C17 12.7 14.3 13.2 10.9 13.2C7.5 13.2 4.8 12.6 2.9 11.5C1 10.3 1.52588e-06 8.69999 1.52588e-06 6.59999C1.52588e-06 4.49999 1 2.9 2.9 1.7C4.8 0.5 7.5 3.05176e-06 10.9 3.05176e-06C14.3 3.05176e-06 17 0.5 18.9 1.7ZM8.8 4.2C8.4 4.7 8.2 5.49999 8.2 6.59999C8.2 7.79999 8.4 8.59999 8.8 8.99999C9.2 9.39999 9.9 9.7 10.9 9.7C11.9 9.7 12.6 9.49999 13 8.99999C13.4 8.59999 13.6 7.69999 13.6 6.59999C13.6 5.39999 13.4 4.6 13 4.2C12.6 3.8 11.9 3.5 10.9 3.5C9.9 3.5 9.2 3.7 8.8 4.2Z" transform="translate(117.9 248.8)" fill="white"/>
<path d="M20.3 14.4C21.6 15.1 22.3 16.1 22.3 17.5C22.3 19 21.3 20.2 19.2 21C17.1 21.8 14.3 22.2 10.6 22.2C3.5 22.2 6.10352e-06 21.2 6.10352e-06 19.3C6.10352e-06 18.7 0.3 18.3 0.9 17.8C1.5 17.4 2.49999 17.1 3.79999 16.9C1.59999 16.3 0.500006 15.4 0.500006 14.1C0.500006 13.5 0.8 13 1.4 12.5C2 12 2.79999 11.7 3.79999 11.4C1.59999 10.7 0.500006 9.5 0.500006 7.9C0.500006 6.5 1.4 5.4 3.1 4.7C4.9 4 7.39999 3.6 10.8 3.6C12.2 3.6 13.5 3.69999 14.8 3.79999C15 2.69999 15.6 1.8 16.5 1.1C17.4 0.399997 18.8 6.10352e-06 20.5 6.10352e-06C20.8 6.10352e-06 21.1 6.10352e-06 21.3 6.10352e-06L22.1 3.29999C21.6 3.19999 21.2 3.2 20.8 3.2C20 3.2 19.3 3.30001 18.7 3.50001C18.1 3.70001 17.7 3.99999 17.4 4.29999C19.9 4.99999 21.1 6.2 21.1 7.9C21.1 9.3 20.2 10.4 18.5 11.1C16.7 11.8 14.2 12.2 10.8 12.2C9.19999 12.2 7.8 12.1 6.6 12C6 12.1 5.79999 12.3 5.79999 12.6C5.79999 13.1 6.4 13.3 7.7 13.3H14.6C17.1 13.4 19 13.8 20.3 14.4ZM16.1 18C16.1 17.6 15.5 17.4 14.2 17.4H8.7C7.7 17.4 7 17.5 6.6 17.6C6.2 17.7 6.00001 17.9 6.00001 18.1C6.00001 18.4 6.4 18.6 7.2 18.7C8 18.8 9.3 18.9 11.1 18.9C14.4 18.9 16.1 18.6 16.1 18ZM9.2 6.9C8.8 7.2 8.6 7.60001 8.6 8.00001C8.6 8.50001 8.8 8.9 9.2 9.1C9.6 9.4 10.2 9.50001 10.9 9.50001C11.6 9.50001 12.1 9.4 12.6 9.1C13 8.8 13.2 8.40001 13.2 8.00001C13.2 7.50001 13 7.1 12.6 6.9C12.2 6.6 11.6 6.50001 10.9 6.50001C10.1 6.40001 9.6 6.6 9.2 6.9Z" transform="translate(147.1 245.1)" fill="white"/>
<path d="M20.9 7.80001H7.7C7.9 8.50001 8.2 9.00001 8.8 9.30001C9.4 9.60001 10.1 9.7 11.2 9.7C12.8 9.7 13.8 9.29999 14.2 8.49999L20.7 9.7C20.2 10.9 19.1 11.7 17.4 12.3C15.7 12.9 13.6 13.2 11.2 13.2C7.6 13.2 4.79999 12.6 2.89999 11.5C0.999994 10.4 0 8.69999 0 6.59999C0 4.49999 0.900003 2.9 2.8 1.7C4.7 0.5 7.3 3.05176e-06 10.7 3.05176e-06C14 3.05176e-06 16.6 0.6 18.4 1.7C20.2 2.8 21.1 4.40001 21.1 6.30001C21.1 6.90001 21 7.40001 20.9 7.80001ZM8.7 3.9C8.2 4.2 7.9 4.7 7.7 5.5H13.5C13.4 4.8 13.1 4.3 12.6 3.9C12.2 3.6 11.5 3.4 10.7 3.4C9.9 3.4 9.2 3.6 8.7 3.9Z" transform="translate(176.5 248.8)" fill="white"/>
<path d="M17 16.3C16.4 16.6 15.5 16.8 14.4 17C13.3 17.2 12.2 17.3 11.2 17.3C8.50001 17.3 6.50001 17 5.20001 16.3C3.90001 15.6 3.20001 14.5 3.20001 13V7.9H-6.10352e-06V4.2H3.20001V1.4L11.3 3.05176e-06V4.2H16.8V7.7H11.3V12C11.3 12.6 11.5 13 11.9 13.3C12.3 13.6 12.9 13.7 13.8 13.7C14.8 13.7 15.7 13.6 16.5 13.3L17 16.3Z" transform="translate(204.9 244.8)" fill="white"/>
<path d="M19.2 6.19999C20.4 6.99999 20.9 8.00001 20.9 9.40001V18H12.8V10.8C12.8 10.1 12.6 9.6 12.3 9.3C12 9 11.4 8.90001 10.8 8.90001C10 8.90001 9.3 9.1 8.8 9.5C8.3 9.9 8.1 10.5 8.1 11.3V18H-3.05176e-06V-3.05176e-06H8.1V7.69999C8.7 6.79999 9.5 6.09999 10.6 5.69999C11.7 5.19999 12.9 5 14.4 5C16.5 5.1 18.1 5.39999 19.2 6.19999Z" transform="translate(230.7 243.7)" fill="white"/>
<path d="M20.9 7.80001H7.69999C7.89999 8.50001 8.2 9.00001 8.8 9.30001C9.4 9.60001 10.1 9.7 11.2 9.7C12.8 9.7 13.8 9.29999 14.2 8.49999L20.7 9.7C20.2 10.9 19.1 11.7 17.4 12.3C15.7 12.9 13.6 13.2 11.2 13.2C7.59999 13.2 4.80001 12.6 2.90001 11.5C1.00001 10.4 1.2207e-05 8.69999 1.2207e-05 6.59999C1.2207e-05 4.49999 0.9 2.9 2.8 1.7C4.7 0.5 7.29999 3.05176e-06 10.7 3.05176e-06C14 3.05176e-06 16.6 0.6 18.4 1.7C20.2 2.8 21.1 4.40001 21.1 6.30001C21.1 6.90001 21.1 7.40001 20.9 7.80001ZM8.8 3.9C8.3 4.2 8 4.7 7.8 5.5H13.6C13.5 4.8 13.2 4.3 12.7 3.9C12.3 3.6 11.6 3.4 10.8 3.4C9.9 3.4 9.3 3.6 8.8 3.9Z" transform="translate(260.7 248.8)" fill="white"/>
<path d="M15.6 0.300006L14.8 4.59999C14.6 4.49999 14.2 4.40001 13.8 4.30001C13.3 4.20001 12.9 4.2 12.3 4.2C11 4.2 10 4.40001 9.30001 4.80001C8.50001 5.20001 8.09999 5.9 8.09999 6.7V13H-1.2207e-05V0.2H7.2L7.40001 3.2C7.90001 2.2 8.59999 1.40001 9.59999 0.800006C10.6 0.200006 11.8 3.05176e-06 13.4 3.05176e-06C14.5 3.05176e-06 15.2 0.100006 15.6 0.300006Z" transform="translate(290.8 248.8)" fill="white"/>
<path d="M52.2 4.89999C59.6 4.89999 65.5 10.9 65.5 18.2V52.1C65.5 59.5 59.5 65.4 52.2 65.4H18.2C10.8 65.4 4.9 59.4 4.9 52.1V18.2C4.9 10.8 10.9 4.89999 18.2 4.89999H52.2ZM52.2 0H18.2C8.2 0 3.05176e-06 8.2 3.05176e-06 18.2V52.1C3.05176e-06 62.1 8.2 70.3 18.2 70.3H52.2C62.2 70.3 70.4 62.1 70.4 52.1V18.2C70.4 8.2 62.2 0 52.2 0Z" transform="translate(164.8 149)" fill="white"/>
<path d="M4.5 15.1C7 15.1 9 13.1 9 10.6V4.5C9 2 7 3.05176e-06 4.5 3.05176e-06C2 3.05176e-06 0 2 0 4.5V10.6C0 13 2 15.1 4.5 15.1Z" transform="translate(195.5 138.8)" fill="white"/>
<path d="M4.5 9C6.98528 9 9 6.98528 9 4.5C9 2.01472 6.98528 -3.05176e-06 4.5 -3.05176e-06C2.01472 -3.05176e-06 0 2.01472 0 4.5C0 6.98528 2.01472 9 4.5 9Z" transform="translate(195.5 179.7)" fill="white"/>
<path opacity="0.5" d="M4.5 9C6.98528 9 9 6.98528 9 4.5C9 2.01472 6.98528 0 4.5 0C2.01472 0 3.05176e-06 2.01472 3.05176e-06 4.5C3.05176e-06 6.98528 2.01472 9 4.5 9Z" transform="translate(177.3 161.5)" fill="white"/>
<path opacity="0.5" d="M4.5 8.99999C6.98528 8.99999 9 6.98528 9 4.49999C9 2.01471 6.98528 -6.10352e-06 4.5 -6.10352e-06C2.01472 -6.10352e-06 -3.05176e-06 2.01471 -3.05176e-06 4.49999C-3.05176e-06 6.98528 2.01472 8.99999 4.5 8.99999Z" transform="translate(213.7 197.9)" fill="white"/>
<path d="M4.5 27.2C7 27.2 9 25.2 9 22.7V4.5C9 2 7 3.05176e-06 4.5 3.05176e-06C2 3.05176e-06 0 2 0 4.5V22.7C0 25.2 2 27.2 4.5 27.2Z" transform="translate(195.5 161.8)" fill="white"/>
<path d="M0 4.50343C0 7.00343 2 9.00343 4.5 9.00343H22.7C25.2 9.00343 27.2 7.00343 27.2 4.50343C27.2 2.00343 25.2 0.00343052 22.7 0.00343052H4.5C2 -0.0965695 0 2.00343 0 4.50343Z" transform="translate(195.5 179.997)" fill="white"/>
<path d="M54.5 0H-1.2207e-05V27.3H54.5V0Z" transform="translate(327.3 18.2)" fill="white"/>
<path d="M2.42969 13.8297L2.22968 13.7297C0.12968 12.5297 -0.670326 9.72968 0.629674 7.62968L3.72968 2.22968C4.92968 0.12968 7.72969 -0.670321 9.82969 0.629679L10.0297 0.72968C12.1297 1.92968 12.9297 4.72968 11.6297 6.82968L8.52967 12.2297C7.32967 14.3297 4.52969 15.0297 2.42969 13.8297Z" transform="translate(336.27 24.1703)" fill="#352AFB"/>
<path d="M2.42967 13.8297L2.22969 13.7297C0.129686 12.5297 -0.67032 9.72968 0.62968 7.62968L3.72969 2.22968C4.92969 0.12968 7.72969 -0.670321 9.82969 0.629679L10.0297 0.72968C12.1297 1.92968 12.9297 4.72968 11.6297 6.82968L8.52967 12.2297C7.32967 14.3297 4.52967 15.0297 2.42967 13.8297Z" transform="translate(345.37 24.1703)" fill="#FC1D68"/>
<path d="M2.42967 13.8297L2.22969 13.7297C0.129692 12.5297 -0.670314 9.72968 0.629686 7.62968L3.72969 2.22968C4.92969 0.12968 7.72967 -0.670321 9.82967 0.629679L10.0297 0.72968C12.1297 1.92968 12.9297 4.72968 11.6297 6.82968L8.52968 12.2297C7.32968 14.3297 4.52967 15.0297 2.42967 13.8297Z" transform="translate(354.47 24.1703)" fill="#27EDAC"/>
<path d="M4.50001 9C6.98529 9 9.00001 6.98528 9.00001 4.5C9.00001 2.01472 6.98529 0 4.50001 0C2.01473 0 1.2207e-05 2.01472 1.2207e-05 4.5C1.2207e-05 6.98528 2.01473 9 4.50001 9Z" transform="translate(366.7 24.2999)" fill="black"/>
<path d="M2.1 1.10001V3.5H7.9V4.70001H2.1V8.29999H0V0H9.5V1.20001H2.1V1.10001Z" transform="translate(37 369)" fill="white"/>
<path d="M9.1 6.20001H3.5L2.2 8.39999H7.62939e-07L5 0H7.6L12.6 8.39999H10.3L9.1 6.20001ZM8.5 5.10001L7 2.39999L6.4 1.20001H6.3L5.7 2.39999L4.1 5.10001H8.5Z" transform="translate(49.2 369)" fill="white"/>
<path d="M10.8 8.39999H8.3L3.2 3.10001L1.9 1.5L2 2.89999V8.29999H-3.05176e-06V0H2.5L7.6 5.29999L8.9 6.89999L8.8 5.5V0H10.8V8.39999Z" transform="translate(67.2 369)" fill="white"/>
<path d="M11.2 1.10001H6.7V8.29999H4.5V1.10001H0V0H11.2V1.10001Z" transform="translate(83.5 369)" fill="white"/>
<path d="M9.1 6.20001H3.5L2.2 8.39999H3.05176e-06L5 0H7.6L12.6 8.39999H10.3L9.1 6.20001ZM8.5 5.10001L7 2.39999L6.4 1.20001H6.3L5.7 2.39999L4.1 5.10001H8.5Z" transform="translate(96.8 369)" fill="white"/>
<path d="M8.8 0.323988C9.7 0.623988 10.4 1.02401 11 1.62401L9.4 2.524C9 2.024 8.6 1.62399 8 1.42399C7.4 1.22399 6.7 1.12401 5.8 1.12401C4.9 1.12401 4.2 1.224 3.7 1.524C3.2 1.724 2.9 2.02399 2.9 2.42399C2.9 2.72399 3.1 3.02401 3.6 3.22401C4.1 3.42401 5 3.62401 6.2 3.72401C7.4 3.82401 8.3 4.02401 9 4.22401C9.7 4.42401 10.2 4.724 10.5 5.024C10.8 5.324 11 5.72401 11 6.22401C11 6.72401 10.8 7.124 10.3 7.524C9.9 7.924 9.2 8.22399 8.4 8.42399C7.6 8.62399 6.7 8.72401 5.7 8.72401C3 8.72401 1.1 8.124 1.52588e-06 7.024L1.5 6.024C1.9 6.524 2.5 6.92401 3.2 7.12401C3.9 7.32401 4.7 7.524 5.7 7.524C6.6 7.524 7.4 7.42401 7.9 7.22401C8.4 7.02401 8.7 6.72399 8.7 6.32399C8.7 6.02399 8.5 5.72401 8 5.62401C7.5 5.42401 6.7 5.22401 5.5 5.12401C4.3 5.02401 3.3 4.82401 2.6 4.62401C1.9 4.42401 1.4 4.12399 1 3.82399C0.600002 3.52399 0.500002 3.12401 0.500002 2.72401C0.500002 2.22401 0.7 1.82399 1.1 1.42399C1.5 1.02399 2.1 0.724 2.9 0.524C3.7 0.324 4.6 0.224012 5.6 0.224012C6.9 -0.175988 8 0.0239878 8.8 0.323988Z" transform="translate(113.4 368.976)" fill="white"/>
<path d="M11.1 1.10001H6.6V8.29999H4.5V1.10001H-3.05176e-06V0H11.2V1.10001H11.1Z" transform="translate(128.7 369)" fill="white"/>
<path d="M2.1 8.39999H-6.10352e-06V0H2.1V8.39999Z" transform="translate(145.4 369)" fill="white"/>
<path d="M9.7 7.99999C8.7 8.39999 7.59999 8.6 6.29999 8.6C4.99999 8.6 3.90001 8.4 3.00001 8.1C2.10001 7.8 1.29999 7.3 0.799994 6.6C0.299994 5.9 6.10352e-06 5.20001 6.10352e-06 4.30001C6.10352e-06 3.40001 0.299994 2.59999 0.799994 1.99999C1.29999 1.29999 2.00001 0.799994 3.00001 0.499994C3.90001 0.199994 4.99999 -6.10352e-06 6.29999 -6.10352e-06C7.59999 -6.10352e-06 8.7 0.199994 9.6 0.499994C10.5 0.799994 11.2 1.39999 11.6 1.99999L9.6 2.6C9.3 2.1 8.9 1.69999 8.4 1.49999C7.9 1.29999 7.2 1.1 6.4 1.1C5.2 1.1 4.2 1.39999 3.4 1.89999C2.7 2.49999 2.29999 3.20001 2.29999 4.20001C2.29999 5.20001 2.7 5.99999 3.4 6.49999C4.1 7.09999 5.09999 7.30001 6.29999 7.30001C7.19999 7.30001 7.90001 7.19999 8.50001 6.89999C9.10001 6.59999 9.49999 6.20001 9.79999 5.70001L11.8 6.1C11.3 7 10.6 7.59999 9.7 7.99999Z" transform="translate(153.6 368.9)" fill="white"/>
<path d="M10.8 8.39999H8.29999L3.2 3.10001L1.9 1.5L2.00001 2.89999V8.29999H6.10352e-06V0H2.50001L7.6 5.29999L8.9 6.89999L8.79999 5.5V0H10.8V8.39999Z" transform="translate(180.6 369)" fill="white"/>
<path d="M2.09999 8.39999H3.05176e-06V0H2.09999V8.39999Z" transform="translate(198.3 369)" fill="white"/>
<path d="M11.8 4.2V8.49999H10.2L10.1 7.40001C9.7 7.80001 9.20001 8.10001 8.50001 8.30001C7.80001 8.50001 7 8.59999 6.1 8.59999C4.9 8.59999 3.8 8.39999 2.9 8.09999C2 7.79999 1.29999 7.29999 0.799994 6.59999C0.299994 5.99999 6.10352e-06 5.20001 6.10352e-06 4.30001C6.10352e-06 3.40001 0.299994 2.69999 0.799994 1.99999C1.29999 1.39999 2.10001 0.899988 3.00001 0.499988C3.90001 0.0999878 4.99999 -1.2207e-05 6.29999 -1.2207e-05C7.69999 -1.2207e-05 8.8 0.199988 9.7 0.499988C10.6 0.799988 11.3 1.29999 11.8 1.99999L9.79999 2.59999C9.49999 2.09999 9.10001 1.79999 8.50001 1.59999C7.90001 1.39999 7.19999 1.2 6.29999 1.2C4.99999 1.2 4.09999 1.49999 3.29999 1.99999C2.59999 2.59999 2.2 3.30001 2.2 4.30001C2.2 5.30001 2.5 6.09999 3.2 6.59999C3.9 7.09999 4.89999 7.40001 6.29999 7.40001C7.39999 7.40001 8.2 7.20001 8.9 6.90001C9.6 6.60001 9.9 6.09999 9.9 5.49999V5.30001H5.9V4.2H11.8Z" transform="translate(206.6 368.8)" fill="white"/>
<path d="M10.7 0V8.39999H8.49999V4.70001H2.1V8.39999H-6.10352e-06V0H2.1V3.60001H8.6V0H10.7Z" transform="translate(224.9 369)" fill="white"/>
<path d="M11.1 1.10001H6.59999V8.29999H4.5V1.10001H3.05176e-06V0H11.2V1.10001H11.1Z" transform="translate(241.3 369)" fill="white"/>
<path d="M9.49999 1.10001C10.6 1.80001 11.2 2.90001 11.2 4.20001C11.2 5.50001 10.6 6.59999 9.49999 7.29999C8.39999 7.99999 6.70001 8.39999 4.70001 8.39999H-6.10352e-06V0H4.70001C6.80001 0 8.39999 0.300006 9.49999 1.10001ZM7.89999 6.39999C8.59999 5.89999 8.99999 5.10001 8.99999 4.20001C8.99999 3.20001 8.59999 2.5 7.89999 2C7.19999 1.5 6.10001 1.20001 4.70001 1.20001H2.20001V7.29999H4.70001C6.10001 7.19999 7.19999 6.99999 7.89999 6.39999Z" transform="translate(266.9 369)" fill="white"/>
<path d="M4.89999 5H2.1V8.39999H-6.10352e-06V0H5.39999C6.79999 0 8.00001 0.200012 8.80001 0.700012C9.60001 1.10001 9.99999 1.80001 9.99999 2.60001C9.99999 3.20001 9.80001 3.70001 9.30001 4.10001C8.80001 4.50001 8.10001 4.8 7.20001 5L10.8 8.5H8.30001L4.89999 5ZM2.1 3.89999H5.20001C6.10001 3.89999 6.7 3.80001 7.1 3.60001C7.5 3.40001 7.70001 3.00001 7.70001 2.60001C7.70001 2.10001 7.5 1.80001 7.1 1.60001C6.7 1.40001 6.00001 1.29999 5.20001 1.29999H2.1V3.89999Z" transform="translate(284.4 369)" fill="white"/>
<path d="M9.80001 7.20001V8.39999H-1.2207e-05V0H9.59999V1.20001H2.2V3.60001H7.99999V4.70001H2.2V7.20001H9.80001Z" transform="translate(300.8 369)" fill="white"/>
<path d="M9.1 6.20001H3.49999L2.20001 8.39999H-6.10352e-06L4.99999 0H7.6L12.6 8.39999H10.3L9.1 6.20001ZM8.39999 5.10001L6.89999 2.39999L6.30001 1.20001H6.20001L5.6 2.39999L3.99999 5.10001H8.39999Z" transform="translate(314.9 369)" fill="white"/>
<path d="M13.5 8.39999H11.5V3.5L11.6 1.20001L7.59999 8.39999H5.80001L1.80001 1.20001L1.99999 3.5V8.39999H-1.2207e-05V0H3.2L5.90001 4.89999L6.80001 6.89999L7.7 4.89999L10.3 0H13.4V8.39999H13.5Z" transform="translate(332.8 369)" fill="white"/>
<path d="M8.79999 0.323988C9.69999 0.623988 10.4 1.02401 11 1.62401L9.39999 2.524C8.99999 2.024 8.6 1.62399 8 1.42399C7.4 1.22399 6.69999 1.12401 5.79999 1.12401C4.89999 1.12401 4.20001 1.224 3.70001 1.524C3.20001 1.724 2.89999 2.02399 2.89999 2.42399C2.89999 2.72399 3.10001 3.02401 3.60001 3.22401C4.10001 3.42401 5.00001 3.62401 6.20001 3.72401C7.40001 3.82401 8.3 4.02401 9 4.22401C9.7 4.42401 10.2 4.724 10.5 5.024C10.8 5.324 11 5.72401 11 6.22401C11 6.72401 10.8 7.124 10.3 7.524C9.89999 7.924 9.19999 8.22399 8.39999 8.42399C7.59999 8.62399 6.70001 8.72401 5.70001 8.72401C3.00001 8.72401 1.1 8.124 0 7.024L1.5 6.024C1.9 6.524 2.50001 6.92401 3.20001 7.12401C3.90001 7.32401 4.70001 7.524 5.70001 7.524C6.60001 7.524 7.39999 7.42401 7.89999 7.22401C8.39999 7.02401 8.70001 6.72399 8.70001 6.32399C8.70001 6.02399 8.5 5.72401 8 5.62401C7.5 5.42401 6.7 5.22401 5.5 5.12401C4.3 5.02401 3.30001 4.82401 2.60001 4.62401C1.90001 4.42401 1.4 4.12399 1 3.82399C0.7 3.52399 0.5 3.12401 0.5 2.72401C0.5 2.22401 0.700006 1.82399 1.10001 1.42399C1.50001 1.02399 2.09999 0.724 2.89999 0.524C3.69999 0.324 4.60001 0.224012 5.60001 0.224012C6.90001 -0.175988 7.99999 0.0239878 8.79999 0.323988Z" transform="translate(352 368.976)" fill="white"/>
</svg>
