<svg width="400" height="400" viewBox="0 0 400 400" fill="none" xmlns="http://www.w3.org/2000/svg">
<path d="M400 0H0V400H400V0Z" fill="#6441A4"/>
<path fill-rule="evenodd" clip-rule="evenodd" d="M180 0L176 13L176.1 73H191V81H199L207 73H221L247 47V0H180ZM240 43L229 54H211L201 64V54H186V7H240V43ZM222 20H229V40H222V20ZM204 20H211V40H204V20ZM289 113V160L263 178H247V170L235 178H221V170L212 178H186L178 170L176 178L153.1 177.9L144 170L143 178L117 177.9L116 170L109 177.9L69 178L61 174V178H39L15 163L0 148V82H31L46 97H114V82H170V97H184V105L192 97H209L224 82H256V97H273L289 113ZM39 104H25V89H7V145L18 157H39V138H25V122H39V104ZM114 104H96V138H89V104H72V138H65V104H46V157H102L114 145V104ZM138 104H121V157H138V104ZM138 89H121V97H138V89ZM177 104H163V89H145V145L156 157H177V138H163V122H177V104ZM223 104H195L184 115V145L196 157H223V138H203V122H223V104ZM282 115L270 104H249V89H230V157H249V122H263V157H282V115Z" transform="translate(56 94)" fill="white"/>
</svg>
