<svg id="Layer_1" data-name="Layer 1" xmlns="http://www.w3.org/2000/svg" viewBox="0 0 80 80"><defs><style>.cls-1{fill:#fff;}</style></defs><title>code</title><path class="cls-1" d="M376,0H304a4,4,0,0,0-4,4V76a4,4,0,0,0,4,4h72a4,4,0,0,0,4-4V4A4,4,0,0,0,376,0ZM325.69,48.28a2,2,0,0,1,0,2.82h0a2,2,0,0,1-2.82,0L313,41.22l-1.41-1.41a2,2,0,0,1,0-2.82L313,35.58l9.88-9.88a2,2,0,0,1,2.82,0h0a2,2,0,0,1,0,2.82l-9.88,9.88Zm21.13-26.71-9.3,34.7a2,2,0,1,1-3.86-1l9.3-34.7a2,2,0,0,1,2.44-1.41h0A2,2,0,0,1,346.82,21.56Zm22.09,18.25-1.41,1.41-9.88,9.88a2,2,0,0,1-2.82,0h0a2,2,0,0,1,0-2.82l9.88-9.88-9.88-9.88a2,2,0,0,1,0-2.82h0a2,2,0,0,1,2.82,0l9.88,9.88L368.91,37A2,2,0,0,1,368.91,39.81Z" transform="translate(-300)"/></svg>