<svg width="520" height="300" viewBox="0 0 520 300" fill="none" xmlns="http://www.w3.org/2000/svg">
<rect width="520" height="300" fill="white"/>
<path d="M104.163 114.343L78 140.506L104.163 166.669C107.287 169.793 112.352 169.793 115.477 166.669L125.376 156.77C128.5 153.645 128.5 148.58 125.376 145.456L120.426 140.506L125.376 135.556C128.5 132.432 128.5 127.367 125.376 124.243L115.477 114.343C112.352 111.219 107.287 111.219 104.163 114.343Z" fill="#136F63"/>
<path d="M73.2308 135.657C70.1066 132.533 70.1066 127.467 73.2308 124.343L104.344 93.2305C107.468 90.1063 112.533 90.1063 115.657 93.2305L125.557 103.13C128.681 106.254 128.681 111.319 125.557 114.444L88.7872 151.213L73.2308 135.657Z" fill="#4CE0D2"/>
<path d="M78.1802 140.607L104.343 114.444C107.467 111.32 112.533 111.32 115.657 114.444L120.607 119.393L88.7868 151.213L78.1802 140.607Z" fill="#17A398"/>
<path fill-rule="evenodd" clip-rule="evenodd" d="M70.4017 138.485L72.3827 140.466L72.3431 140.506L101.334 169.498C106.021 174.184 113.619 174.184 118.305 169.498L128.204 159.598C132.891 154.912 132.891 147.314 128.204 142.628L126.083 140.506L128.204 138.385C132.891 133.699 132.891 126.101 128.204 121.414L126.224 119.433L126.264 119.393L128.385 117.272C133.071 112.586 133.071 104.988 128.385 100.302L118.485 90.4021C113.799 85.7157 106.201 85.7157 101.515 90.4021L70.4017 121.515C65.7157 126.201 65.7157 133.799 70.4017 138.485ZM113.803 113.06C110.771 111.421 106.905 111.882 104.343 114.444L78.1801 140.607L88.7865 151.213L120.567 119.433L115.476 114.343C114.965 113.832 114.402 113.404 113.803 113.06ZM101.334 111.515L75.2113 137.638L73.2303 135.657C70.1058 132.533 70.1058 127.467 73.2303 124.343L104.343 93.2305C107.467 90.1064 112.533 90.1064 115.657 93.2305L125.556 103.13C128.681 106.254 128.681 111.319 125.556 114.444L123.435 116.565L118.485 111.615C117.653 110.783 116.729 110.099 115.745 109.562C111.166 106.959 105.24 107.61 101.334 111.515ZM123.395 122.262L91.5751 154.081L104.163 166.669C107.287 169.793 112.352 169.793 115.476 166.669L125.376 156.77C128.5 153.646 128.5 148.58 125.376 145.456L120.427 140.506L125.376 135.557C128.5 132.432 128.5 127.367 125.376 124.243L123.395 122.262Z" fill="white"/>
<path d="M158.68 108.52H187.18V117.16H168.04V125.8H185.74V134.44H168.04V151H158.68V108.52Z" fill="#212049"/>
<path d="M211.647 147.34H211.527C210.527 148.9 209.187 150.02 207.507 150.7C205.867 151.38 204.127 151.72 202.287 151.72C200.927 151.72 199.607 151.52 198.327 151.12C197.087 150.76 195.987 150.2 195.027 149.44C194.067 148.68 193.307 147.74 192.747 146.62C192.187 145.5 191.907 144.2 191.907 142.72C191.907 141.04 192.207 139.62 192.807 138.46C193.447 137.3 194.287 136.34 195.327 135.58C196.407 134.82 197.627 134.24 198.987 133.84C200.347 133.4 201.747 133.08 203.187 132.88C204.667 132.68 206.127 132.56 207.567 132.52C209.047 132.48 210.407 132.46 211.647 132.46C211.647 130.86 211.067 129.6 209.907 128.68C208.787 127.72 207.447 127.24 205.887 127.24C204.407 127.24 203.047 127.56 201.807 128.2C200.607 128.8 199.527 129.64 198.567 130.72L193.767 125.8C195.447 124.24 197.407 123.08 199.647 122.32C201.887 121.52 204.207 121.12 206.607 121.12C209.247 121.12 211.407 121.46 213.087 122.14C214.807 122.78 216.167 123.74 217.167 125.02C218.207 126.3 218.927 127.88 219.327 129.76C219.727 131.6 219.927 133.74 219.927 136.18V151H211.647V147.34ZM209.427 138.22C208.747 138.22 207.887 138.26 206.847 138.34C205.847 138.38 204.867 138.54 203.907 138.82C202.987 139.1 202.187 139.52 201.507 140.08C200.867 140.64 200.547 141.42 200.547 142.42C200.547 143.5 201.007 144.3 201.927 144.82C202.847 145.34 203.807 145.6 204.807 145.6C205.687 145.6 206.527 145.48 207.327 145.24C208.167 145 208.907 144.66 209.547 144.22C210.187 143.78 210.687 143.22 211.047 142.54C211.447 141.86 211.647 141.06 211.647 140.14V138.22H209.427Z" fill="#212049"/>
<path d="M226.293 121.84H235.293V151H226.293V121.84ZM225.573 112.66C225.573 111.22 226.073 110 227.073 109C228.113 107.96 229.353 107.44 230.793 107.44C232.233 107.44 233.453 107.96 234.453 109C235.493 110 236.013 111.22 236.013 112.66C236.013 114.1 235.493 115.34 234.453 116.38C233.453 117.38 232.233 117.88 230.793 117.88C229.353 117.88 228.113 117.38 227.073 116.38C226.073 115.34 225.573 114.1 225.573 112.66Z" fill="#212049"/>
<path d="M242.359 121.84H251.359V126.52H251.479C252.439 124.72 253.579 123.38 254.899 122.5C256.219 121.58 257.879 121.12 259.879 121.12C260.399 121.12 260.919 121.14 261.439 121.18C261.959 121.22 262.439 121.3 262.879 121.42V129.64C262.239 129.44 261.599 129.3 260.959 129.22C260.359 129.1 259.719 129.04 259.039 129.04C257.319 129.04 255.959 129.28 254.959 129.76C253.959 130.24 253.179 130.92 252.619 131.8C252.099 132.64 251.759 133.66 251.599 134.86C251.439 136.06 251.359 137.38 251.359 138.82V151H242.359V121.84Z" fill="#212049"/>
<path d="M286.887 108.52H302.667C304.867 108.52 306.947 108.72 308.907 109.12C310.867 109.52 312.567 110.22 314.007 111.22C315.487 112.18 316.647 113.5 317.487 115.18C318.367 116.82 318.807 118.9 318.807 121.42C318.807 123.9 318.407 125.98 317.607 127.66C316.807 129.34 315.707 130.68 314.307 131.68C312.907 132.68 311.247 133.4 309.327 133.84C307.407 134.24 305.327 134.44 303.087 134.44H296.247V151H286.887V108.52ZM296.247 126.52H302.487C303.327 126.52 304.127 126.44 304.887 126.28C305.687 126.12 306.387 125.86 306.987 125.5C307.627 125.1 308.127 124.58 308.487 123.94C308.887 123.26 309.087 122.42 309.087 121.42C309.087 120.34 308.827 119.48 308.307 118.84C307.827 118.16 307.187 117.64 306.387 117.28C305.627 116.92 304.767 116.7 303.807 116.62C302.847 116.5 301.927 116.44 301.047 116.44H296.247V126.52Z" fill="#212049"/>
<path d="M319.46 136.42C319.46 134.1 319.88 132 320.72 130.12C321.56 128.24 322.7 126.64 324.14 125.32C325.62 123.96 327.34 122.92 329.3 122.2C331.3 121.48 333.42 121.12 335.66 121.12C337.9 121.12 340 121.48 341.96 122.2C343.96 122.92 345.68 123.96 347.12 125.32C348.6 126.64 349.76 128.24 350.6 130.12C351.44 132 351.86 134.1 351.86 136.42C351.86 138.74 351.44 140.84 350.6 142.72C349.76 144.6 348.6 146.22 347.12 147.58C345.68 148.9 343.96 149.92 341.96 150.64C340 151.36 337.9 151.72 335.66 151.72C333.42 151.72 331.3 151.36 329.3 150.64C327.34 149.92 325.62 148.9 324.14 147.58C322.7 146.22 321.56 144.6 320.72 142.72C319.88 140.84 319.46 138.74 319.46 136.42ZM328.46 136.42C328.46 138.62 329.08 140.4 330.32 141.76C331.6 143.12 333.38 143.8 335.66 143.8C337.94 143.8 339.7 143.12 340.94 141.76C342.22 140.4 342.86 138.62 342.86 136.42C342.86 134.22 342.22 132.44 340.94 131.08C339.7 129.72 337.94 129.04 335.66 129.04C333.38 129.04 331.6 129.72 330.32 131.08C329.08 132.44 328.46 134.22 328.46 136.42Z" fill="#212049"/>
<path d="M357.881 121.84H366.881V151H357.881V121.84ZM357.161 112.66C357.161 111.22 357.661 110 358.661 109C359.701 107.96 360.941 107.44 362.381 107.44C363.821 107.44 365.041 107.96 366.041 109C367.081 110 367.601 111.22 367.601 112.66C367.601 114.1 367.081 115.34 366.041 116.38C365.041 117.38 363.821 117.88 362.381 117.88C360.941 117.88 359.701 117.38 358.661 116.38C357.661 115.34 357.161 114.1 357.161 112.66Z" fill="#212049"/>
<path d="M373.947 121.84H382.587V125.8H382.707C382.987 125.24 383.387 124.68 383.907 124.12C384.427 123.56 385.047 123.06 385.767 122.62C386.487 122.18 387.307 121.82 388.227 121.54C389.147 121.26 390.147 121.12 391.227 121.12C393.507 121.12 395.347 121.48 396.747 122.2C398.147 122.88 399.227 123.84 399.987 125.08C400.787 126.32 401.327 127.78 401.607 129.46C401.887 131.14 402.027 132.96 402.027 134.92V151H393.027V136.72C393.027 135.88 392.987 135.02 392.907 134.14C392.867 133.22 392.687 132.38 392.367 131.62C392.087 130.86 391.627 130.24 390.987 129.76C390.387 129.28 389.507 129.04 388.347 129.04C387.187 129.04 386.247 129.26 385.527 129.7C384.807 130.1 384.247 130.66 383.847 131.38C383.487 132.06 383.247 132.84 383.127 133.72C383.007 134.6 382.947 135.52 382.947 136.48V151H373.947V121.84Z" fill="#212049"/>
<path d="M428.86 129.04H420.94V138.76C420.94 139.56 420.98 140.3 421.06 140.98C421.14 141.62 421.32 142.18 421.6 142.66C421.88 143.14 422.3 143.52 422.86 143.8C423.46 144.04 424.24 144.16 425.2 144.16C425.68 144.16 426.3 144.12 427.06 144.04C427.86 143.92 428.46 143.68 428.86 143.32V150.82C427.86 151.18 426.82 151.42 425.74 151.54C424.66 151.66 423.6 151.72 422.56 151.72C421.04 151.72 419.64 151.56 418.36 151.24C417.08 150.92 415.96 150.42 415 149.74C414.04 149.02 413.28 148.1 412.72 146.98C412.2 145.86 411.94 144.5 411.94 142.9V129.04H406.18V121.84H411.94V113.2H420.94V121.84H428.86V129.04Z" fill="#212049"/>
<path d="M434.213 145.84C434.213 145.08 434.353 144.36 434.633 143.68C434.913 143 435.293 142.42 435.773 141.94C436.293 141.42 436.893 141.02 437.573 140.74C438.253 140.46 438.973 140.32 439.733 140.32C440.493 140.32 441.213 140.46 441.893 140.74C442.573 141.02 443.153 141.42 443.633 141.94C444.153 142.42 444.553 143 444.833 143.68C445.113 144.36 445.253 145.08 445.253 145.84C445.253 146.6 445.113 147.32 444.833 148C444.553 148.68 444.153 149.28 443.633 149.8C443.153 150.28 442.573 150.66 441.893 150.94C441.213 151.22 440.493 151.36 439.733 151.36C438.973 151.36 438.253 151.22 437.573 150.94C436.893 150.66 436.293 150.28 435.773 149.8C435.293 149.28 434.913 148.68 434.633 148C434.353 147.32 434.213 146.6 434.213 145.84Z" fill="#212049"/>
<rect x="190" y="210" width="20" height="20" rx="4" fill="#4CE0D2"/>
<rect x="230" y="210" width="20" height="20" rx="4" fill="#17A398"/>
<rect x="270" y="210" width="20" height="20" rx="4" fill="#136F63"/>
<rect x="310" y="210" width="20" height="20" rx="4" fill="#212049"/>
</svg>
