<svg width="200" height="150" viewBox="0 0 200 150" fill="none" xmlns="http://www.w3.org/2000/svg">
<path d="M0 0H200V150H0V0Z" fill="white"/>
<path fill-rule="evenodd" clip-rule="evenodd" d="M57.7063 69.47C57.889 69.1776 58.2095 69 58.5543 69H70.1958C70.9812 69 71.4601 69.864 71.0438 70.53L62.2938 84.53C62.111 84.8224 61.7906 85 61.4458 85H49.8043C49.0188 85 48.54 84.136 48.9563 83.47L57.7063 69.47ZM77.7063 69.47C77.889 69.1776 78.2095 69 78.5543 69H90.1958C90.9812 69 91.4601 69.864 91.0438 70.53L82.2938 84.53C82.111 84.8224 81.7906 85 81.4458 85H69.8043C69.0188 85 68.54 84.136 68.9563 83.47L77.7063 69.47ZM98.5543 69C98.2095 69 97.889 69.1776 97.7063 69.47L88.9563 83.47C88.54 84.136 89.0188 85 89.8043 85H101.446C101.791 85 102.111 84.8224 102.294 84.53L111.044 70.53C111.46 69.864 110.981 69 110.196 69H98.5543ZM117.706 69.47C117.889 69.1776 118.209 69 118.554 69H130.196C130.981 69 131.46 69.864 131.044 70.53L122.294 84.53C122.111 84.8224 121.791 85 121.446 85H109.804C109.019 85 108.54 84.136 108.956 83.47L117.706 69.47ZM138.554 69C138.209 69 137.889 69.1776 137.706 69.47L128.956 83.47C128.54 84.136 129.019 85 129.804 85H141.446C141.791 85 142.111 84.8224 142.294 84.53L151.044 70.53C151.46 69.864 150.981 69 150.196 69H138.554Z" fill="#FF0000"/>
<path fill-rule="evenodd" clip-rule="evenodd" d="M57.7063 69.47C57.889 69.1776 58.2095 69 58.5543 69H70.1958C70.9812 69 71.4601 69.864 71.0438 70.53L62.2938 84.53C62.111 84.8224 61.7906 85 61.4458 85H49.8043C49.0188 85 48.54 84.136 48.9563 83.47L57.7063 69.47ZM77.7063 69.47C77.889 69.1776 78.2095 69 78.5543 69H90.1958C90.9812 69 91.4601 69.864 91.0438 70.53L82.2938 84.53C82.111 84.8224 81.7906 85 81.4458 85H69.8043C69.0188 85 68.54 84.136 68.9563 83.47L77.7063 69.47ZM98.5543 69C98.2095 69 97.889 69.1776 97.7063 69.47L88.9563 83.47C88.54 84.136 89.0188 85 89.8043 85H101.446C101.791 85 102.111 84.8224 102.294 84.53L111.044 70.53C111.46 69.864 110.981 69 110.196 69H98.5543ZM117.706 69.47C117.889 69.1776 118.209 69 118.554 69H130.196C130.981 69 131.46 69.864 131.044 70.53L122.294 84.53C122.111 84.8224 121.791 85 121.446 85H109.804C109.019 85 108.54 84.136 108.956 83.47L117.706 69.47ZM138.554 69C138.209 69 137.889 69.1776 137.706 69.47L128.956 83.47C128.54 84.136 129.019 85 129.804 85H141.446C141.791 85 142.111 84.8224 142.294 84.53L151.044 70.53C151.46 69.864 150.981 69 150.196 69H138.554Z" fill="url(#paint0_linear)"/>
<path d="M57.18 74.916V76.296H60.324V78.132H57.18V81H54.732V73.08H61.104V74.916H57.18Z" fill="white"/>
<path d="M80.6314 79.164V81H74.0914V73.08H80.4754V74.916H76.5394V76.2H79.6834V77.904H76.5394V79.164H80.6314Z" fill="white"/>
<path d="M98.5225 81H95.6185L92.8825 73.08H95.4385L96.7105 77.628L97.1185 79.176L97.5025 77.652L98.7865 73.08H101.259L98.5225 81Z" fill="white"/>
<path d="M120.522 79.164V81H113.982V73.08H120.366V74.916H116.43V76.2H119.574V77.904H116.43V79.164H120.522Z" fill="white"/>
<path d="M136.913 78.252H135.917V81H133.517V73.08H137.573C138.581 73.08 139.349 73.3 139.877 73.74C140.405 74.18 140.669 74.824 140.669 75.672C140.669 76.824 140.177 77.596 139.193 77.988L141.125 81H138.449L136.913 78.252ZM135.917 76.584H137.105C137.505 76.584 137.789 76.52 137.957 76.392C138.125 76.256 138.209 76.036 138.209 75.732C138.209 75.428 138.121 75.208 137.945 75.072C137.777 74.936 137.497 74.868 137.105 74.868H135.917V76.584Z" fill="white"/>
<path fill-rule="evenodd" clip-rule="evenodd" d="M70.5543 49C70.2095 49 69.889 49.1776 69.7063 49.47L60.9563 63.47C60.54 64.136 61.0188 65 61.8043 65H73.4458C73.7906 65 74.111 64.8224 74.2938 64.53L83.0438 50.53C83.4601 49.864 82.9812 49 82.1958 49H70.5543ZM90.5543 49C90.2095 49 89.889 49.1776 89.7063 49.47L80.9563 63.47C80.54 64.136 81.0188 65 81.8043 65H93.4458C93.7906 65 94.111 64.8224 94.2938 64.53L103.044 50.53C103.46 49.864 102.981 49 102.196 49H90.5543ZM109.706 49.47C109.889 49.1776 110.209 49 110.554 49H122.196C122.981 49 123.46 49.864 123.044 50.53L114.294 64.53C114.111 64.8224 113.791 65 113.446 65H101.804C101.019 65 100.54 64.136 100.956 63.47L109.706 49.47ZM130.554 49C130.209 49 129.889 49.1776 129.706 49.47L120.956 63.47C120.54 64.136 121.019 65 121.804 65H133.446C133.791 65 134.111 64.8224 134.294 64.53L143.044 50.53C143.46 49.864 142.981 49 142.196 49H130.554Z" fill="#0047FF"/>
<path fill-rule="evenodd" clip-rule="evenodd" d="M70.5543 49C70.2095 49 69.889 49.1776 69.7063 49.47L60.9563 63.47C60.54 64.136 61.0188 65 61.8043 65H73.4458C73.7906 65 74.111 64.8224 74.2938 64.53L83.0438 50.53C83.4601 49.864 82.9812 49 82.1958 49H70.5543ZM90.5543 49C90.2095 49 89.889 49.1776 89.7063 49.47L80.9563 63.47C80.54 64.136 81.0188 65 81.8043 65H93.4458C93.7906 65 94.111 64.8224 94.2938 64.53L103.044 50.53C103.46 49.864 102.981 49 102.196 49H90.5543ZM109.706 49.47C109.889 49.1776 110.209 49 110.554 49H122.196C122.981 49 123.46 49.864 123.044 50.53L114.294 64.53C114.111 64.8224 113.791 65 113.446 65H101.804C101.019 65 100.54 64.136 100.956 63.47L109.706 49.47ZM130.554 49C130.209 49 129.889 49.1776 129.706 49.47L120.956 63.47C120.54 64.136 121.019 65 121.804 65H133.446C133.791 65 134.111 64.8224 134.294 64.53L143.044 50.53C143.46 49.864 142.981 49 142.196 49H130.554Z" fill="url(#paint1_linear)"/>
<path d="M68.696 52.96C70.184 52.96 71.18 53.544 71.684 54.712L71.168 55.132C70.968 54.564 70.668 54.152 70.268 53.896C69.876 53.64 69.356 53.512 68.708 53.512C68.244 53.512 67.84 53.584 67.496 53.728C67.152 53.872 66.888 54.068 66.704 54.316C66.528 54.564 66.44 54.844 66.44 55.156C66.44 55.46 66.516 55.712 66.668 55.912C66.82 56.112 67.076 56.284 67.436 56.428C67.804 56.564 68.308 56.688 68.948 56.8C69.98 56.976 70.712 57.232 71.144 57.568C71.576 57.904 71.792 58.368 71.792 58.96C71.792 59.384 71.668 59.76 71.42 60.088C71.172 60.416 70.82 60.672 70.364 60.856C69.916 61.032 69.4 61.12 68.816 61.12C67.984 61.12 67.28 60.956 66.704 60.628C66.136 60.292 65.748 59.824 65.54 59.224L66.068 58.816C66.228 59.384 66.548 59.82 67.028 60.124C67.516 60.42 68.116 60.568 68.828 60.568C69.516 60.568 70.076 60.428 70.508 60.148C70.948 59.868 71.168 59.484 71.168 58.996C71.168 58.572 70.988 58.236 70.628 57.988C70.276 57.74 69.66 57.54 68.78 57.388C68.036 57.26 67.448 57.104 67.016 56.92C66.584 56.736 66.272 56.508 66.08 56.236C65.896 55.964 65.804 55.624 65.804 55.216C65.804 54.808 65.92 54.432 66.152 54.088C66.392 53.744 66.728 53.472 67.16 53.272C67.6 53.064 68.112 52.96 68.696 52.96Z" fill="white"/>
<path d="M88.8217 52.96C89.5657 52.96 90.2097 53.128 90.7537 53.464C91.3057 53.792 91.7297 54.264 92.0257 54.88C92.3217 55.488 92.4697 56.208 92.4697 57.04C92.4697 57.872 92.3217 58.596 92.0257 59.212C91.7297 59.82 91.3057 60.292 90.7537 60.628C90.2097 60.956 89.5657 61.12 88.8217 61.12C88.0777 61.12 87.4297 60.956 86.8777 60.628C86.3337 60.292 85.9137 59.82 85.6177 59.212C85.3217 58.596 85.1737 57.872 85.1737 57.04C85.1737 56.208 85.3217 55.488 85.6177 54.88C85.9137 54.264 86.3337 53.792 86.8777 53.464C87.4297 53.128 88.0777 52.96 88.8217 52.96ZM88.8217 53.512C88.2057 53.512 87.6697 53.656 87.2137 53.944C86.7657 54.224 86.4177 54.632 86.1697 55.168C85.9297 55.696 85.8097 56.32 85.8097 57.04C85.8097 57.76 85.9297 58.388 86.1697 58.924C86.4177 59.452 86.7657 59.86 87.2137 60.148C87.6697 60.428 88.2057 60.568 88.8217 60.568C89.4377 60.568 89.9737 60.428 90.4297 60.148C90.8857 59.86 91.2337 59.452 91.4737 58.924C91.7217 58.388 91.8457 57.76 91.8457 57.04C91.8457 56.32 91.7217 55.696 91.4737 55.168C91.2337 54.632 90.8857 54.224 90.4297 53.944C89.9737 53.656 89.4377 53.512 88.8217 53.512Z" fill="white"/>
<path d="M112.479 58.108C112.479 59.084 112.215 59.832 111.687 60.352C111.159 60.864 110.407 61.12 109.431 61.12C108.455 61.12 107.699 60.864 107.163 60.352C106.635 59.832 106.371 59.084 106.371 58.108V53.08H106.971V57.988C106.971 58.836 107.179 59.48 107.595 59.92C108.011 60.352 108.623 60.568 109.431 60.568C110.231 60.568 110.839 60.352 111.255 59.92C111.671 59.48 111.879 58.836 111.879 57.988V53.08H112.479V58.108Z" fill="white"/>
<path d="M132.233 60.448V61H126.881V53.08H127.481V60.448H132.233Z" fill="white"/>
<path d="M47.456 90.89C47.5633 90.89 47.6426 90.904 47.694 90.932C47.75 90.9553 47.778 91.0043 47.778 91.079C47.778 91.1163 47.7616 91.233 47.729 91.429C47.6963 91.625 47.6706 91.7813 47.652 91.898C47.47 92.9573 47.3463 93.7483 47.281 94.271C47.4396 93.8417 47.638 93.515 47.876 93.291C48.1186 93.067 48.366 92.955 48.618 92.955C48.8373 92.955 49.01 93.0343 49.136 93.193C49.2666 93.3517 49.332 93.5663 49.332 93.837C49.332 94.1683 49.241 94.5067 49.059 94.852C48.8816 95.1973 48.6343 95.4843 48.317 95.713C47.9996 95.937 47.645 96.049 47.253 96.049C46.9356 96.049 46.7046 95.979 46.56 95.839C46.42 95.699 46.35 95.5147 46.35 95.286C46.35 95.16 46.3686 94.9407 46.406 94.628C46.448 94.3153 46.483 94.054 46.511 93.844C46.5436 93.6293 46.567 93.48 46.581 93.396C46.735 92.3927 46.812 91.7697 46.812 91.527C46.812 91.4523 46.7933 91.401 46.756 91.373C46.7186 91.3403 46.6603 91.324 46.581 91.324C46.5343 91.324 46.4783 91.3287 46.413 91.338L46.371 91.114C46.567 91.0393 46.7606 90.9833 46.952 90.946C47.148 90.9087 47.316 90.89 47.456 90.89ZM48.163 93.494C48.051 93.494 47.9133 93.6083 47.75 93.837C47.5913 94.061 47.4513 94.3247 47.33 94.628C47.2086 94.9313 47.148 95.1833 47.148 95.384C47.148 95.5333 47.1806 95.6407 47.246 95.706C47.3113 95.7713 47.3883 95.804 47.477 95.804C47.6496 95.804 47.8036 95.7037 47.939 95.503C48.079 95.2977 48.1886 95.0527 48.268 94.768C48.352 94.488 48.394 94.222 48.394 93.97C48.394 93.8113 48.3706 93.6923 48.324 93.613C48.282 93.5337 48.2283 93.494 48.163 93.494Z" fill="#FF0000"/>
<path d="M47.456 90.89C47.5633 90.89 47.6426 90.904 47.694 90.932C47.75 90.9553 47.778 91.0043 47.778 91.079C47.778 91.1163 47.7616 91.233 47.729 91.429C47.6963 91.625 47.6706 91.7813 47.652 91.898C47.47 92.9573 47.3463 93.7483 47.281 94.271C47.4396 93.8417 47.638 93.515 47.876 93.291C48.1186 93.067 48.366 92.955 48.618 92.955C48.8373 92.955 49.01 93.0343 49.136 93.193C49.2666 93.3517 49.332 93.5663 49.332 93.837C49.332 94.1683 49.241 94.5067 49.059 94.852C48.8816 95.1973 48.6343 95.4843 48.317 95.713C47.9996 95.937 47.645 96.049 47.253 96.049C46.9356 96.049 46.7046 95.979 46.56 95.839C46.42 95.699 46.35 95.5147 46.35 95.286C46.35 95.16 46.3686 94.9407 46.406 94.628C46.448 94.3153 46.483 94.054 46.511 93.844C46.5436 93.6293 46.567 93.48 46.581 93.396C46.735 92.3927 46.812 91.7697 46.812 91.527C46.812 91.4523 46.7933 91.401 46.756 91.373C46.7186 91.3403 46.6603 91.324 46.581 91.324C46.5343 91.324 46.4783 91.3287 46.413 91.338L46.371 91.114C46.567 91.0393 46.7606 90.9833 46.952 90.946C47.148 90.9087 47.316 90.89 47.456 90.89ZM48.163 93.494C48.051 93.494 47.9133 93.6083 47.75 93.837C47.5913 94.061 47.4513 94.3247 47.33 94.628C47.2086 94.9313 47.148 95.1833 47.148 95.384C47.148 95.5333 47.1806 95.6407 47.246 95.706C47.3113 95.7713 47.3883 95.804 47.477 95.804C47.6496 95.804 47.8036 95.7037 47.939 95.503C48.079 95.2977 48.1886 95.0527 48.268 94.768C48.352 94.488 48.394 94.222 48.394 93.97C48.394 93.8113 48.3706 93.6923 48.324 93.613C48.282 93.5337 48.2283 93.494 48.163 93.494Z" fill="url(#paint2_linear)"/>
<path d="M59.8971 95.58C59.6918 95.7527 59.4888 95.8787 59.2881 95.958C59.0921 96.0327 58.9171 96.07 58.7631 96.07C58.6791 96.07 58.6208 96.0443 58.5881 95.993C58.5554 95.9417 58.5391 95.86 58.5391 95.748C58.5391 95.664 58.5484 95.5403 58.5671 95.377C58.5904 95.209 58.6161 95.0317 58.6441 94.845C58.4014 95.2883 58.1728 95.6033 57.9581 95.79C57.7434 95.9767 57.5218 96.07 57.2931 96.07C57.1064 96.07 56.9641 96.0187 56.8661 95.916C56.7681 95.8087 56.7191 95.6733 56.7191 95.51C56.7191 95.342 56.7891 94.9477 56.9291 94.327C57.0224 93.921 57.0691 93.676 57.0691 93.592C57.0691 93.466 56.9828 93.403 56.8101 93.403C56.7541 93.403 56.7074 93.4077 56.6701 93.417L56.6421 93.165C56.8941 93.0997 57.0924 93.053 57.2371 93.025C57.3818 92.997 57.5334 92.983 57.6921 92.983C57.8834 92.983 57.9791 93.0437 57.9791 93.165C57.9791 93.2117 57.9581 93.3307 57.9161 93.522C57.8741 93.7133 57.8461 93.8347 57.8321 93.886C57.8181 93.9467 57.7878 94.0843 57.7411 94.299C57.6944 94.509 57.6571 94.6863 57.6291 94.831C57.6058 94.9757 57.5941 95.0807 57.5941 95.146C57.5941 95.23 57.6081 95.2977 57.6361 95.349C57.6688 95.3957 57.7178 95.419 57.7831 95.419C57.8951 95.419 58.0188 95.3397 58.1541 95.181C58.2941 95.0177 58.4201 94.8193 58.5321 94.586C58.6488 94.3527 58.7304 94.1357 58.7771 93.935L58.9101 93.088L59.8691 92.969C59.8551 93.0343 59.8318 93.158 59.7991 93.34C59.6638 94.0493 59.5728 94.5323 59.5261 94.789C59.4841 95.0457 59.4631 95.2347 59.4631 95.356C59.4631 95.4353 59.4934 95.475 59.5541 95.475C59.6381 95.475 59.7268 95.4447 59.8201 95.384L59.8971 95.58Z" fill="#FF0000"/>
<path d="M59.8971 95.58C59.6918 95.7527 59.4888 95.8787 59.2881 95.958C59.0921 96.0327 58.9171 96.07 58.7631 96.07C58.6791 96.07 58.6208 96.0443 58.5881 95.993C58.5554 95.9417 58.5391 95.86 58.5391 95.748C58.5391 95.664 58.5484 95.5403 58.5671 95.377C58.5904 95.209 58.6161 95.0317 58.6441 94.845C58.4014 95.2883 58.1728 95.6033 57.9581 95.79C57.7434 95.9767 57.5218 96.07 57.2931 96.07C57.1064 96.07 56.9641 96.0187 56.8661 95.916C56.7681 95.8087 56.7191 95.6733 56.7191 95.51C56.7191 95.342 56.7891 94.9477 56.9291 94.327C57.0224 93.921 57.0691 93.676 57.0691 93.592C57.0691 93.466 56.9828 93.403 56.8101 93.403C56.7541 93.403 56.7074 93.4077 56.6701 93.417L56.6421 93.165C56.8941 93.0997 57.0924 93.053 57.2371 93.025C57.3818 92.997 57.5334 92.983 57.6921 92.983C57.8834 92.983 57.9791 93.0437 57.9791 93.165C57.9791 93.2117 57.9581 93.3307 57.9161 93.522C57.8741 93.7133 57.8461 93.8347 57.8321 93.886C57.8181 93.9467 57.7878 94.0843 57.7411 94.299C57.6944 94.509 57.6571 94.6863 57.6291 94.831C57.6058 94.9757 57.5941 95.0807 57.5941 95.146C57.5941 95.23 57.6081 95.2977 57.6361 95.349C57.6688 95.3957 57.7178 95.419 57.7831 95.419C57.8951 95.419 58.0188 95.3397 58.1541 95.181C58.2941 95.0177 58.4201 94.8193 58.5321 94.586C58.6488 94.3527 58.7304 94.1357 58.7771 93.935L58.9101 93.088L59.8691 92.969C59.8551 93.0343 59.8318 93.158 59.7991 93.34C59.6638 94.0493 59.5728 94.5323 59.5261 94.789C59.4841 95.0457 59.4631 95.2347 59.4631 95.356C59.4631 95.4353 59.4934 95.475 59.5541 95.475C59.6381 95.475 59.7268 95.4447 59.8201 95.384L59.8971 95.58Z" fill="url(#paint3_linear)"/>
<path d="M69.5598 93.004C69.7278 93.004 69.8562 93.06 69.9448 93.172C70.0335 93.2793 70.0778 93.4053 70.0778 93.55C70.0778 93.6993 70.0312 93.8323 69.9378 93.949C69.8492 94.0657 69.7208 94.124 69.5528 94.124C69.4688 94.124 69.3942 94.1053 69.3288 94.068C69.2635 94.0307 69.2308 93.9653 69.2308 93.872C69.2308 93.83 69.2378 93.7857 69.2518 93.739C69.2705 93.6877 69.2798 93.6503 69.2798 93.627C69.2798 93.6037 69.2728 93.585 69.2588 93.571C69.2448 93.5523 69.2285 93.543 69.2098 93.543C69.1118 93.543 69.0022 93.6247 68.8808 93.788C68.7642 93.9513 68.6522 94.1613 68.5448 94.418C68.4375 94.6747 68.3558 94.9337 68.2998 95.195L68.2018 96H67.3408C67.5555 94.726 67.6628 93.935 67.6628 93.627C67.6628 93.4777 67.5952 93.403 67.4598 93.403C67.4225 93.403 67.3852 93.4077 67.3478 93.417L67.3198 93.165C67.4972 93.109 67.6605 93.0647 67.8098 93.032C67.9638 92.9993 68.1178 92.983 68.2718 92.983C68.5005 92.983 68.6148 93.0437 68.6148 93.165C68.6148 93.2303 68.5612 93.5617 68.4538 94.159C68.5845 93.823 68.7455 93.5477 68.9368 93.333C69.1282 93.1137 69.3358 93.004 69.5598 93.004Z" fill="#FF0000"/>
<path d="M69.5598 93.004C69.7278 93.004 69.8562 93.06 69.9448 93.172C70.0335 93.2793 70.0778 93.4053 70.0778 93.55C70.0778 93.6993 70.0312 93.8323 69.9378 93.949C69.8492 94.0657 69.7208 94.124 69.5528 94.124C69.4688 94.124 69.3942 94.1053 69.3288 94.068C69.2635 94.0307 69.2308 93.9653 69.2308 93.872C69.2308 93.83 69.2378 93.7857 69.2518 93.739C69.2705 93.6877 69.2798 93.6503 69.2798 93.627C69.2798 93.6037 69.2728 93.585 69.2588 93.571C69.2448 93.5523 69.2285 93.543 69.2098 93.543C69.1118 93.543 69.0022 93.6247 68.8808 93.788C68.7642 93.9513 68.6522 94.1613 68.5448 94.418C68.4375 94.6747 68.3558 94.9337 68.2998 95.195L68.2018 96H67.3408C67.5555 94.726 67.6628 93.935 67.6628 93.627C67.6628 93.4777 67.5952 93.403 67.4598 93.403C67.4225 93.403 67.3852 93.4077 67.3478 93.417L67.3198 93.165C67.4972 93.109 67.6605 93.0647 67.8098 93.032C67.9638 92.9993 68.1178 92.983 68.2718 92.983C68.5005 92.983 68.6148 93.0437 68.6148 93.165C68.6148 93.2303 68.5612 93.5617 68.4538 94.159C68.5845 93.823 68.7455 93.5477 68.9368 93.333C69.1282 93.1137 69.3358 93.004 69.5598 93.004Z" fill="url(#paint4_linear)"/>
<path d="M80.5351 95.58C80.3485 95.7293 80.1525 95.8483 79.9471 95.937C79.7465 96.0257 79.5785 96.07 79.4431 96.07C79.3591 96.07 79.2891 96.042 79.2331 95.986C79.1771 95.9253 79.1491 95.8483 79.1491 95.755C79.1491 95.6477 79.1748 95.4657 79.2261 95.209C79.2821 94.9523 79.3148 94.8007 79.3241 94.754C79.4408 94.2407 79.4991 93.9187 79.4991 93.788C79.4991 93.7133 79.4805 93.655 79.4431 93.613C79.4058 93.571 79.3545 93.55 79.2891 93.55C79.1771 93.55 79.0511 93.6293 78.9111 93.788C78.7758 93.9467 78.6475 94.1497 78.5261 94.397C78.4095 94.6443 78.3185 94.8893 78.2531 95.132L78.1481 96H77.2871C77.5018 94.726 77.6091 93.935 77.6091 93.627C77.6091 93.4777 77.5415 93.403 77.4061 93.403C77.3688 93.403 77.3315 93.4077 77.2941 93.417L77.2661 93.165C77.4435 93.109 77.6068 93.0647 77.7561 93.032C77.9101 92.9993 78.0641 92.983 78.2181 92.983C78.4468 92.983 78.5611 93.0437 78.5611 93.165C78.5611 93.2397 78.5238 93.4683 78.4491 93.851L78.3861 94.229C78.5541 93.8697 78.7548 93.5687 78.9881 93.326C79.2261 93.0787 79.4898 92.955 79.7791 92.955C79.9705 92.955 80.1221 93.0133 80.2341 93.13C80.3461 93.2467 80.4021 93.3983 80.4021 93.585C80.4021 93.6877 80.3858 93.816 80.3531 93.97C80.3205 94.124 80.2715 94.341 80.2061 94.621C80.1081 94.9943 80.0591 95.2253 80.0591 95.314C80.0591 95.3513 80.0685 95.3887 80.0871 95.426C80.1058 95.4587 80.1408 95.475 80.1921 95.475C80.2715 95.475 80.3578 95.4447 80.4511 95.384L80.5351 95.58Z" fill="#FF0000"/>
<path d="M80.5351 95.58C80.3485 95.7293 80.1525 95.8483 79.9471 95.937C79.7465 96.0257 79.5785 96.07 79.4431 96.07C79.3591 96.07 79.2891 96.042 79.2331 95.986C79.1771 95.9253 79.1491 95.8483 79.1491 95.755C79.1491 95.6477 79.1748 95.4657 79.2261 95.209C79.2821 94.9523 79.3148 94.8007 79.3241 94.754C79.4408 94.2407 79.4991 93.9187 79.4991 93.788C79.4991 93.7133 79.4805 93.655 79.4431 93.613C79.4058 93.571 79.3545 93.55 79.2891 93.55C79.1771 93.55 79.0511 93.6293 78.9111 93.788C78.7758 93.9467 78.6475 94.1497 78.5261 94.397C78.4095 94.6443 78.3185 94.8893 78.2531 95.132L78.1481 96H77.2871C77.5018 94.726 77.6091 93.935 77.6091 93.627C77.6091 93.4777 77.5415 93.403 77.4061 93.403C77.3688 93.403 77.3315 93.4077 77.2941 93.417L77.2661 93.165C77.4435 93.109 77.6068 93.0647 77.7561 93.032C77.9101 92.9993 78.0641 92.983 78.2181 92.983C78.4468 92.983 78.5611 93.0437 78.5611 93.165C78.5611 93.2397 78.5238 93.4683 78.4491 93.851L78.3861 94.229C78.5541 93.8697 78.7548 93.5687 78.9881 93.326C79.2261 93.0787 79.4898 92.955 79.7791 92.955C79.9705 92.955 80.1221 93.0133 80.2341 93.13C80.3461 93.2467 80.4021 93.3983 80.4021 93.585C80.4021 93.6877 80.3858 93.816 80.3531 93.97C80.3205 94.124 80.2715 94.341 80.2061 94.621C80.1081 94.9943 80.0591 95.2253 80.0591 95.314C80.0591 95.3513 80.0685 95.3887 80.0871 95.426C80.1058 95.4587 80.1408 95.475 80.1921 95.475C80.2715 95.475 80.3578 95.4447 80.4511 95.384L80.5351 95.58Z" fill="url(#paint5_linear)"/>
<path d="M89.008 91.401C89.1574 91.401 89.2764 91.436 89.365 91.506C89.4537 91.5713 89.498 91.66 89.498 91.772C89.498 91.9307 89.442 92.0543 89.33 92.143C89.218 92.2317 89.071 92.276 88.889 92.276C88.7444 92.276 88.6277 92.2433 88.539 92.178C88.4504 92.108 88.406 92.017 88.406 91.905C88.406 91.7557 88.462 91.6343 88.574 91.541C88.6907 91.4477 88.8354 91.401 89.008 91.401ZM89.421 95.58C89.225 95.734 89.0384 95.8553 88.861 95.944C88.6884 96.028 88.5367 96.07 88.406 96.07C88.2987 96.07 88.2147 96.0443 88.154 95.993C88.0934 95.937 88.063 95.8553 88.063 95.748C88.063 95.6687 88.077 95.5357 88.105 95.349C88.133 95.1577 88.1517 95.0317 88.161 94.971L88.245 94.439C88.301 94.019 88.329 93.732 88.329 93.578C88.329 93.4613 88.259 93.403 88.119 93.403C88.0817 93.403 88.0444 93.4077 88.007 93.417L87.972 93.165C88.3594 93.0437 88.707 92.983 89.015 92.983C89.1084 92.983 89.1784 92.997 89.225 93.025C89.2764 93.0483 89.302 93.102 89.302 93.186C89.302 93.228 89.274 93.389 89.218 93.669C89.1387 94.075 89.092 94.3153 89.078 94.39C89.0034 94.7913 88.966 95.09 88.966 95.286C88.966 95.412 89.0057 95.475 89.085 95.475C89.1597 95.475 89.2437 95.4447 89.337 95.384L89.421 95.58Z" fill="#FF0000"/>
<path d="M89.008 91.401C89.1574 91.401 89.2764 91.436 89.365 91.506C89.4537 91.5713 89.498 91.66 89.498 91.772C89.498 91.9307 89.442 92.0543 89.33 92.143C89.218 92.2317 89.071 92.276 88.889 92.276C88.7444 92.276 88.6277 92.2433 88.539 92.178C88.4504 92.108 88.406 92.017 88.406 91.905C88.406 91.7557 88.462 91.6343 88.574 91.541C88.6907 91.4477 88.8354 91.401 89.008 91.401ZM89.421 95.58C89.225 95.734 89.0384 95.8553 88.861 95.944C88.6884 96.028 88.5367 96.07 88.406 96.07C88.2987 96.07 88.2147 96.0443 88.154 95.993C88.0934 95.937 88.063 95.8553 88.063 95.748C88.063 95.6687 88.077 95.5357 88.105 95.349C88.133 95.1577 88.1517 95.0317 88.161 94.971L88.245 94.439C88.301 94.019 88.329 93.732 88.329 93.578C88.329 93.4613 88.259 93.403 88.119 93.403C88.0817 93.403 88.0444 93.4077 88.007 93.417L87.972 93.165C88.3594 93.0437 88.707 92.983 89.015 92.983C89.1084 92.983 89.1784 92.997 89.225 93.025C89.2764 93.0483 89.302 93.102 89.302 93.186C89.302 93.228 89.274 93.389 89.218 93.669C89.1387 94.075 89.092 94.3153 89.078 94.39C89.0034 94.7913 88.966 95.09 88.966 95.286C88.966 95.412 89.0057 95.475 89.085 95.475C89.1597 95.475 89.2437 95.4447 89.337 95.384L89.421 95.58Z" fill="url(#paint6_linear)"/>
<path d="M100.141 95.58C99.9539 95.7293 99.7579 95.8483 99.5526 95.937C99.3519 96.0257 99.1839 96.07 99.0486 96.07C98.9646 96.07 98.8946 96.042 98.8386 95.986C98.7826 95.9253 98.7546 95.8483 98.7546 95.755C98.7546 95.6477 98.7803 95.4657 98.8316 95.209C98.8876 94.9523 98.9203 94.8007 98.9296 94.754C99.0463 94.2407 99.1046 93.9187 99.1046 93.788C99.1046 93.7133 99.0859 93.655 99.0486 93.613C99.0113 93.571 98.9599 93.55 98.8946 93.55C98.7826 93.55 98.6566 93.6293 98.5166 93.788C98.3813 93.9467 98.2529 94.1497 98.1316 94.397C98.0149 94.6443 97.9239 94.8893 97.8586 95.132L97.7536 96H96.8926C97.1073 94.726 97.2146 93.935 97.2146 93.627C97.2146 93.4777 97.1469 93.403 97.0116 93.403C96.9743 93.403 96.9369 93.4077 96.8996 93.417L96.8716 93.165C97.0489 93.109 97.2123 93.0647 97.3616 93.032C97.5156 92.9993 97.6696 92.983 97.8236 92.983C98.0523 92.983 98.1666 93.0437 98.1666 93.165C98.1666 93.2397 98.1293 93.4683 98.0546 93.851L97.9916 94.229C98.1596 93.8697 98.3603 93.5687 98.5936 93.326C98.8316 93.0787 99.0953 92.955 99.3846 92.955C99.5759 92.955 99.7276 93.0133 99.8396 93.13C99.9516 93.2467 100.008 93.3983 100.008 93.585C100.008 93.6877 99.9913 93.816 99.9586 93.97C99.9259 94.124 99.8769 94.341 99.8116 94.621C99.7136 94.9943 99.6646 95.2253 99.6646 95.314C99.6646 95.3513 99.6739 95.3887 99.6926 95.426C99.7113 95.4587 99.7463 95.475 99.7976 95.475C99.8769 95.475 99.9633 95.4447 100.057 95.384L100.141 95.58Z" fill="#FF0000"/>
<path d="M100.141 95.58C99.9539 95.7293 99.7579 95.8483 99.5526 95.937C99.3519 96.0257 99.1839 96.07 99.0486 96.07C98.9646 96.07 98.8946 96.042 98.8386 95.986C98.7826 95.9253 98.7546 95.8483 98.7546 95.755C98.7546 95.6477 98.7803 95.4657 98.8316 95.209C98.8876 94.9523 98.9203 94.8007 98.9296 94.754C99.0463 94.2407 99.1046 93.9187 99.1046 93.788C99.1046 93.7133 99.0859 93.655 99.0486 93.613C99.0113 93.571 98.9599 93.55 98.8946 93.55C98.7826 93.55 98.6566 93.6293 98.5166 93.788C98.3813 93.9467 98.2529 94.1497 98.1316 94.397C98.0149 94.6443 97.9239 94.8893 97.8586 95.132L97.7536 96H96.8926C97.1073 94.726 97.2146 93.935 97.2146 93.627C97.2146 93.4777 97.1469 93.403 97.0116 93.403C96.9743 93.403 96.9369 93.4077 96.8996 93.417L96.8716 93.165C97.0489 93.109 97.2123 93.0647 97.3616 93.032C97.5156 92.9993 97.6696 92.983 97.8236 92.983C98.0523 92.983 98.1666 93.0437 98.1666 93.165C98.1666 93.2397 98.1293 93.4683 98.0546 93.851L97.9916 94.229C98.1596 93.8697 98.3603 93.5687 98.5936 93.326C98.8316 93.0787 99.0953 92.955 99.3846 92.955C99.5759 92.955 99.7276 93.0133 99.8396 93.13C99.9516 93.2467 100.008 93.3983 100.008 93.585C100.008 93.6877 99.9913 93.816 99.9586 93.97C99.9259 94.124 99.8769 94.341 99.8116 94.621C99.7136 94.9943 99.6646 95.2253 99.6646 95.314C99.6646 95.3513 99.6739 95.3887 99.6926 95.426C99.7113 95.4587 99.7463 95.475 99.7976 95.475C99.8769 95.475 99.9633 95.4447 100.057 95.384L100.141 95.58Z" fill="url(#paint7_linear)"/>
<path d="M110.644 92.43C110.76 92.43 110.851 92.458 110.917 92.514C110.987 92.5653 111.021 92.6423 111.021 92.745C111.021 92.829 110.991 92.9107 110.931 92.99C110.875 93.0647 110.79 93.102 110.678 93.102C110.613 93.102 110.564 93.0903 110.532 93.067C110.499 93.0437 110.468 93.0087 110.44 92.962C110.417 92.9247 110.396 92.899 110.378 92.885C110.359 92.8663 110.331 92.857 110.294 92.857C110.247 92.857 110.186 92.8757 110.112 92.913C110.042 92.9457 109.976 92.9947 109.916 93.06C110.074 93.1253 110.193 93.2187 110.272 93.34C110.352 93.4613 110.392 93.6013 110.392 93.76C110.392 94.0027 110.324 94.2267 110.188 94.432C110.058 94.6373 109.864 94.803 109.608 94.929C109.351 95.0503 109.045 95.111 108.691 95.111C108.56 95.111 108.429 95.0993 108.299 95.076C108.215 95.16 108.173 95.2393 108.173 95.314C108.173 95.4073 108.231 95.4773 108.347 95.524C108.469 95.5707 108.66 95.6173 108.922 95.664L109.104 95.699C109.365 95.7503 109.582 95.8063 109.755 95.867C109.927 95.9277 110.072 96.0187 110.188 96.14C110.31 96.2613 110.37 96.4247 110.37 96.63C110.37 96.9753 110.191 97.2413 109.832 97.428C109.472 97.6193 109.001 97.715 108.417 97.715C107.979 97.715 107.648 97.659 107.424 97.547C107.204 97.435 107.095 97.274 107.095 97.064C107.095 96.896 107.169 96.742 107.319 96.602C107.473 96.462 107.683 96.3453 107.949 96.252C107.79 96.196 107.666 96.126 107.577 96.042C107.493 95.9627 107.451 95.86 107.451 95.734C107.451 95.6313 107.484 95.531 107.549 95.433C107.615 95.335 107.718 95.2323 107.858 95.125L108.04 94.985C107.895 94.915 107.785 94.8217 107.71 94.705C107.64 94.5883 107.605 94.453 107.605 94.299C107.605 94.061 107.671 93.8393 107.802 93.634C107.932 93.4287 108.126 93.2653 108.382 93.144C108.644 93.018 108.954 92.955 109.313 92.955C109.449 92.955 109.58 92.9667 109.706 92.99C110.037 92.6167 110.35 92.43 110.644 92.43ZM109.369 94.341C109.435 94.159 109.468 93.921 109.468 93.627C109.468 93.319 109.372 93.165 109.181 93.165C108.933 93.165 108.749 93.3493 108.628 93.718C108.558 93.942 108.522 94.1823 108.522 94.439C108.522 94.7423 108.623 94.894 108.824 94.894C108.954 94.894 109.062 94.8473 109.146 94.754C109.234 94.656 109.309 94.5183 109.369 94.341ZM109.566 96.91C109.566 96.77 109.491 96.665 109.341 96.595C109.192 96.5297 108.971 96.469 108.677 96.413C108.448 96.371 108.292 96.3407 108.208 96.322C108.086 96.3827 107.979 96.476 107.886 96.602C107.797 96.7327 107.753 96.868 107.753 97.008C107.753 97.1527 107.811 97.267 107.928 97.351C108.049 97.4397 108.235 97.484 108.487 97.484C108.697 97.484 108.884 97.456 109.048 97.4C109.211 97.3487 109.337 97.2787 109.425 97.19C109.519 97.106 109.566 97.0127 109.566 96.91Z" fill="#FF0000"/>
<path d="M110.644 92.43C110.76 92.43 110.851 92.458 110.917 92.514C110.987 92.5653 111.021 92.6423 111.021 92.745C111.021 92.829 110.991 92.9107 110.931 92.99C110.875 93.0647 110.79 93.102 110.678 93.102C110.613 93.102 110.564 93.0903 110.532 93.067C110.499 93.0437 110.468 93.0087 110.44 92.962C110.417 92.9247 110.396 92.899 110.378 92.885C110.359 92.8663 110.331 92.857 110.294 92.857C110.247 92.857 110.186 92.8757 110.112 92.913C110.042 92.9457 109.976 92.9947 109.916 93.06C110.074 93.1253 110.193 93.2187 110.272 93.34C110.352 93.4613 110.392 93.6013 110.392 93.76C110.392 94.0027 110.324 94.2267 110.188 94.432C110.058 94.6373 109.864 94.803 109.608 94.929C109.351 95.0503 109.045 95.111 108.691 95.111C108.56 95.111 108.429 95.0993 108.299 95.076C108.215 95.16 108.173 95.2393 108.173 95.314C108.173 95.4073 108.231 95.4773 108.347 95.524C108.469 95.5707 108.66 95.6173 108.922 95.664L109.104 95.699C109.365 95.7503 109.582 95.8063 109.755 95.867C109.927 95.9277 110.072 96.0187 110.188 96.14C110.31 96.2613 110.37 96.4247 110.37 96.63C110.37 96.9753 110.191 97.2413 109.832 97.428C109.472 97.6193 109.001 97.715 108.417 97.715C107.979 97.715 107.648 97.659 107.424 97.547C107.204 97.435 107.095 97.274 107.095 97.064C107.095 96.896 107.169 96.742 107.319 96.602C107.473 96.462 107.683 96.3453 107.949 96.252C107.79 96.196 107.666 96.126 107.577 96.042C107.493 95.9627 107.451 95.86 107.451 95.734C107.451 95.6313 107.484 95.531 107.549 95.433C107.615 95.335 107.718 95.2323 107.858 95.125L108.04 94.985C107.895 94.915 107.785 94.8217 107.71 94.705C107.64 94.5883 107.605 94.453 107.605 94.299C107.605 94.061 107.671 93.8393 107.802 93.634C107.932 93.4287 108.126 93.2653 108.382 93.144C108.644 93.018 108.954 92.955 109.313 92.955C109.449 92.955 109.58 92.9667 109.706 92.99C110.037 92.6167 110.35 92.43 110.644 92.43ZM109.369 94.341C109.435 94.159 109.468 93.921 109.468 93.627C109.468 93.319 109.372 93.165 109.181 93.165C108.933 93.165 108.749 93.3493 108.628 93.718C108.558 93.942 108.522 94.1823 108.522 94.439C108.522 94.7423 108.623 94.894 108.824 94.894C108.954 94.894 109.062 94.8473 109.146 94.754C109.234 94.656 109.309 94.5183 109.369 94.341ZM109.566 96.91C109.566 96.77 109.491 96.665 109.341 96.595C109.192 96.5297 108.971 96.469 108.677 96.413C108.448 96.371 108.292 96.3407 108.208 96.322C108.086 96.3827 107.979 96.476 107.886 96.602C107.797 96.7327 107.753 96.868 107.753 97.008C107.753 97.1527 107.811 97.267 107.928 97.351C108.049 97.4397 108.235 97.484 108.487 97.484C108.697 97.484 108.884 97.456 109.048 97.4C109.211 97.3487 109.337 97.2787 109.425 97.19C109.519 97.106 109.566 97.0127 109.566 96.91Z" fill="url(#paint8_linear)"/>
<path d="M128.896 94.432H129.449L129.372 94.971H128.819L128.728 95.643V95.678C128.728 95.748 128.765 95.783 128.84 95.783L129.141 95.776L129.12 96H127.202L127.23 95.776L127.713 95.783C127.802 95.783 127.853 95.7363 127.867 95.643L127.965 94.971H126.117L126.187 94.495C126.243 94.453 126.325 94.383 126.432 94.285L126.663 94.068L128.567 92.122L128.721 91.968L128.889 91.772H129.267L128.896 94.432ZM128.28 92.759L126.635 94.432H128.042L128.28 92.759Z" fill="#FF0000"/>
<path d="M128.896 94.432H129.449L129.372 94.971H128.819L128.728 95.643V95.678C128.728 95.748 128.765 95.783 128.84 95.783L129.141 95.776L129.12 96H127.202L127.23 95.776L127.713 95.783C127.802 95.783 127.853 95.7363 127.867 95.643L127.965 94.971H126.117L126.187 94.495C126.243 94.453 126.325 94.383 126.432 94.285L126.663 94.068L128.567 92.122L128.721 91.968L128.889 91.772H129.267L128.896 94.432ZM128.28 92.759L126.635 94.432H128.042L128.28 92.759Z" fill="url(#paint9_linear)"/>
<path d="M148.443 95.58C148.238 95.7527 148.035 95.8787 147.834 95.958C147.638 96.0327 147.463 96.07 147.309 96.07C147.225 96.07 147.167 96.0443 147.134 95.993C147.101 95.9417 147.085 95.86 147.085 95.748C147.085 95.664 147.094 95.5403 147.113 95.377C147.136 95.209 147.162 95.0317 147.19 94.845C146.947 95.2883 146.719 95.6033 146.504 95.79C146.289 95.9767 146.068 96.07 145.839 96.07C145.652 96.07 145.51 96.0187 145.412 95.916C145.314 95.8087 145.265 95.6733 145.265 95.51C145.265 95.342 145.335 94.9477 145.475 94.327C145.568 93.921 145.615 93.676 145.615 93.592C145.615 93.466 145.529 93.403 145.356 93.403C145.3 93.403 145.253 93.4077 145.216 93.417L145.188 93.165C145.44 93.0997 145.638 93.053 145.783 93.025C145.928 92.997 146.079 92.983 146.238 92.983C146.429 92.983 146.525 93.0437 146.525 93.165C146.525 93.2117 146.504 93.3307 146.462 93.522C146.42 93.7133 146.392 93.8347 146.378 93.886C146.364 93.9467 146.334 94.0843 146.287 94.299C146.24 94.509 146.203 94.6863 146.175 94.831C146.152 94.9757 146.14 95.0807 146.14 95.146C146.14 95.23 146.154 95.2977 146.182 95.349C146.215 95.3957 146.264 95.419 146.329 95.419C146.441 95.419 146.565 95.3397 146.7 95.181C146.84 95.0177 146.966 94.8193 147.078 94.586C147.195 94.3527 147.276 94.1357 147.323 93.935L147.456 93.088L148.415 92.969C148.401 93.0343 148.378 93.158 148.345 93.34C148.21 94.0493 148.119 94.5323 148.072 94.789C148.03 95.0457 148.009 95.2347 148.009 95.356C148.009 95.4353 148.039 95.475 148.1 95.475C148.184 95.475 148.273 95.4447 148.366 95.384L148.443 95.58Z" fill="#FF0000"/>
<path d="M148.443 95.58C148.238 95.7527 148.035 95.8787 147.834 95.958C147.638 96.0327 147.463 96.07 147.309 96.07C147.225 96.07 147.167 96.0443 147.134 95.993C147.101 95.9417 147.085 95.86 147.085 95.748C147.085 95.664 147.094 95.5403 147.113 95.377C147.136 95.209 147.162 95.0317 147.19 94.845C146.947 95.2883 146.719 95.6033 146.504 95.79C146.289 95.9767 146.068 96.07 145.839 96.07C145.652 96.07 145.51 96.0187 145.412 95.916C145.314 95.8087 145.265 95.6733 145.265 95.51C145.265 95.342 145.335 94.9477 145.475 94.327C145.568 93.921 145.615 93.676 145.615 93.592C145.615 93.466 145.529 93.403 145.356 93.403C145.3 93.403 145.253 93.4077 145.216 93.417L145.188 93.165C145.44 93.0997 145.638 93.053 145.783 93.025C145.928 92.997 146.079 92.983 146.238 92.983C146.429 92.983 146.525 93.0437 146.525 93.165C146.525 93.2117 146.504 93.3307 146.462 93.522C146.42 93.7133 146.392 93.8347 146.378 93.886C146.364 93.9467 146.334 94.0843 146.287 94.299C146.24 94.509 146.203 94.6863 146.175 94.831C146.152 94.9757 146.14 95.0807 146.14 95.146C146.14 95.23 146.154 95.2977 146.182 95.349C146.215 95.3957 146.264 95.419 146.329 95.419C146.441 95.419 146.565 95.3397 146.7 95.181C146.84 95.0177 146.966 94.8193 147.078 94.586C147.195 94.3527 147.276 94.1357 147.323 93.935L147.456 93.088L148.415 92.969C148.401 93.0343 148.378 93.158 148.345 93.34C148.21 94.0493 148.119 94.5323 148.072 94.789C148.03 95.0457 148.009 95.2347 148.009 95.356C148.009 95.4353 148.039 95.475 148.1 95.475C148.184 95.475 148.273 95.4447 148.366 95.384L148.443 95.58Z" fill="url(#paint10_linear)"/>
<defs>
<linearGradient id="paint0_linear" x1="120" y1="85" x2="49" y2="85" gradientUnits="userSpaceOnUse">
<stop stop-color="#FFEA2A"/>
<stop offset="1" stop-color="white" stop-opacity="0"/>
</linearGradient>
<linearGradient id="paint1_linear" x1="118.094" y1="65" x2="60.9615" y2="65" gradientUnits="userSpaceOnUse">
<stop stop-color="white" stop-opacity="0"/>
<stop offset="1" stop-color="#81FF46"/>
</linearGradient>
<linearGradient id="paint2_linear" x1="101" y1="90" x2="101" y2="99" gradientUnits="userSpaceOnUse">
<stop stop-color="#FFEA2A"/>
<stop offset="1" stop-color="white" stop-opacity="0"/>
</linearGradient>
<linearGradient id="paint3_linear" x1="101" y1="90" x2="101" y2="99" gradientUnits="userSpaceOnUse">
<stop stop-color="#FFEA2A"/>
<stop offset="1" stop-color="white" stop-opacity="0"/>
</linearGradient>
<linearGradient id="paint4_linear" x1="101" y1="90" x2="101" y2="99" gradientUnits="userSpaceOnUse">
<stop stop-color="#FFEA2A"/>
<stop offset="1" stop-color="white" stop-opacity="0"/>
</linearGradient>
<linearGradient id="paint5_linear" x1="101" y1="90" x2="101" y2="99" gradientUnits="userSpaceOnUse">
<stop stop-color="#FFEA2A"/>
<stop offset="1" stop-color="white" stop-opacity="0"/>
</linearGradient>
<linearGradient id="paint6_linear" x1="101" y1="90" x2="101" y2="99" gradientUnits="userSpaceOnUse">
<stop stop-color="#FFEA2A"/>
<stop offset="1" stop-color="white" stop-opacity="0"/>
</linearGradient>
<linearGradient id="paint7_linear" x1="101" y1="90" x2="101" y2="99" gradientUnits="userSpaceOnUse">
<stop stop-color="#FFEA2A"/>
<stop offset="1" stop-color="white" stop-opacity="0"/>
</linearGradient>
<linearGradient id="paint8_linear" x1="101" y1="90" x2="101" y2="99" gradientUnits="userSpaceOnUse">
<stop stop-color="#FFEA2A"/>
<stop offset="1" stop-color="white" stop-opacity="0"/>
</linearGradient>
<linearGradient id="paint9_linear" x1="101" y1="90" x2="101" y2="99" gradientUnits="userSpaceOnUse">
<stop stop-color="#FFEA2A"/>
<stop offset="1" stop-color="white" stop-opacity="0"/>
</linearGradient>
<linearGradient id="paint10_linear" x1="101" y1="90" x2="101" y2="99" gradientUnits="userSpaceOnUse">
<stop stop-color="#FFEA2A"/>
<stop offset="1" stop-color="white" stop-opacity="0"/>
</linearGradient>
</defs>
</svg>
