<svg id="Layer_1" data-name="Layer 1" xmlns="http://www.w3.org/2000/svg" viewBox="0 0 80 80"><defs><style>.cls-1{fill:#fff;}</style></defs><title>illustrator</title><polygon class="cls-1" points="26.61 43 36.91 43 31.76 28.25 26.61 43"/><path class="cls-1" d="M180,4a4,4,0,0,0-4-4H104a4,4,0,0,0-4,4V76a4,4,0,0,0,4,4h72a4,4,0,0,0,4-4V4ZM141.55,57l-2.91-9H124.88L122,57h-6.42L129,21h5.54L148,57h-6.45ZM158,57h-6V30h6V57Zm-0.7-31.76a3.32,3.32,0,0,1-2.49.9,3.28,3.28,0,0,1-2.48-.9,3.11,3.11,0,0,1-.87-2.25,3.19,3.19,0,0,1,.87-2.29,3.26,3.26,0,0,1,2.48-.91,3.3,3.3,0,0,1,2.49.91,3.16,3.16,0,0,1,.88,2.29A3.09,3.09,0,0,1,157.3,25.24Z" transform="translate(-100)"/></svg>