<svg id="Layer_1" data-name="Layer 1" xmlns="http://www.w3.org/2000/svg" xmlns:xlink="http://www.w3.org/1999/xlink" viewBox="0 0 200 100"><defs><style>.cls-1{isolation:isolate;fill:url(#linear-gradient);}</style><linearGradient id="linear-gradient" x1="230" y1="1050.7" x2="430" y2="1050.7" gradientUnits="userSpaceOnUse"><stop offset="0" stop-color="#14ffff"/><stop offset="1" stop-color="#4b9bff"/></linearGradient></defs><title>interface</title><path class="cls-1" d="M402,1060.7h16a2,2,0,0,0,2-2v-16a2,2,0,0,0-2-2H402a2,2,0,0,0-2,2v16A2,2,0,0,0,402,1060.7Zm0-18h16v16H402v-16Zm0,48h16a2,2,0,0,0,2-2v-16a2,2,0,0,0-2-2H402a2,2,0,0,0-2,2v16A2,2,0,0,0,402,1090.7Zm0-18h16v16H402v-16Zm-150,18H368a2,2,0,0,0,2-2v-78H250v78A2,2,0,0,0,252,1090.7Zm2-66H366v62H254v-62Zm148,6h16a2,2,0,0,0,2-2v-16a2,2,0,0,0-2-2H402a2,2,0,0,0-2,2v16A2,2,0,0,0,402,1030.7Zm5.68-16.29,6.87,9.14-3.24,0,0.85,3.17-2.24.6-0.85-3.17-2.83,1.56C406.67,1022.37,407.21,1018.3,407.68,1014.41ZM404,1046.7h12v8H404v-8Zm1,29h10v3h-0.3a2.2,2.2,0,0,0-.58-1.39,2.29,2.29,0,0,0-.88-0.69,5.82,5.82,0,0,0-1.09.08H411V1084a2.31,2.31,0,0,0,.26,1,1.51,1.51,0,0,0,.53.4,1.58,1.58,0,0,0,.75.28h-5.09a2,2,0,0,0,.87-0.29,1.29,1.29,0,0,0,.42-0.49A1.81,1.81,0,0,0,409,1084v-7.29h-1.15a2.56,2.56,0,0,0-1.63.36,2,2,0,0,0-.9,1.64H405v-3Zm-77-30h-2v-2h-2v-2h-2v-2h-2v-2h-2v-2H290v28h2v2h2v2h2v2h2v2h2v2h2v2h28v-28h-2v-2Zm-10-5h1v2h1.91l0,2H323v2h2v1h-7v-7Zm-16,30h-1v-2h-2v-2h-2v-2h-2v-1h7v7Zm0-10h-9v-20h1v2h2.24l0,2H298v2h2v2h2v12Zm-1-15v-2h-2v-2h-2v-2h-2v-1h20v9H303v-2h-2Zm14,5v10H305v-10h10Zm10,22H305v-9h12v2h2v2h2v2h2v2h2v1Zm2-2h-1v-2h-2v-2h-2v-2h-2v-2h-2v-12h9v20Zm99-70H234a4,4,0,0,0-4,4v92a4,4,0,0,0,4,4H426a4,4,0,0,0,4-4v-92A4,4,0,0,0,426,1000.7Zm-38,96H234v-92H388v92Zm38,0H392v-92h34v92Z" transform="translate(-230 -1000.7)"/></svg>