<svg id="Layer_1" data-name="Layer 1" xmlns="http://www.w3.org/2000/svg" viewBox="0 0 80 40"><defs><style>.cls-1{fill:#fff;}</style></defs><title>logo-mini-02</title><path class="cls-1" d="M27.85,14H27.9c-0.2,3.2-2,5.55-4.7,5.55H21.5l2.3-9h1.5C27.25,10.5,28,12,27.85,14ZM76,0L47.67,40H0L13,0H76ZM26.5,23.11c3.2-1.9,5.1-5.89,5.4-9.69,0.35-4-1.4-7.92-5.4-7.92H21l-6.8,27h4.1l2.1-8h2.3l0.8,8h4ZM39.15,12.94a2.91,2.91,0,0,1,2.5-2.8c1.6,0,2.6,1.4,2.5,3.6l4-2.6c-0.2-3.4-2.2-5.8-5.7-5.8-3.9,0-7,3.5-7.4,8-0.6,6.4,6.3,7.9,6,11.4-0.2,2.4-1.7,3.5-3.3,3.5a3.36,3.36,0,0,1-3.2-3.2l-3.8,2.4a6,6,0,0,0,6.1,5.5c4,0,7.8-3.1,8.3-8.9C45.75,17.8,38.85,16.54,39.15,12.94Z"/></svg>