<?xml version="1.0" encoding="utf-8"?>
<!-- Generator: Adobe Illustrator 19.2.1, SVG Export Plug-In . SVG Version: 6.00 Build 0)  -->
<svg version="1.1" id="Layer_1" xmlns="http://www.w3.org/2000/svg" xmlns:xlink="http://www.w3.org/1999/xlink" x="0px" y="0px"
	 viewBox="0 0 80 40" style="enable-background:new 0 0 80 40;" xml:space="preserve">
<style type="text/css">
	.st0{fill:#333333;}
</style>
<title>logo-mini-02</title>
<path class="st0" d="M27.9,14L27.9,14c-0.2,3.2-2,5.5-4.6,5.5h-1.7l2.3-9h1.5C27.3,10.5,28,12,27.9,14z M76,0L47.7,40H0L13,0H76z
	 M26.5,23.1c3.2-1.9,5.1-5.9,5.4-9.7c0.4-4-1.4-7.9-5.4-7.9H21l-6.8,27h4.1l2.1-8h2.3l0.8,8h4L26.5,23.1z M39.2,12.9
	c0-1.4,1.1-2.6,2.5-2.8c1.6,0,2.6,1.4,2.5,3.6l4-2.6C48,7.7,46,5.3,42.5,5.3c-3.9,0-7,3.5-7.4,8c-0.6,6.4,6.3,7.9,6,11.4
	c-0.2,2.4-1.7,3.5-3.3,3.5c-1.7-0.1-3.1-1.5-3.2-3.2l-3.8,2.4c0.3,3.2,2.9,5.6,6.1,5.5c4,0,7.8-3.1,8.3-8.9
	C45.8,17.8,38.8,16.5,39.2,12.9z"/>
</svg>
