<svg id="Layer_1" data-name="Layer 1" xmlns="http://www.w3.org/2000/svg" xmlns:xlink="http://www.w3.org/1999/xlink" viewBox="0 0 279.33 88"><defs><style>.cls-1{fill:url(#linear-gradient);}.cls-2{fill:url(#linear-gradient-2);}.cls-3{fill:#fff;}</style><linearGradient id="linear-gradient" x1="-1423.43" y1="243.21" x2="-1423.31" y2="242.21" gradientTransform="matrix(-254.79, 0, 0, 87.15, -362528.03, -21107.1)" gradientUnits="userSpaceOnUse"><stop offset="0" stop-color="aqua"/><stop offset="1" stop-color="#306eff"/></linearGradient><linearGradient id="linear-gradient-2" y1="45.3" x2="279.33" y2="45.3" gradientTransform="matrix(1, 0, 0, -1, 0, 90)" gradientUnits="userSpaceOnUse"><stop offset="0" stop-color="#ff93c7"/><stop offset="1" stop-color="#e149c1"/></linearGradient></defs><title>Logo</title><path id="Combined-Shape" class="cls-1" d="M39.65,26C61.89,15.87,92.8,7.35,127.39,3c71-8.8,130.71,2.37,133.5,25.11s-52.49,48.16-123.53,57C74.45,92.85,20.41,84.61,7,66.42H24.15c12.86,15.16,58.93,21.7,112.37,15C198,73.8,245.74,51,243.3,30.44S188.91-.66,127.49,7.08c-29.71,3.74-59.22,9.86-78.37,19H39.65V26Z" transform="translate(0 0)"/><polygon class="cls-2" points="12 22.7 279.33 22.7 257 66.7 0 66.7 12 22.7"/><polygon class="cls-3" points="92.26 58.45 103.88 58.45 105.09 53.4 97.61 53.4 99.03 48.35 105.3 48.35 106.51 43.29 100.24 43.29 102.06 36.22 109.54 36.22 110.75 31.16 99.13 31.16 92.26 58.45"/><polygon class="cls-3" points="89.73 31.16 82.86 58.45 87 58.45 93.87 31.16 89.73 31.16"/><path class="cls-3" d="M29.43,31.16H23.87L17,58.45h4.14l2.12-8.09h2.32l0.81,8.09h4l-1-9.49c3.23-1.92,5.16-6,5.46-9.79C35.25,35.12,33.48,31.16,29.43,31.16Zm1.42,8.54c-0.2,3.23-2,5.61-4.75,5.61H24.38l2.32-9.1h1.52c2,0,2.78,1.47,2.58,3.49h0.05Z" transform="translate(0 0)"/><path class="cls-3" d="M84.68,31.16H79.82l-5.36,7.38c-1,1.31-1.92,2.73-1.92,2.73h-0.1s0.51-1.72.91-3.23l1.72-6.87H70.88L64,58.45h4.14L70.27,50a23.73,23.73,0,0,0,2-2.68h0.1L73.1,58.45h4.55L76.44,42.28Z" transform="translate(0 0)"/><polygon class="cls-3" points="35.75 58.45 39.9 58.45 46.77 31.16 42.63 31.16 35.75 58.45"/><path class="cls-3" d="M54.7,54.25c-1.62,0-2.12-1.72-1.92-4.35,0.3-4.65,2.83-13.85,6.06-13.85,1.62,0,2,1.62,1.92,4l4.14-2.63c-0.3-3.64-1.92-6.37-5.36-6.37-7.08,0-10.41,11.73-11,19.1C48.13,55.06,49.65,59,53.9,59c3.13,0,5.56-2.32,7.28-5.46l-2.93-3.13C57.18,52.63,56.07,54.25,54.7,54.25Z" transform="translate(0 0)"/><polygon class="cls-3" points="154.42 31.16 151.39 43.29 145.93 43.29 148.96 31.16 144.82 31.16 137.95 58.45 142.09 58.45 144.82 48.35 150.28 48.35 147.65 58.45 151.69 58.45 158.57 31.16 154.42 31.16"/><path class="cls-3" d="M129.15,38.68a2.94,2.94,0,0,1,2.53-2.83c1.62,0,2.63,1.42,2.53,3.64l4-2.63C138,33.43,136,31,132.49,31c-3.94,0-7.08,3.54-7.48,8.09-0.61,6.47,6.37,8,6.06,11.52-0.2,2.43-1.72,3.54-3.34,3.54a3.4,3.4,0,0,1-3.23-3.23l-3.84,2.43a6.06,6.06,0,0,0,6.17,5.56c4,0,7.88-3.13,8.39-9C135.82,43.59,128.85,42.32,129.15,38.68Z" transform="translate(0 0)"/><path class="cls-3" d="M253.28,31.16L250,43.75c-0.3,1.52-.71,3.59-0.71,3.59h-0.1a34.71,34.71,0,0,0-.4-3.59l-1.92-12.58h-3.54L236.5,58.45h4l3.18-12.58c0.4-1.72.81-3.59,0.81-3.59h0.2s0.1,1.87.3,3.49L247,58.45h3.44l7-27.29h-4.09Z" transform="translate(0 0)"/><path class="cls-3" d="M213.76,31.16l-4.55,6.37c-0.81,1.21-1.92,2.78-1.92,2.78h-0.1s-0.2-1.77-.51-3l-1.21-6.06h-4.35L194.25,58.5h4.14l4-15.26c0.3-1.52.71-2.93,0.71-2.93h0.1s0.2,1.52.51,2.93l1.31,6.17h0.1L210,42.94c0.91-1.31,1.92-2.63,1.92-2.63H212s-0.4,1.31-.91,3L207.19,58.5h4.19l6.87-27.29h-4.45Z" transform="translate(0 0)"/><path class="cls-3" d="M216.44,58.45H221l1.72-4h5.05l-0.4,4h4.14l1.72-27.29h-4.65Zm12.84-20.22s-0.4,2.68-.51,4.5l-0.71,6.62h-3.54l3-6.77a19.59,19.59,0,0,0,1.62-4.3h0.1V38.24Z" transform="translate(0 0)"/><polygon class="cls-3" points="175.25 36.22 176.46 31.16 164.83 31.16 157.96 58.45 169.69 58.45 170.9 53.4 163.42 53.4 164.83 48.35 171 48.35 172.21 43.29 165.95 43.29 167.76 36.22 175.25 36.22"/><path class="cls-3" d="M187.78,31.16h-5.46l-6.87,27.29h4.14l2.12-8.09h2.38l0.81,8.09h4l-1-9.49c3.23-1.92,5.16-6,5.46-9.79C193.64,35.12,191.82,31.16,187.78,31.16Zm1.42,8.54c-0.2,3.23-2,5.61-4.75,5.61h-1.62l2.32-9.1h1.52c1.92,0,2.73,1.47,2.48,3.49h0.05Z" transform="translate(0 0)"/></svg>