<?xml version="1.0" encoding="utf-8"?>
<!-- Generator: Adobe Illustrator 19.2.1, SVG Export Plug-In . SVG Version: 6.00 Build 0)  -->
<svg version="1.1" id="Layer_1" xmlns="http://www.w3.org/2000/svg" xmlns:xlink="http://www.w3.org/1999/xlink" x="0px" y="0px"
	 viewBox="0 0 280 90" style="enable-background:new 0 0 280 90;" xml:space="preserve">
<style type="text/css">
	.st0{fill:url(#Combined-Shape_1_);}
	.st1{fill:url(#SVGID_1_);}
	.st2{fill:#FFFFFF;}
</style>
<title>logo</title>
<linearGradient id="Combined-Shape_1_" gradientUnits="userSpaceOnUse" x1="-1423.4354" y1="243.2353" x2="-1423.3123" y2="242.2185" gradientTransform="matrix(-254.79 0 0 87.15 -362528.0313 -21107.0996)">
	<stop  offset="0" style="stop-color:#00FFFF"/>
	<stop  offset="1" style="stop-color:#306EFF"/>
</linearGradient>
<path id="Combined-Shape" class="st0" d="M39.7,27C61.9,16.8,92.8,8.1,127.4,3.7c71-8.9,130.7,2.4,133.5,25.5
	c2.8,23.1-52.5,48.9-123.5,57.8C74.5,94.9,20.4,86.6,7,68.1h17.1c12.9,15.4,58.9,22,112.4,15.3c61.5-7.8,109.2-31,106.8-51.8
	C240.9,10.7,188.9,0,127.5,7.9c-29.7,3.8-59.2,10-78.4,19.2L39.7,27L39.7,27z"/>
<linearGradient id="SVGID_1_" gradientUnits="userSpaceOnUse" x1="0" y1="44" x2="279.33" y2="44" gradientTransform="matrix(1 0 0 -1 0 90)">
	<stop  offset="0" style="stop-color:#FF93C7"/>
	<stop  offset="1" style="stop-color:#E149C1"/>
</linearGradient>
<polygon class="st1" points="12,24 279.3,24 257,68 0,68 "/>
<g>
	<polygon class="st2" points="91.3,59.5 102.9,59.5 104.1,54.4 96.6,54.4 98,49.3 104.3,49.3 105.5,44.3 99.2,44.3 101.1,37.2 
		108.5,37.2 109.8,32.2 98.1,32.2 	"/>
	<polygon class="st2" points="88.7,32.2 81.9,59.5 86,59.5 92.9,32.2 	"/>
	<path class="st2" d="M29.4,32.2h-5.6L17,59.5h4.1l2.1-8.1h2.3l0.8,8.1h4l-1-9.5c3.2-1.9,5.2-6,5.5-9.8
		C35.2,36.1,33.5,32.2,29.4,32.2z M30.8,40.7c-0.2,3.2-2,5.6-4.8,5.6h-1.7l2.3-9.1h1.5C30.2,37.2,31,38.7,30.8,40.7L30.8,40.7z"/>
	<path class="st2" d="M83.7,32.2h-4.9l-5.4,7.4c-1,1.3-1.9,2.7-1.9,2.7h-0.1c0,0,0.5-1.7,0.9-3.2l1.7-6.9h-4.2L63,59.5h4.1l2.1-8.4
		c0.7-0.8,1.4-1.7,2-2.7h0.1l0.7,11.1h4.5l-1.2-16.2L83.7,32.2z"/>
	<polygon class="st2" points="35.8,59.5 39.9,59.5 46.8,32.2 42.6,32.2 	"/>
	<path class="st2" d="M53.7,55.2c-1.6,0-2.1-1.7-1.9-4.3c0.3-4.6,2.8-13.8,6.1-13.8c1.6,0,2,1.6,1.9,4l4.1-2.6
		c-0.3-3.6-1.9-6.4-5.4-6.4c-7.1,0-10.4,11.7-11,19.1c-0.4,4.9,1.1,8.8,5.4,8.8c3.1,0,5.6-2.3,7.3-5.5l-2.9-3.1
		C56.2,53.6,55.1,55.2,53.7,55.2z"/>
	<polygon class="st2" points="153.4,32.2 150.4,44.3 144.9,44.3 148,32.2 143.8,32.2 136.9,59.5 141.1,59.5 143.8,49.3 149.3,49.3 
		146.6,59.5 150.7,59.5 157.6,32.2 	"/>
	<path class="st2" d="M128.2,39.7c0-1.4,1.1-2.6,2.5-2.8c1.6,0,2.6,1.4,2.5,3.6l4-2.6c-0.2-3.4-2.2-5.9-5.8-5.9
		c-3.9,0-7.1,3.5-7.5,8.1c-0.6,6.5,6.4,8,6.1,11.5c-0.2,2.4-1.7,3.5-3.3,3.5c-1.8-0.1-3.2-1.5-3.2-3.2l-3.8,2.4
		c0.3,3.2,3,5.6,6.2,5.6c4,0,7.9-3.1,8.4-9C134.8,44.6,127.8,43.3,128.2,39.7z"/>
	<path class="st2" d="M252.3,32.2L249,44.7c-0.3,1.5-0.7,3.6-0.7,3.6h-0.1c-0.1-1.2-0.2-2.4-0.4-3.6l-1.9-12.6h-3.5l-6.9,27.3h4
		l3.2-12.6c0.4-1.7,0.8-3.6,0.8-3.6h0.2c0,0,0.1,1.9,0.3,3.5l1.9,12.7h3.4l7-27.3H252.3L252.3,32.2z"/>
	<path class="st2" d="M212.8,32.2l-4.5,6.4c-0.8,1.2-1.9,2.8-1.9,2.8h-0.1c0,0-0.2-1.8-0.5-3l-1.2-6.1h-4.3l-6.9,27.3h4.1l4-15.3
		c0.3-1.5,0.7-2.9,0.7-2.9h0.1c0,0,0.2,1.5,0.5,2.9l1.3,6.2h0.1l4.9-6.5c0.9-1.3,1.9-2.6,1.9-2.6h0.1c0,0-0.4,1.3-0.9,3l-3.9,15.2
		h4.2l6.9-27.3L212.8,32.2L212.8,32.2z"/>
	<path class="st2" d="M215.4,59.5h4.5l1.7-4h5.1l-0.4,4h4.1l1.7-27.3h-4.6L215.4,59.5z M228.3,39.2c0,0-0.4,2.7-0.5,4.5l-0.7,6.6
		h-3.5l3-6.8c0.7-1.4,1.2-2.8,1.6-4.3L228.3,39.2L228.3,39.2z"/>
	<polygon class="st2" points="174.2,37.2 175.5,32.2 163.8,32.2 157,59.5 168.7,59.5 169.9,54.4 162.4,54.4 163.8,49.3 170,49.3 
		171.2,44.3 164.9,44.3 166.8,37.2 	"/>
	<path class="st2" d="M186.8,32.2h-5.5l-6.9,27.3h4.1l2.1-8.1h2.4l0.8,8.1h4l-1-9.5c3.2-1.9,5.2-6,5.5-9.8
		C192.6,36.1,190.8,32.2,186.8,32.2z M188.2,40.7c-0.2,3.2-2,5.6-4.8,5.6h-1.6l2.3-9.1h1.5C187.6,37.2,188.4,38.7,188.2,40.7
		L188.2,40.7z"/>
</g>
</svg>
