<?xml version="1.0" encoding="UTF-8" standalone="no"?>
<svg width="276px" height="88px" viewBox="0 0 276 88" version="1.1" xmlns="http://www.w3.org/2000/svg" xmlns:xlink="http://www.w3.org/1999/xlink">
    <!-- Generator: Sketch 39.1 (31720) - http://www.bohemiancoding.com/sketch -->
    <title>Logo</title>
    <desc>Created with Sketch.</desc>
    <defs>
        <linearGradient x1="43.9065328%" y1="0.372692418%" x2="56.0934672%" y2="99.6273076%" id="linearGradient-1">
            <stop stop-color="#A62BFF" offset="0%"></stop>
            <stop stop-color="#59F1FF" offset="100%"></stop>
        </linearGradient>
    </defs>
    <g id="Page-1" stroke="none" stroke-width="1" fill="none" fill-rule="evenodd">
        <g id="Logo">
            <path d="M231.971335,62.0656463 C209.657629,71.9309353 178.689246,80.1143245 143.988974,84.3749821 C72.7871312,93.1174692 12.8354754,82.0333369 10.0832034,59.6178798 C7.3309313,37.2024227 62.8202724,11.9439184 134.022116,3.20143132 C197.022749,-4.53407379 251.215589,3.25271945 264.770466,20.6769058 L247.53782,22.3883672 C234.67242,7.133337 188.394946,0.197703823 134.834187,6.77413813 C73.1772514,14.3446579 25.2169781,36.954114 27.7119183,57.2737718 C30.2068586,77.5934296 82.2122294,87.928648 143.869165,80.3581283 C173.640566,76.7026599 200.218595,69.5408697 219.465063,60.8235851 L231.971335,62.0656463 Z" id="Combined-Shape" fill="url(#linearGradient-1)" opacity="0.5"></path>
            <text id="RICKIE-SHERMAN" font-family="Palatino-BoldItalic, Palatino" font-size="28" font-style="italic" font-weight="bold" letter-spacing="2" fill="#00003C">
                <tspan x="0" y="53">RICKIE SHERMAN</tspan>
            </text>
        </g>
    </g>
</svg>