<?xml version="1.0" encoding="utf-8"?>
<!-- Generator: Adobe Illustrator 19.2.1, SVG Export Plug-In . SVG Version: 6.00 Build 0)  -->
<svg version="1.1" id="Layer_1" xmlns="http://www.w3.org/2000/svg" xmlns:xlink="http://www.w3.org/1999/xlink" x="0px" y="0px"
	 viewBox="0 0 276 88" style="enable-background:new 0 0 276 88;" xml:space="preserve">
<style type="text/css">
	.st0{fill:url(#SVGID_1_);}
	.st1{opacity:0.75;}
	.st2{opacity:0.75;fill:url(#Combined-Shape_1_);enable-background:new    ;}
	.st3{fill:#0000F0;}
	.st4{fill:#FFFF78;}
	.st5{fill:#F7F3A6;}
</style>
<linearGradient id="SVGID_1_" gradientUnits="userSpaceOnUse" x1="-8.333334e-02" y1="45.9167" x2="276.25" y2="45.9167">
	<stop  offset="0" style="stop-color:#FFFFE6"/>
	<stop  offset="1" style="stop-color:#EFFFFF"/>
</linearGradient>
<rect x="-0.1" y="25.9" class="st0" width="276.3" height="40"/>
<title>Logo</title>
<desc>Created with Sketch.</desc>
<g id="Page-1" class="st1">
	<g id="Logo">
		
			<linearGradient id="Combined-Shape_1_" gradientUnits="userSpaceOnUse" x1="-339.2185" y1="322.2995" x2="-339.0967" y2="321.3078" gradientTransform="matrix(-254.7854 0 0 87.1524 -86276.0469 -28002.1582)">
			<stop  offset="0" style="stop-color:#59F1FF"/>
			<stop  offset="1" style="stop-color:#777CFF"/>
		</linearGradient>
		<path id="Combined-Shape" class="st2" d="M42.8,26c22.3-9.9,53.3-18.5,88-22.8C202-5.5,261.9,5.5,264.7,28s-52.7,47.7-123.9,56.4
			C77.7,92.1,23.5,83.4,10,66h17.2c12.9,15.3,59.1,21.4,112.7,14.8c61.7-7.6,109.6-30.2,107.1-50.5C244.5,10,192.5-0.4,130.9,7.2
			C101.1,10.9,71.5,17.3,52.3,26H42.8z"/>
	</g>
</g>
<rect x="280" y="23" class="st3" width="100.3" height="71.2"/>
<rect x="297.7" y="87.2" class="st4" width="64.3" height="51.3"/>
<text transform="matrix(1 0 0 1.2 300.0003 71.9423)" class="st5" style="font-family:'MissionGothic-BoldItalic'; font-size:32px; letter-spacing:2;">This is yellowed text</text>
<path id="RICKIE-SHERMAN" class="st3" d="M23,58l-0.8-8.3h-2.3L17.8,58h-4.1l6.8-26.9H26c4,0,5.8,3.8,5.5,7.8
	c-0.3,3.8-2.2,7.8-5.4,9.7l1,9.4H23z M22.7,44.9c2.7,0,4.5-2.4,4.7-5.6c0.2-2-0.6-3.5-2.5-3.5h-1.5l-2.3,9.1H22.7z M33.3,58
	l6.8-26.9h4.1L37.4,58H33.3z M58.4,53c-1.7,3.1-4.1,5.4-7.2,5.4c-4.2,0-5.7-3.9-5.3-8.7c0.6-7.3,3.9-18.9,10.9-18.9
	c3.4,0,5,2.7,5.3,6.3l-4.1,2.6c0.1-2.4-0.3-4-1.9-4c-3.2,0-5.7,9.1-6,13.7c-0.2,2.6,0.3,4.3,1.9,4.3c1.4,0,2.5-1.6,3.5-3.8L58.4,53z
	 M71.3,58l-0.7-11.3h-0.1c0,0-0.5,1-2,2.8L66.4,58h-4.1l6.8-26.9h4.1L71.5,38c-0.4,1.5-0.9,3.3-0.9,3.3h0.1c0,0,0.9-1.5,1.9-2.8
	l5.3-7.4h4.8l-8.1,11L75.8,58H71.3z M80.9,58l6.8-26.9h4.1L85,58H80.9z M92.2,58L99,31.1h11.5l-1.2,4.8h-7.4l-1.8,6.9h6.2l-1.2,4.8
	h-6.2l-1.4,5.6h7.4l-1.2,4.8H92.2z M124.1,50.4c0.2,1.9,1.6,3.2,3.2,3.2c1.6,0,3.1-1.1,3.3-3.5c0.3-3.5-6.6-5-6-11.4
	c0.4-4.5,3.5-8,7.4-8c3.5,0,5.5,2.4,5.7,5.8l-4,2.6c0.1-2.2-0.9-3.6-2.5-3.6c-1.2,0-2.3,1.2-2.5,2.8c-0.3,3.6,6.6,4.9,6,11.1
	c-0.5,5.8-4.3,8.9-8.3,8.9c-3.3,0-5.8-2.3-6.1-5.5L124.1,50.4z M148,58l2.6-10.1h-5.4L142.5,58h-4.1l6.8-26.9h4.1l-3,12h5.4l3-12
	h4.1L152,58H148z M159.2,58l6.8-26.9h11.5l-1.2,4.8h-7.4l-1.8,6.9h6.2l-1.2,4.8H166l-1.4,5.6h7.4l-1.2,4.8H159.2z M186.8,58
	l-0.8-8.3h-2.3l-2.1,8.3h-4.1l6.8-26.9h5.4c4,0,5.8,3.8,5.5,7.8c-0.3,3.8-2.2,7.8-5.4,9.7l1,9.4H186.8z M186.4,44.9
	c2.7,0,4.5-2.4,4.7-5.6c0.2-2-0.6-3.5-2.5-3.5h-1.5l-2.3,9.1H186.4z M209.9,58l3.9-15.3c0.5-1.7,0.9-3.3,0.9-3.3h-0.1
	c0,0-1,1.5-1.9,2.8l-4.8,6.6h-0.1l-1.3-6.3c-0.3-1.4-0.5-3.1-0.5-3.1h-0.1c0,0-0.4,1.7-0.7,3.2L201.2,58h-4.1l6.8-26.9h4.3l1.2,6
	c0.3,1.3,0.5,3.1,0.5,3.1h0.1c0,0,1.1-1.6,1.9-2.8l4.5-6.3h4.4L214,58H209.9z M229.8,58l0.4-4.2h-5l-1.7,4.2H219l12-26.9h4.6
	L233.9,58H229.8z M231.2,42.4c0.1-1.8,0.5-4.5,0.5-4.5h-0.1c-0.1,0.5-0.9,2.7-1.6,4.3l-2.9,6.8h3.4L231.2,42.4z M249.2,58l-1.9-12.7
	c-0.2-1.6-0.3-3.6-0.3-3.6h-0.1c0,0-0.4,2-0.8,3.7L242.9,58h-4l6.8-26.9h3.5l1.9,12.4c0.3,1.7,0.4,3.5,0.4,3.5h0.1
	c0,0,0.4-2,0.7-3.5l3.2-12.4h4L252.6,58H249.2z"/>
</svg>
