<svg id="Layer_1" data-name="Layer 1" xmlns="http://www.w3.org/2000/svg" xmlns:xlink="http://www.w3.org/1999/xlink" viewBox="0 0 285.33 87.05"><defs><style>.cls-1{isolation:isolate;fill:url(#linear-gradient);}.cls-2{fill:url(#linear-gradient-2);}.cls-3{fill:#fff;}</style><linearGradient id="linear-gradient" x1="-604.24" y1="347.48" x2="-604.12" y2="348.47" gradientTransform="translate(-153803.39 30370.65) rotate(180) scale(254.79 87.15)" gradientUnits="userSpaceOnUse"><stop offset="0" stop-color="aqua"/><stop offset="1" stop-color="#306eff"/></linearGradient><linearGradient id="linear-gradient-2" y1="45.7" x2="285.33" y2="45.7" gradientUnits="userSpaceOnUse"><stop offset="0" stop-color="#ff93c7"/><stop offset="1" stop-color="#d427bf"/></linearGradient></defs><title>logo</title><path id="Combined-Shape" class="cls-1" d="M39.75,25.7c22.3-10,53.3-18.43,88-22.73,71.2-8.7,131.1,2.34,133.9,24.84S209,75.45,137.75,84.15C74.65,91.85,20.45,83.7,7,65.7h17.2c12.9,15,59.1,21.47,112.7,14.87C198.55,73,246.45,50.41,244,30.11S189.45-.65,127.85,7c-29.8,3.7-59.4,9.75-78.6,18.75h-9.5Z"/><polygon class="cls-2" points="13 24.7 285.33 24.7 257 66.7 0 66.7 13 24.7"/><polygon class="cls-3" points="89.15 57.7 100.65 57.7 101.85 52.7 94.45 52.7 95.85 47.7 102.05 47.7 103.25 42.7 97.05 42.7 98.85 35.7 106.25 35.7 107.45 30.7 95.95 30.7 89.15 57.7"/><polygon class="cls-3" points="86.65 30.7 79.85 57.7 83.95 57.7 90.75 30.7 86.65 30.7"/><path class="cls-3" d="M27,30.7h-5.5l-6.8,27h4.1l2.1-8h2.3l0.8,8H28l-1-9.39c3.2-1.9,5.1-5.89,5.4-9.69C32.75,34.62,31,30.7,27,30.7Zm1.4,8.45c-0.2,3.2-2,5.55-4.7,5.55H22l2.3-9h1.5C27.75,35.7,28.55,37.15,28.35,39.15Z"/><path class="cls-3" d="M81.65,30.7h-4.8L71.55,38c-1,1.3-1.9,2.7-1.9,2.7h-0.1s0.5-1.7.9-3.2l1.7-6.8H68l-6.8,27h4.1l2.1-8.35a23.48,23.48,0,0,0,2-2.65h0.1l0.7,11h4.5l-1.2-16Z"/><polygon class="cls-3" points="33.25 57.7 37.35 57.7 44.15 30.7 40.05 30.7 33.25 57.7"/><path class="cls-3" d="M52,53.54c-1.6,0-2.1-1.7-1.9-4.3,0.3-4.6,2.8-13.7,6-13.7,1.6,0,2,1.6,1.9,4l4.1-2.6c-0.3-3.6-1.9-6.3-5.3-6.3-7,0-10.3,11.6-10.9,18.9-0.4,4.8,1.1,8.7,5.3,8.7,3.1,0,5.5-2.3,7.2-5.4l-2.9-3.1C54.45,51.94,53.35,53.54,52,53.54Z"/><polygon class="cls-3" points="150.65 30.7 147.65 42.7 142.25 42.7 145.25 30.7 141.15 30.7 134.35 57.7 138.45 57.7 141.15 47.7 146.55 47.7 143.95 57.7 147.95 57.7 154.75 30.7 150.65 30.7"/><path class="cls-3" d="M125.65,38.14a2.91,2.91,0,0,1,2.5-2.8c1.6,0,2.6,1.4,2.5,3.6l4-2.6c-0.2-3.4-2.2-5.8-5.7-5.8-3.9,0-7,3.5-7.4,8-0.6,6.4,6.3,7.9,6,11.4-0.2,2.4-1.7,3.5-3.3,3.5a3.36,3.36,0,0,1-3.2-3.2l-3.8,2.4a6,6,0,0,0,6.1,5.5c4,0,7.8-3.1,8.3-8.9C132.25,43,125.35,41.74,125.65,38.14Z"/><path class="cls-3" d="M248.45,30.7l-3.2,12.45c-0.3,1.5-.7,3.55-0.7,3.55h-0.1a34.34,34.34,0,0,0-.4-3.55l-1.9-12.45h-3.5l-6.8,27h4L239,45.25c0.4-1.7.8-3.55,0.8-3.55H240s0.1,1.85.3,3.45l1.9,12.55h3.4l6.9-27h-4Z"/><path class="cls-3" d="M209.35,30.7L204.85,37c-0.8,1.2-1.9,2.75-1.9,2.75h-0.1s-0.2-1.75-.5-3l-1.2-6h-4.3l-6.8,27h4.1l4-15.1c0.3-1.5.7-2.9,0.7-2.9h0.1s0.2,1.5.5,2.9l1.3,6.1h0.1l4.8-6.4c0.9-1.3,1.9-2.6,1.9-2.6h0.1s-0.4,1.3-.9,3l-3.9,15H207l6.8-27h-4.4Z"/><path class="cls-3" d="M212,57.7h4.5l1.7-4h5l-0.4,4h4.1l1.7-27H224Zm12.7-20s-0.4,2.65-.5,4.45l-0.7,6.55H220L223,42a19.38,19.38,0,0,0,1.6-4.25h0.1Z"/><polygon class="cls-3" points="171.25 35.7 172.45 30.7 160.95 30.7 154.15 57.7 165.75 57.7 166.95 52.7 159.55 52.7 160.95 47.7 167.05 47.7 168.25 42.7 162.05 42.7 163.85 35.7 171.25 35.7"/><path class="cls-3" d="M183.65,30.7h-5.4l-6.8,27h4.1l2.1-8H180l0.8,8h4l-1-9.39c3.2-1.9,5.1-5.89,5.4-9.69C189.45,34.62,187.65,30.7,183.65,30.7Zm1.4,8.45c-0.2,3.2-2,5.55-4.7,5.55h-1.6l2.3-9h1.5C184.45,35.7,185.25,37.15,185,39.15Z"/></svg>