<svg id="Layer_1" data-name="Layer 1" xmlns="http://www.w3.org/2000/svg" xmlns:xlink="http://www.w3.org/1999/xlink" viewBox="0 0 184 100"><defs><style>.cls-1{fill:none;}.cls-2{isolation:isolate;fill:url(#linear-gradient);}</style><linearGradient id="linear-gradient" x1="671" y1="1050.7" x2="855" y2="1050.7" gradientUnits="userSpaceOnUse"><stop offset="0" stop-color="#14ffff"/><stop offset="1" stop-color="#4b9bff"/></linearGradient></defs><title>music</title><rect class="cls-1" x="7" y="51" width="10" height="28"/><rect class="cls-1" x="6" y="64" width="12" height="2"/><rect class="cls-1" x="9" y="60" width="6" height="2"/><rect class="cls-1" x="10" y="56" width="4" height="2"/><rect class="cls-1" x="9" y="68" width="6" height="2"/><rect class="cls-1" x="10" y="72" width="4" height="2"/><rect class="cls-1" x="2" y="2" width="180" height="96" rx="2" ry="2"/><rect class="cls-1" x="26" y="52" width="136" height="46"/><path class="cls-1" d="M834,1011.7v18H696v-18H834m1-1H695v20H835v-20h0Z" transform="translate(-671 -1000.7)"/><path class="cls-2" d="M687,1062.7h-6v-2h6v2Zm-1-6h-4v2h4v-2Zm1,12h-6v2h6v-2Zm-5,6h4v-2h-4v2Zm8,6H678v-30h12v30Zm-2-14h-8v12h8v-12Zm0-14h-8v12h8v-12Zm167-48v92a3.86,3.86,0,0,1-3.83,4h-176a4.15,4.15,0,0,1-4.17-4v-92a4.15,4.15,0,0,1,4.17-4h176A3.86,3.86,0,0,1,855,1004.7Zm-142,76h-2v-28H697v44h16v-16Zm20,0h-2v-28H719v28h-2v16h16v-16Zm20-28H739v28h-2v16h16v-44Zm20,28h-2v-28H757v44h16v-16Zm20,0h-2v-28H779v28h-2v16h16v-16Zm20,0h-2v-28H799v28h-2v16h16v-16Zm20-28H819v28h-2v16h16v-44Zm18-48H675v92h20v-46H835v46h16v-92Zm-16,6H695v20H835v-20Zm-118.83,24a5,5,0,1,0,5,5A5,5,0,0,0,716.17,1034.7Zm8.83,6h16v-2H725v2Zm31.17-6a5,5,0,1,0,5,5A5,5,0,0,0,756.17,1034.7Zm8.83,6h16v-2H765v2Zm31.17-6a5,5,0,1,0,5,5A5,5,0,0,0,796.17,1034.7Zm8.83,6h16v-2H805v2Z" transform="translate(-671 -1000.7)"/></svg>