<svg id="Layer_1" data-name="Layer 1" xmlns="http://www.w3.org/2000/svg" viewBox="0 0 80 80"><defs><style>.cls-1{fill:#fff;}</style></defs><title>person</title><circle class="cls-1" cx="40.41" cy="25.58" r="8.5"/><path class="cls-1" d="M440,45.2c-11.58,0-21,5.21-21,11.63V60h42V56.83C461,50.42,451.58,45.2,440,45.2Z" transform="translate(-400)"/><path class="cls-1" d="M480,4a4,4,0,0,0-4-4H404a4,4,0,0,0-4,4V76a4,4,0,0,0,4,4h72a4,4,0,0,0,4-4V4Zm-39.59,9.08a12.5,12.5,0,1,1-12.5,12.5A12.51,12.51,0,0,1,440.41,13.08ZM465,61.51c0,0.86-.29,2.49-1.15,2.49H417c-0.86,0-2-1.62-2-2.49V56.83c0-8.76,11-15.62,25-15.62s25,6.86,25,15.63v4.69Z" transform="translate(-400)"/></svg>