<svg id="Layer_1" data-name="Layer 1" xmlns="http://www.w3.org/2000/svg" viewBox="0 0 80 80"><defs><style>.cls-1{fill:#fff;}</style></defs><title>photoshop</title><path class="cls-1" d="M27.28,26H19V39h8.11c2.2,0,3.87-1.42,5-2.45a6.76,6.76,0,0,0,1.73-4.93,5.31,5.31,0,0,0-1.76-4.22C30.95,26.24,29.33,26,27.28,26Z"/><path class="cls-1" d="M80,4a4,4,0,0,0-4-4H4A4,4,0,0,0,0,4V76a4,4,0,0,0,4,4H76a4,4,0,0,0,4-4V4ZM37.27,39.72C35,41.66,31.78,44,27.66,44H19V57H13V21H27.74c4,0,7.12,0,9.46,2a10.77,10.77,0,0,1,3.5,8.37A10.43,10.43,0,0,1,37.27,39.72Zm25.94,13a12.6,12.6,0,0,1-7.74,2.21,13.66,13.66,0,0,1-5.79-1.17c-1.69-.78-3-0.91-4-2.28S44.32,50,44.32,48h5.76c0.08,2,.61,1.53,1.59,2.29S53.93,51,55.55,51a6,6,0,0,0,3.56-1.13,3,3,0,0,0,1.22-2.45A2.79,2.79,0,0,0,59,44.9a13.79,13.79,0,0,0-4.33-1.49,22.19,22.19,0,0,1-5.05-1.63q-4.44-2.15-4.44-6.23a7,7,0,0,1,2.88-5.72,11.39,11.39,0,0,1,7.32-2.3c3.16,0,5.71,1.8,7.65,3.37S66,36,66,38H60c0-1-.42-3.11-1.27-3.87a5.44,5.44,0,0,0-6.56-1A2.63,2.63,0,0,0,51,35.42a2.3,2.3,0,0,0,1.15,2.06A16,16,0,0,0,56.77,39a22,22,0,0,1,5.48,1.82,7.75,7.75,0,0,1,3,2.54,6.5,6.5,0,0,1,1,3.61A6.88,6.88,0,0,1,63.21,52.71Z"/></svg>