<svg id="Layer_1" data-name="Layer 1" xmlns="http://www.w3.org/2000/svg" viewBox="0 0 80 80"><defs><style>.cls-1{fill:#fff;}</style></defs><title>sketch</title><path class="cls-1" d="M280,4a4,4,0,0,0-4-4H204a4,4,0,0,0-4,4V76a4,4,0,0,0,4,4h72a4,4,0,0,0,4-4V4Z" transform="translate(-200)"/><path class="cls-1" d="M270.93,27.46l0-.11a2,2,0,0,0-.23-0.49h0L261,12.39h0a2,2,0,0,0-.29-0.34l-0.1-.09a2,2,0,0,0-.26-0.18l-0.13-.07a2,2,0,0,0-.3-0.12l-0.12,0a2,2,0,0,0-.45-0.06H220.81a2,2,0,0,0-.45.06l-0.12,0a2,2,0,0,0-.3.12l-0.13.07a2,2,0,0,0-.26.18l-0.1.09a2,2,0,0,0-.29.34h0l-9.63,14.44h0a2,2,0,0,0-.23.49l0,0.11a2,2,0,0,0-.07.5s0,0,0,0,0,0.05,0,.08a2,2,0,0,0,.09.47l0,0.11a2,2,0,0,0,.25.48l0,0L238.49,67.7l0,0a2,2,0,0,0,.23.25l0.06,0.06a2,2,0,0,0,.34.22l0.08,0,0.31,0.11,0.11,0a1.8,1.8,0,0,0,.83,0l0.11,0,0.31-.11,0.08,0a2,2,0,0,0,.34-0.22l0.06-.06a2,2,0,0,0,.23-0.25l0,0L270.6,29.15l0,0a2,2,0,0,0,.25-0.48l0-.11a2,2,0,0,0,.09-0.47s0-.05,0-0.08,0,0,0,0A2,2,0,0,0,270.93,27.46Zm-15.3-12-5.9,8.85-5.9-8.85h11.8ZM246,26h-11.8l5.9-8.85ZM236.35,15.5l-5.9,8.85-5.9-8.85h11.8Zm-15.54,1.61,5.9,8.85h-11.8ZM215.18,30h13.71l6.86,27.42Zm24.91,28.3L233,30h14.15Zm4.34-.88L251.28,30H265Zm9-31.42,5.9-8.85,5.9,8.85h-11.8Z" transform="translate(-200)"/></svg>